<svg width="1920" height="241" viewBox="0 0 1920 241" fill="none" xmlns="http://www.w3.org/2000/svg">
<path d="M2074.58 110.8C2085.46 110.8 2091.86 118.48 2093.78 133.84C2093.94 134.64 2094.1 136.08 2094.26 138.16C2094.58 140.08 2094.82 141.6 2094.98 142.72C2095.14 143.84 2095.38 144.72 2095.7 145.36C2095.7 146 2095.86 146.64 2096.18 147.28C2096.66 148.56 2097.46 149.2 2098.58 149.2C2101.62 149.2 2105.54 148.4 2110.34 146.8C2115.14 145.2 2117.78 144.4 2118.26 144.4C2123.06 144.4 2125.46 146.8 2125.46 151.6C2125.46 155.12 2123.06 157.68 2118.26 159.28C2109.62 162.16 2102.9 163.6 2098.1 163.6C2087.7 163.6 2081.46 154.32 2079.38 135.76C2078.42 128.72 2076.82 125.2 2074.58 125.2C2069.78 125.2 2063.7 130.8 2056.34 142C2053.62 146.16 2050.02 150 2045.54 153.52C2041.06 157.04 2036.5 158.8 2031.86 158.8C2027.22 158.8 2023.54 157.2 2020.82 154C2018.1 150.8 2016.34 147.76 2015.54 144.88C2014.58 141.68 2013.06 134.72 2010.98 124C2008.9 113.28 2007.46 107.6 2006.66 106.96C2006.02 106.32 2005.46 106 2004.98 106C2002.74 106 2000.74 107.44 1998.98 110.32C1997.38 113.04 1995.54 116.88 1993.46 121.84C1991.38 126.8 1989.38 131.92 1987.46 137.2C1985.7 142.32 1984.26 146.16 1983.14 148.72C1982.02 151.12 1980.5 153.92 1978.58 157.12C1975.06 163.04 1970.26 166 1964.18 166C1960.02 166 1956.5 164.56 1953.62 161.68C1950.74 158.8 1948.5 155.12 1946.9 150.64C1944.02 141.68 1942.5 132.56 1942.34 123.28C1942.34 113.84 1941.38 106.64 1939.46 101.68C1937.7 96.5599 1935.54 93.9999 1932.98 93.9999C1924.66 93.9999 1918.42 99.1199 1914.26 109.36C1912.34 114.32 1910.26 121.36 1908.02 130.48C1904.82 142.8 1897.22 151.52 1885.22 156.64C1882.66 158.08 1880.02 158.8 1877.3 158.8C1872.5 158.8 1870.1 156.4 1870.1 151.6C1870.1 148.56 1872.5 146.08 1877.3 144.16C1879.22 143.36 1880.26 142.96 1880.42 142.96C1880.74 142.8 1881.38 142.48 1882.34 142C1883.3 141.52 1883.94 141.2 1884.26 141.04C1884.58 140.72 1885.14 140.32 1885.94 139.84C1886.9 139.2 1887.54 138.64 1887.86 138.16C1888.34 137.52 1888.9 136.8 1889.54 136C1890.34 135.2 1890.9 134.4 1891.22 133.6C1892.5 131.2 1893.62 128.08 1894.58 124.24C1895.54 120.4 1896.42 117.2 1897.22 114.64C1898.02 112.08 1899.54 108.16 1901.78 102.88C1904.02 97.4399 1906.34 93.3599 1908.74 90.6399C1911.14 87.9199 1914.42 85.4399 1918.58 83.1999C1922.9 80.7999 1928.1 79.5999 1934.18 79.5999C1940.42 79.5999 1945.7 83.1999 1950.02 90.3998C1954.5 97.4398 1956.74 108.24 1956.74 122.8C1956.74 127.92 1957.3 134 1958.42 141.04C1959.7 148.08 1961.62 151.6 1964.18 151.6C1965.46 151.6 1966.82 149.92 1968.26 146.56C1969.7 143.04 1970.9 140.08 1971.86 137.68C1972.82 135.12 1973.94 132.08 1975.22 128.56C1980.02 114.96 1984.74 105.44 1989.38 99.9999C1994.02 94.3999 1999.22 91.5999 2004.98 91.5999C2011.7 91.5999 2016.5 94.6399 2019.38 100.72C2021.78 106 2023.46 111.2 2024.42 116.32C2027.62 135.04 2029.94 144.4 2031.38 144.4C2036.18 144.4 2042.26 138.8 2049.62 127.6C2052.34 123.44 2055.94 119.6 2060.42 116.08C2064.9 112.56 2069.62 110.8 2074.58 110.8Z" fill="white" fill-opacity="0.02"/>
<path d="M1781.67 98.7999C1786.47 98.7999 1788.87 101.2 1788.87 106C1788.87 107.92 1788.47 109.84 1787.67 111.76C1786.87 113.68 1786.47 116 1786.47 118.72C1786.47 121.28 1787.27 123.92 1788.87 126.64C1790.63 129.36 1793.11 132.32 1796.31 135.52C1799.51 138.56 1804.31 141.2 1810.71 143.44C1817.11 145.68 1823.51 146.8 1829.91 146.8C1836.47 146.8 1842.07 145.12 1846.71 141.76C1851.35 138.4 1853.67 133.68 1853.67 127.6C1853.67 117.52 1851.35 109.44 1846.71 103.36C1842.07 97.1199 1835.59 93.9999 1827.27 93.9999C1823.43 93.9999 1819.51 95.1999 1815.51 97.5999C1811.67 99.9999 1809.19 101.2 1808.07 101.2C1803.27 101.2 1800.87 98.7999 1800.87 93.9999C1800.87 90.9599 1803.59 87.8399 1809.03 84.6399C1814.63 81.2799 1820.71 79.5999 1827.27 79.5999C1839.43 79.5999 1849.27 84.0799 1856.79 93.0399C1864.31 101.84 1868.07 113.36 1868.07 127.6C1868.07 137.84 1864.23 146 1856.55 152.08C1849.03 158.16 1840.95 161.2 1832.31 161.2C1823.67 161.2 1815.75 160.16 1808.55 158.08C1801.51 155.84 1795.83 153.12 1791.51 149.92C1787.19 146.56 1783.43 142.96 1780.23 139.12C1774.79 132.4 1772.07 126.24 1772.07 120.64C1772.07 114.88 1772.95 109.84 1774.71 105.52C1776.47 101.04 1778.79 98.7999 1781.67 98.7999Z" fill="white" fill-opacity="0.02"/>
<path d="M1685.08 37.5999C1682.2 33.5999 1680.76 29.5199 1680.76 25.3599C1680.76 21.1999 1682.12 17.5999 1684.84 14.5599C1687.72 11.5199 1691.24 9.43988 1695.4 8.31989C1699.72 7.19988 1704.68 6.15988 1710.28 5.19988C1715.88 4.23988 1720.76 3.51987 1724.92 3.03988C1735.8 1.75988 1741.56 1.11988 1742.2 1.11988C1743 0.959883 1744.12 0.879883 1745.56 0.879883C1750.36 0.879883 1752.76 3.27988 1752.76 8.07987C1752.76 9.35987 1752.12 10.7999 1750.84 12.3999C1749.56 13.9999 1748.28 14.8799 1747 15.0399C1745.72 15.1999 1742.92 15.5999 1738.6 16.2399C1734.44 16.7199 1730.12 17.2799 1725.64 17.9199C1721.16 18.3999 1716.52 19.0399 1711.72 19.8399C1700.68 21.7599 1695.16 23.5999 1695.16 25.3599C1695.16 26.6399 1698.04 30.7999 1703.8 37.8399C1709.56 44.7199 1716.28 52.7999 1723.96 62.0799C1731.8 71.3599 1737.4 78.7999 1740.76 84.3999C1744.28 89.8399 1746.04 95.9999 1746.04 102.88C1746.04 109.6 1743.56 117.2 1738.6 125.68C1733.8 134 1727.88 141.04 1720.84 146.8C1713.96 152.4 1706.84 157.04 1699.48 160.72C1692.12 164.24 1685.32 166 1679.08 166C1673 166 1667.72 164 1663.24 160C1658.92 156 1656.76 150.8 1656.76 144.4C1656.76 127.28 1662.2 113.52 1673.08 103.12C1684.12 92.5599 1695.64 87.2799 1707.64 87.2799C1709.88 87.2799 1713.4 87.6799 1718.2 88.4799C1723 89.2799 1726.28 90.1599 1728.04 91.1199C1724.84 85.8399 1717.64 76.6399 1706.44 63.5199C1695.24 50.2399 1688.12 41.5999 1685.08 37.5999ZM1730.92 107.44C1728.36 106.16 1724.52 104.88 1719.4 103.6C1714.28 102.32 1710.36 101.68 1707.64 101.68C1699.8 101.68 1691.72 105.52 1683.4 113.2C1675.24 120.72 1671.16 131.12 1671.16 144.4C1671.16 146.64 1672.12 148.4 1674.04 149.68C1675.96 150.96 1678.52 151.6 1681.72 151.6C1684.92 151.6 1689.72 149.92 1696.12 146.56C1702.68 143.2 1709.48 138 1716.52 130.96C1723.56 123.76 1728.36 115.92 1730.92 107.44Z" fill="white" fill-opacity="0.02"/>
<path d="M1598.82 172.48C1597.86 171.2 1594.98 167.52 1590.18 161.44C1585.38 155.36 1582.1 151.12 1580.34 148.72C1578.74 146.16 1576.42 142.48 1573.38 137.68C1568.1 129.36 1565.46 120.88 1565.46 112.24C1565.46 103.6 1567.78 95.9999 1572.42 89.4399C1577.22 82.8799 1583.22 79.5999 1590.42 79.5999C1597.62 79.5999 1603.94 81.7599 1609.38 86.0799C1614.82 90.3999 1618.42 96.5599 1620.18 104.56C1620.5 105.84 1620.66 107.12 1620.66 108.4C1620.66 113.2 1618.26 115.6 1613.46 115.6C1609.94 115.6 1607.54 113.2 1606.26 108.4C1604.02 98.7999 1599.22 93.9999 1591.86 93.9999C1587.86 93.9999 1584.82 95.9999 1582.74 99.9999C1580.82 103.84 1579.86 107.68 1579.86 111.52C1579.86 115.36 1580.34 118.8 1581.3 121.84C1582.42 124.88 1584.18 128.4 1586.58 132.4C1589.14 136.24 1591.22 139.28 1592.82 141.52C1597.14 147.6 1602.82 154.88 1609.86 163.36C1620.42 155.52 1631.06 149.76 1641.78 146.08C1645.14 144.96 1647.06 144.4 1647.54 144.4C1652.34 144.4 1654.74 146.8 1654.74 151.6C1654.74 155.12 1652.34 157.68 1647.54 159.28C1638.1 162.32 1628.26 167.6 1618.02 175.12C1625.54 186.8 1629.3 196.64 1629.3 204.64C1629.3 212.64 1626.1 220.64 1619.7 228.64C1613.3 236.8 1606.34 240.88 1598.82 240.88C1591.3 240.88 1585.06 238.32 1580.1 233.2C1575.14 228.08 1572.66 221.68 1572.66 214C1572.66 202.16 1581.38 188.32 1598.82 172.48ZM1606.98 184.24C1593.7 196.72 1587.06 206.64 1587.06 214C1587.06 217.84 1588.1 220.88 1590.18 223.12C1592.26 225.36 1595.06 226.48 1598.58 226.48C1602.26 226.48 1605.86 223.84 1609.38 218.56C1613.06 213.28 1614.9 208.24 1614.9 203.44C1614.9 198.8 1612.26 192.4 1606.98 184.24Z" fill="white" fill-opacity="0.02"/>
<path d="M1551.57 159.28C1542.93 162.16 1536.21 163.6 1531.41 163.6C1526.61 163.6 1522.85 161.84 1520.13 158.32C1517.41 154.8 1514.93 148.8 1512.69 140.32C1510.61 131.84 1509.01 127.6 1507.89 127.6C1503.73 127.6 1499.33 134 1494.69 146.8C1492.93 151.6 1490.05 156 1486.05 160C1482.05 164 1477.01 166 1470.93 166C1465.01 166 1460.37 163.36 1457.01 158.08C1453.65 152.8 1451.65 147.04 1451.01 140.8C1450.53 134.56 1449.73 128.8 1448.61 123.52C1447.49 118.24 1445.65 115.6 1443.09 115.6C1441.33 115.6 1440.05 116.08 1439.25 117.04C1438.45 118 1437.73 118.96 1437.09 119.92C1436.61 120.72 1436.05 121.6 1435.41 122.56C1434.93 123.36 1434.29 124.48 1433.49 125.92C1432.85 127.36 1432.05 128.88 1431.09 130.48C1427.89 136.08 1425.33 140.24 1423.41 142.96C1419.57 149.04 1413.89 153.68 1406.37 156.88C1403.49 158.16 1401.17 158.8 1399.41 158.8C1394.61 158.8 1392.21 156.4 1392.21 151.6C1392.21 148.56 1394.77 146.08 1399.89 144.16C1405.01 142.24 1408.61 139.52 1410.69 136C1412.93 132.32 1415.41 128.16 1418.13 123.52C1420.85 118.88 1422.69 115.76 1423.65 114.16C1424.77 112.56 1426.13 110.64 1427.73 108.4C1429.33 106 1430.77 104.48 1432.05 103.84C1435.41 102.08 1439.09 101.2 1443.09 101.2C1449.65 101.2 1454.61 103.84 1457.97 109.12C1461.33 114.4 1463.25 120.16 1463.73 126.4C1464.37 132.64 1465.25 138.4 1466.37 143.68C1467.49 148.96 1469.33 151.6 1471.89 151.6C1474.45 151.6 1476.85 149.6 1479.09 145.6C1481.49 141.6 1483.57 137.2 1485.33 132.4C1487.09 127.6 1489.89 123.2 1493.73 119.2C1497.73 115.2 1502.45 113.2 1507.89 113.2C1512.05 113.2 1515.09 114.24 1517.01 116.32C1518.93 118.24 1520.29 119.76 1521.09 120.88C1522.05 122 1522.85 123.68 1523.49 125.92C1524.29 128.16 1524.85 129.84 1525.17 130.96C1525.49 131.92 1525.97 133.68 1526.61 136.24C1528.53 145.04 1530.29 149.36 1531.89 149.2C1534.93 149.2 1538.85 148.4 1543.65 146.8C1548.45 145.2 1551.09 144.4 1551.57 144.4C1556.37 144.4 1558.77 146.8 1558.77 151.6C1558.77 155.12 1556.37 157.68 1551.57 159.28Z" fill="white" fill-opacity="0.02"/>
<path d="M1354.55 46.9599C1357.11 46.9599 1359.75 48.1599 1362.47 50.5599C1365.19 52.7999 1366.55 55.1999 1366.55 57.7599C1366.55 60.1599 1365.43 61.9999 1363.19 63.2799C1361.11 64.5599 1358.79 65.1999 1356.23 65.1999C1353.67 65.1999 1351.51 64.0799 1349.75 61.8399C1348.15 59.4399 1347.35 56.8799 1347.35 54.1599C1347.35 49.3599 1349.75 46.9599 1354.55 46.9599ZM1332.95 136.24C1323.99 145.84 1314.87 152.72 1305.59 156.88C1302.71 158.16 1300.39 158.8 1298.63 158.8C1293.83 158.8 1291.43 156.4 1291.43 151.6C1291.43 148.56 1293.83 146.08 1298.63 144.16C1301.19 143.2 1304.55 141.28 1308.71 138.4C1313.03 135.52 1315.91 133.36 1317.35 131.92C1318.79 130.48 1321.27 127.84 1324.79 124C1328.47 120.16 1331.35 117.28 1333.43 115.36C1335.51 113.28 1338.31 111.2 1341.83 109.12C1345.51 107.04 1348.87 106 1351.91 106C1358.15 106 1362.95 108.24 1366.31 112.72C1369.67 117.2 1371.67 122.16 1372.31 127.6C1374.07 142 1376.87 149.2 1380.71 149.2C1383.75 149.2 1387.67 148.4 1392.47 146.8C1397.27 145.2 1399.91 144.4 1400.39 144.4C1405.19 144.4 1407.59 146.8 1407.59 151.6C1407.59 155.12 1405.19 157.68 1400.39 159.28C1391.75 162.16 1384.71 163.6 1379.27 163.6C1373.99 163.6 1369.67 161.36 1366.31 156.88C1362.95 152.4 1360.95 147.44 1360.31 142C1358.55 127.6 1355.75 120.4 1351.91 120.4C1349.83 120.4 1347.43 121.76 1344.71 124.48C1342.15 127.04 1340.07 129.12 1338.47 130.72C1336.87 132.16 1335.03 134 1332.95 136.24Z" fill="white" fill-opacity="0.02"/>
<path d="M1279.82 163.6C1271.34 163.6 1264.78 159.76 1260.14 152.08C1255.66 144.4 1253.42 135.6 1253.42 125.68C1253.42 120.56 1255.82 118 1260.62 118C1265.42 118 1267.82 120.88 1267.82 126.64C1267.82 132.4 1268.94 137.6 1271.18 142.24C1273.42 146.88 1276.14 149.2 1279.34 149.2C1282.7 149.2 1286.78 148.4 1291.58 146.8C1296.38 145.2 1299.02 144.4 1299.5 144.4C1304.3 144.4 1306.7 146.8 1306.7 151.6C1306.7 155.12 1304.3 157.68 1299.5 159.28C1290.86 162.16 1284.3 163.6 1279.82 163.6ZM1231.82 8.07987L1231.58 12.1599C1229.66 31.3599 1228.38 45.5999 1227.74 54.8799C1227.26 64.1599 1227.02 75.3599 1227.02 88.4799C1227.02 101.44 1227.42 109.92 1228.22 113.92C1232.06 105.44 1238.62 97.5999 1247.9 90.3999C1257.18 83.1999 1268.62 79.5999 1282.22 79.5999C1287.02 79.5999 1289.42 81.9999 1289.42 86.7999C1289.42 91.5999 1287.02 93.9999 1282.22 93.9999C1275.66 93.9999 1269.58 95.1999 1263.98 97.5999C1258.54 99.9999 1254.22 102.96 1251.02 106.48C1244.94 113.2 1241.1 119.2 1239.5 124.48C1239.18 125.44 1238.62 127.52 1237.82 130.72C1237.18 133.76 1236.7 135.76 1236.38 136.72C1236.22 137.84 1235.66 139.28 1234.7 141.04C1233.1 144.08 1230.54 145.6 1227.02 145.6C1223.66 145.6 1220.38 140.32 1217.18 129.76C1214.14 119.04 1212.62 109.52 1212.62 101.2C1212.62 92.8799 1212.62 85.4399 1212.62 78.8799C1212.78 72.1599 1212.86 66.8799 1212.86 63.0399C1213.02 59.0399 1213.34 54.1599 1213.82 48.3999C1214.3 42.6399 1214.54 38.8799 1214.54 37.1199C1214.86 29.5999 1215.82 19.8399 1217.42 7.83987C1217.9 3.19988 1220.3 0.879883 1224.62 0.879883C1229.42 0.879883 1231.82 3.27988 1231.82 8.07987Z" fill="white" fill-opacity="0.02"/>
<path d="M1007.45 152.08C1007.29 152.08 1006.09 152.72 1003.85 154C998.089 157.2 993.849 158.8 991.129 158.8C986.329 158.8 983.929 156.4 983.929 151.6C983.929 148.56 986.329 146.08 991.129 144.16C991.929 143.84 993.849 142.88 996.889 141.28C999.929 139.68 1001.69 138.72 1002.17 138.4C1001.53 136.96 1001.21 134.8 1001.21 131.92C1001.21 117.52 1006.25 105.2 1016.33 94.9599C1026.41 84.7199 1035.61 79.5999 1043.93 79.5999C1052.25 79.5999 1058.81 81.5999 1063.61 85.5999C1068.41 89.4399 1070.81 94.1599 1070.81 99.7598C1070.81 105.2 1069.53 109.92 1066.97 113.92C1064.41 117.92 1060.41 121.84 1054.97 125.68C1047.45 131.12 1036.49 137.44 1022.09 144.64C1028.49 149.28 1037.37 151.6 1048.73 151.6C1060.09 151.6 1071.29 149.76 1082.33 146.08C1085.69 144.96 1087.61 144.4 1088.09 144.4C1092.89 144.4 1095.29 146.8 1095.29 151.6C1095.29 155.12 1092.89 157.68 1088.09 159.28C1074.65 163.76 1061.69 166 1049.21 166C1031.45 166 1017.53 161.36 1007.45 152.08ZM1015.61 131.92C1042.81 118.32 1056.41 108.08 1056.41 101.2C1056.41 96.3999 1052.41 93.9999 1044.41 93.9999C1039.61 93.9999 1033.61 97.8399 1026.41 105.52C1019.21 113.04 1015.61 121.84 1015.61 131.92Z" fill="white" fill-opacity="0.02"/>
<path d="M999.299 151.6C999.299 158 991.939 161.2 977.219 161.2C970.339 161.2 964.979 159.68 961.139 156.64C957.459 153.6 955.619 148.32 955.619 140.8C955.619 133.28 954.979 126.8 953.699 121.36C952.419 115.92 950.659 113.2 948.419 113.2C940.579 113.2 932.659 119.44 924.659 131.92C921.299 137.04 917.699 142.24 913.859 147.52C910.179 152.64 905.699 157.04 900.419 160.72C895.299 164.24 889.699 166 883.619 166C870.339 166 863.219 154.16 862.259 130.48C854.259 135.12 848.499 137.92 844.979 138.88C841.459 139.68 838.419 140.4 835.859 141.04C833.459 141.68 831.299 142.24 829.379 142.72C827.619 143.04 825.139 144.64 821.939 147.52C818.739 150.4 815.539 153.04 812.339 155.44C809.139 157.68 805.699 158.8 802.019 158.8C795.619 158.8 790.419 155.44 786.419 148.72C782.419 141.84 780.419 133.6 780.419 124C780.419 114.24 781.619 96.3999 784.019 70.4799C786.419 44.3999 787.619 23.5999 787.619 8.07987C787.619 5.99988 788.259 4.31988 789.539 3.03988C790.979 1.59988 792.739 0.879883 794.819 0.879883C799.619 0.879883 802.019 3.27988 802.019 8.07987C802.019 23.9199 800.819 45.2799 798.419 72.1599C796.019 98.8799 794.819 115.12 794.819 120.88C794.819 126.64 795.459 132 796.739 136.96C798.019 141.92 799.779 144.4 802.019 144.4C802.979 144.4 804.579 143.28 806.819 141.04C813.699 134.16 821.699 129.6 830.819 127.36C841.379 124.48 851.859 119.92 862.259 113.68C863.539 85.3599 868.659 61.1999 877.619 41.1999C886.739 21.0399 897.539 10.9599 910.019 10.9599C918.659 10.9599 925.219 14.0799 929.699 20.3199C934.179 26.5599 936.419 34.7999 936.419 45.0399C936.419 55.2799 933.859 65.3599 928.739 75.2799C923.779 85.0399 917.379 92.8799 909.539 98.7999C897.699 107.76 886.659 115.44 876.419 121.84C876.419 141.68 878.819 151.6 883.619 151.6C890.499 151.6 898.099 145.36 906.419 132.88C910.099 127.76 913.859 122.64 917.699 117.52C926.979 105.04 937.219 98.7999 948.419 98.7999C962.819 98.7999 970.019 112.4 970.019 139.6C970.019 144.4 972.339 146.8 976.979 146.8C981.779 146.8 985.379 146.4 987.779 145.6C990.179 144.8 991.619 144.4 992.099 144.4C996.899 144.4 999.299 146.8 999.299 151.6ZM877.379 104.08C884.099 99.9199 890.979 95.1199 898.019 89.6799C914.019 77.6799 922.019 61.8399 922.019 42.1599C922.019 37.8399 921.059 33.9999 919.139 30.6399C917.219 27.1199 914.179 25.3599 910.019 25.3599C903.459 25.3599 896.899 32.8799 890.339 47.9199C883.779 62.9599 879.459 81.6799 877.379 104.08Z" fill="white" fill-opacity="0.02"/>
<path d="M583.534 142.48L566.734 144.4C561.934 144.4 559.534 142 559.534 137.2C559.534 133.2 561.934 130.8 566.734 130C571.054 129.2 576.814 128.56 584.014 128.08C584.174 124.08 585.294 111.92 587.374 91.5999C589.614 71.2799 590.734 51.5999 590.734 32.5599C590.734 27.7599 593.134 25.3599 597.934 25.3599C600.814 25.3599 602.734 25.9999 603.694 27.2799C604.654 28.3999 605.134 30.1599 605.134 32.5599C605.134 51.5999 604.014 71.8399 601.774 93.2799C599.534 114.72 598.414 126 598.414 127.12C611.214 125.84 621.454 125.2 629.134 125.2C633.934 125.2 636.334 127.6 636.334 132.4C636.334 137.2 633.934 139.6 629.134 139.6C621.134 139.6 610.734 140.24 597.934 141.52V151.6C597.934 161.2 599.614 171.44 602.974 182.32C607.614 197.36 609.934 206.32 609.934 209.2C609.934 214 607.534 216.4 602.734 216.4C599.214 216.4 596.814 214 595.534 209.2C594.894 206.48 593.294 200.8 590.734 192.16C585.934 176 583.534 162.48 583.534 151.6V142.48ZM468.334 100.96C461.934 109.6 458.734 117.6 458.734 124.96C458.734 132.32 461.774 138.64 467.854 143.92C473.934 149.04 481.294 151.6 489.934 151.6C496.174 151.6 501.454 150.48 505.774 148.24C514.414 144.08 518.734 137.84 518.734 129.52C518.734 121.2 516.494 114.4 512.014 109.12C507.694 103.84 501.934 101.2 494.734 101.2C490.894 101.2 486.974 102.4 482.974 104.8C479.134 107.2 476.654 108.4 475.534 108.4C470.734 108.4 468.334 105.92 468.334 100.96ZM474.094 93.2799C481.134 88.9599 488.014 86.7999 494.734 86.7999C505.614 86.7999 514.734 90.8799 522.094 99.0399C529.454 107.2 533.134 117.36 533.134 129.52C533.134 141.52 528.654 150.64 519.694 156.88C510.894 162.96 500.414 166 488.254 166C476.254 166 465.934 161.84 457.294 153.52C448.654 145.2 444.334 135.76 444.334 125.2C444.334 119.92 445.534 114.4 447.934 108.64C450.334 102.88 452.254 98.9599 453.694 96.8799C455.134 94.7999 457.614 91.4399 461.134 86.7999C464.654 81.9999 467.854 79.5999 470.734 79.5999C475.534 79.5999 477.934 81.9999 477.934 86.7999C477.934 87.7599 476.654 89.9199 474.094 93.2799Z" fill="white" fill-opacity="0.02"/>
<path d="M84.2031 108.4L86.6031 118C86.6031 122.8 84.2031 125.2 79.4031 125.2C77.3231 125.2 75.163 123.52 72.923 120.16C70.843 116.8 69.803 112.88 69.803 108.4C69.803 103.92 70.9231 100.4 73.1631 97.8399C75.5631 95.2799 79.2431 92.6399 84.2031 89.9199C96.2031 83.0399 110.603 79.5999 127.403 79.5999C133.643 79.5999 138.763 82.3199 142.763 87.7599C146.923 93.0399 149.003 99.9999 149.003 108.64C149.003 117.28 151.483 127.04 156.443 137.92C161.403 148.64 166.923 154 173.003 154C177.963 154 181.883 151.84 184.763 147.52C187.643 143.2 191.243 138.64 195.563 133.84C199.883 128.88 205.163 123.44 211.403 117.52C217.643 111.44 224.603 106.4 232.283 102.4C239.963 98.3999 247.243 96.3999 254.123 96.3999C268.523 96.3999 279.803 101.28 287.963 111.04C296.123 120.8 300.203 132.72 300.203 146.8C300.203 157.68 296.523 166 289.163 171.76C281.963 177.52 274.443 180.4 266.603 180.4C261.803 180.4 259.403 178.08 259.403 173.44C259.403 168.8 261.803 166.32 266.603 166C271.723 165.68 276.203 163.92 280.043 160.72C283.883 157.52 285.803 152.88 285.803 146.8C285.803 136.88 283.243 128.4 278.123 121.36C273.163 114.32 265.163 110.8 254.123 110.8C247.723 110.8 240.203 113.84 231.563 119.92C217.963 129.52 206.443 141.28 197.003 155.2C194.443 159.04 191.003 162.24 186.683 164.8C182.363 167.2 177.803 168.4 173.003 168.4C162.603 168.4 153.563 161.84 145.883 148.72C138.363 135.44 134.603 121.2 134.603 106C134.603 103.12 133.963 100.4 132.683 97.8399C131.563 95.2799 129.883 93.9999 127.643 93.9999C114.363 93.9999 101.883 97.0399 90.2031 103.12C86.2031 105.04 84.2031 106.8 84.2031 108.4Z" fill="white" fill-opacity="0.02"/>
<path d="M52.8906 146.32C52.8906 146.32 55.4506 145.68 60.5706 144.4C65.3706 144.4 67.7706 146.8 67.7706 151.6C67.7706 155.12 65.3706 157.68 60.5706 159.28C57.6906 160.24 54.8105 160.72 51.9305 160.72C49.2105 160.72 46.5706 160.08 44.0106 158.8C41.4506 157.52 39.4506 155.6 38.0106 153.04C35.6106 148.88 33.8506 144.4 32.7306 139.6L31.7706 135.52C29.0506 140.16 22.4106 145.6 11.8506 151.84C1.45059 158.08 -9.66946 161.2 -21.5095 161.2C-27.9095 161.2 -33.5094 158.8 -38.3094 154C-43.1094 149.2 -45.5095 143.6 -45.5095 137.2C-45.5095 121.68 -39.1094 108.24 -26.3094 96.8799C-13.5094 85.3599 -0.549444 79.5999 12.5706 79.5999C19.7706 79.5999 25.9306 80.9598 31.0506 83.6798C36.3306 86.2398 38.9706 88.8799 38.9706 91.5999C38.9706 96.3999 36.5706 98.7999 31.7706 98.7999C30.8106 98.7999 28.4905 97.9999 24.8105 96.3999C21.1305 94.7999 17.0506 93.9999 12.5706 93.9999C3.93056 93.9999 -5.50945 98.2399 -15.7495 106.72C-25.9895 115.04 -31.1094 125.2 -31.1094 137.2C-31.1094 139.6 -30.1494 141.84 -28.2294 143.92C-26.1494 145.84 -23.9095 146.8 -21.5095 146.8C-12.0695 146.8 -3.26943 144.32 4.89056 139.36C13.0506 134.24 18.2506 130.08 20.4906 126.88C22.7306 123.52 24.5706 120.48 26.0106 117.76C27.4506 115.04 28.4906 113.28 29.1306 112.48C29.9306 111.52 31.5305 111.04 33.9305 111.04C36.3305 111.04 38.1706 111.92 39.4506 113.68C40.7306 115.44 41.9305 118.24 43.0505 122.08C44.1705 125.76 45.2906 129.92 46.4106 134.56C47.5306 139.2 48.4906 142.32 49.2906 143.92C50.2506 145.52 51.4506 146.32 52.8906 146.32Z" fill="white" fill-opacity="0.02"/>
<path d="M-110.384 132.88C-100.784 123.6 -95.9844 113.84 -95.9844 103.6C-95.9844 101.04 -96.9444 98.7999 -98.8644 96.8799C-100.784 94.9599 -103.264 93.9999 -106.304 93.9999C-109.344 93.9999 -111.984 95.3599 -114.224 98.0799C-116.464 100.8 -117.584 104.24 -117.584 108.4C-117.584 117.84 -115.184 126 -110.384 132.88ZM-194.144 72.3999L-194.384 79.5999C-194.384 100.4 -191.904 117.04 -186.944 129.52C-181.024 144.4 -169.104 151.76 -151.184 151.6C-141.744 151.6 -131.904 148.32 -121.664 141.76C-128.544 132.16 -131.984 121.04 -131.984 108.4C-131.984 99.2799 -129.344 92.2399 -124.064 87.2799C-118.784 82.1599 -112.784 79.5999 -106.064 79.5999C-99.3445 79.5999 -93.5844 81.9999 -88.7844 86.7999C-83.9844 91.5999 -81.5844 97.1999 -81.5844 103.6C-81.5844 117.52 -87.7444 130.64 -100.064 142.96C-93.8244 147.12 -87.2644 149.2 -80.3844 149.2C-73.3444 149.2 -67.4244 148.4 -62.6245 146.8C-57.8244 145.2 -55.1844 144.4 -54.7044 144.4C-49.9044 144.4 -47.5044 146.8 -47.5044 151.6C-47.5044 155.12 -49.9044 157.68 -54.7044 159.28C-63.3444 162.16 -72.5444 163.6 -82.3044 163.6C-92.0644 163.6 -101.824 159.84 -111.584 152.32C-124.544 161.44 -137.744 166 -151.184 166C-183.504 166 -202.224 146.16 -207.344 106.48C-208.304 98.4799 -208.784 89.5199 -208.784 79.5999V73.5999C-212.304 74.0799 -214.704 74.3199 -215.984 74.3199C-220.784 74.3199 -223.184 71.9199 -223.184 67.1199C-223.184 65.3599 -222.544 63.8399 -221.264 62.5599C-219.984 61.1199 -218.784 60.3199 -217.664 60.1599C-216.384 59.9999 -215.264 59.8399 -214.304 59.6799C-213.184 59.5199 -212.144 59.3599 -211.184 59.1999C-210.064 59.0399 -208.944 58.8799 -207.824 58.7199C-206.864 45.9199 -206.384 37.8399 -206.384 34.4799C-206.384 28.3999 -203.984 25.3599 -199.184 25.3599C-194.384 25.3599 -191.984 27.7599 -191.984 32.5599C-191.984 36.7199 -192.464 45.1999 -193.424 57.9999C-182.224 57.6799 -172.144 57.5199 -163.184 57.5199C-158.384 57.5199 -155.984 59.9199 -155.984 64.7199C-155.984 69.5199 -158.384 71.9199 -163.184 71.9199C-179.024 71.9199 -189.344 72.0799 -194.144 72.3999Z" fill="white" fill-opacity="0.02"/>
<path d="M-447.551 152.08C-447.711 152.08 -448.911 152.72 -451.151 154C-456.911 157.2 -461.151 158.8 -463.871 158.8C-468.671 158.8 -471.071 156.4 -471.071 151.6C-471.071 148.56 -468.671 146.08 -463.871 144.16C-463.071 143.84 -461.151 142.88 -458.111 141.28C-455.071 139.68 -453.311 138.72 -452.831 138.4C-453.471 136.96 -453.791 134.8 -453.791 131.92C-453.791 117.52 -448.751 105.2 -438.671 94.9599C-428.591 84.7199 -419.391 79.5999 -411.071 79.5999C-402.751 79.5999 -396.191 81.5999 -391.391 85.5999C-386.591 89.4399 -384.191 94.1599 -384.191 99.7598C-384.191 105.2 -385.471 109.92 -388.031 113.92C-390.591 117.92 -394.591 121.84 -400.031 125.68C-407.551 131.12 -418.511 137.44 -432.911 144.64C-426.511 149.28 -417.631 151.6 -406.271 151.6C-394.911 151.6 -383.711 149.76 -372.671 146.08C-369.311 144.96 -367.391 144.4 -366.911 144.4C-362.111 144.4 -359.711 146.8 -359.711 151.6C-359.711 155.12 -362.111 157.68 -366.911 159.28C-380.351 163.76 -393.311 166 -405.791 166C-423.551 166 -437.471 161.36 -447.551 152.08ZM-439.391 131.92C-412.191 118.32 -398.591 108.08 -398.591 101.2C-398.591 96.3999 -402.591 93.9999 -410.591 93.9999C-415.391 93.9999 -421.391 97.8399 -428.591 105.52C-435.791 113.04 -439.391 121.84 -439.391 131.92Z" fill="white" fill-opacity="0.02"/>
<path d="M-455.701 151.6C-455.701 158 -463.061 161.2 -477.781 161.2C-484.661 161.2 -490.021 159.68 -493.861 156.64C-497.541 153.6 -499.381 148.32 -499.381 140.8C-499.381 133.28 -500.021 126.8 -501.301 121.36C-502.581 115.92 -504.341 113.2 -506.581 113.2C-514.421 113.2 -522.341 119.44 -530.341 131.92C-533.701 137.04 -537.301 142.24 -541.141 147.52C-544.821 152.64 -549.301 157.04 -554.581 160.72C-559.701 164.24 -565.301 166 -571.381 166C-584.661 166 -591.781 154.16 -592.741 130.48C-600.741 135.12 -606.501 137.92 -610.021 138.88C-613.541 139.68 -616.581 140.4 -619.141 141.04C-621.541 141.68 -623.701 142.24 -625.621 142.72C-627.381 143.04 -629.861 144.64 -633.061 147.52C-636.261 150.4 -639.461 153.04 -642.661 155.44C-645.861 157.68 -649.301 158.8 -652.981 158.8C-659.381 158.8 -664.581 155.44 -668.581 148.72C-672.581 141.84 -674.581 133.6 -674.581 124C-674.581 114.24 -673.381 96.3999 -670.981 70.4799C-668.581 44.3999 -667.381 23.5999 -667.381 8.07987C-667.381 5.99988 -666.741 4.31988 -665.461 3.03988C-664.021 1.59988 -662.261 0.879883 -660.181 0.879883C-655.381 0.879883 -652.981 3.27988 -652.981 8.07987C-652.981 23.9199 -654.181 45.2799 -656.581 72.1599C-658.981 98.8799 -660.181 115.12 -660.181 120.88C-660.181 126.64 -659.541 132 -658.261 136.96C-656.981 141.92 -655.221 144.4 -652.981 144.4C-652.021 144.4 -650.421 143.28 -648.181 141.04C-641.301 134.16 -633.301 129.6 -624.181 127.36C-613.621 124.48 -603.141 119.92 -592.741 113.68C-591.461 85.3599 -586.341 61.1999 -577.381 41.1999C-568.261 21.0399 -557.461 10.9599 -544.981 10.9599C-536.341 10.9599 -529.781 14.0799 -525.301 20.3199C-520.821 26.5599 -518.581 34.7999 -518.581 45.0399C-518.581 55.2799 -521.141 65.3599 -526.261 75.2799C-531.221 85.0399 -537.621 92.8799 -545.461 98.7999C-557.301 107.76 -568.341 115.44 -578.581 121.84C-578.581 141.68 -576.181 151.6 -571.381 151.6C-564.501 151.6 -556.901 145.36 -548.581 132.88C-544.901 127.76 -541.141 122.64 -537.301 117.52C-528.021 105.04 -517.781 98.7999 -506.581 98.7999C-492.181 98.7999 -484.981 112.4 -484.981 139.6C-484.981 144.4 -482.661 146.8 -478.021 146.8C-473.221 146.8 -469.621 146.4 -467.221 145.6C-464.821 144.8 -463.381 144.4 -462.901 144.4C-458.101 144.4 -455.701 146.8 -455.701 151.6ZM-577.621 104.08C-570.901 99.9199 -564.021 95.1199 -556.981 89.6799C-540.981 77.6799 -532.981 61.8399 -532.981 42.1599C-532.981 37.8399 -533.941 33.9999 -535.861 30.6399C-537.781 27.1199 -540.821 25.3599 -544.981 25.3599C-551.541 25.3599 -558.101 32.8799 -564.661 47.9199C-571.221 62.9599 -575.541 81.6799 -577.621 104.08Z" fill="white" fill-opacity="0.02"/>
</svg>
