<svg width="240" height="50" viewBox="0 0 240 50" fill="none" xmlns="http://www.w3.org/2000/svg">
<path d="M231.898 6.41443H223.488V22.0164H226.736L232.362 15.1144V33.8484L226.736 26.5404H223.488V43.2444H231.898L239.728 28.8604V48.0004H207.712L212.932 43.9984V5.48643L207.712 1.60043H239.728V20.7404L231.898 6.41443ZM219.544 17.6664L218.21 5.89243H218.094L216.818 17.6664L218.152 19.9284L219.544 17.6664ZM218.152 26.8304L219.66 24.7424L218.152 22.5964L216.702 24.7424L218.152 26.8304ZM218.152 44.0564L219.544 31.7604L218.152 29.4984L216.818 31.7604L218.152 44.0564Z" fill="white"/>
<path d="M200.931 1.60043V20.5084L194.609 6.41443H189.157V43.9984L194.261 48.0004H174.019L179.181 43.9984V6.41443H173.671L167.349 20.5084V1.60043H200.931ZM184.169 5.48643L182.603 17.6664L184.169 19.9284L185.677 17.6664L184.169 5.48643ZM184.169 26.8304L185.851 24.7424L184.169 22.5964L182.545 24.7424L184.169 26.8304ZM184.169 44.0564L185.677 31.7604L184.169 29.4984L182.603 31.7604L184.169 44.0564Z" fill="white"/>
<path d="M166.838 48.0004H145.9L150.598 44.4044L148.046 33.5584H138.94L135.866 44.4624L139.636 48.0004H124.846L129.95 43.9984L140.796 5.48643L135.692 1.60043H150.946L161.734 43.9984L166.838 48.0004ZM147.06 6.12443L148.626 18.3044L150.54 20.1604L151.294 17.6664L147.06 6.12443ZM140.274 28.8024H147.002L144.044 15.8684L140.274 28.8024ZM150.134 25.2644L152.106 26.9464L153.092 24.5684L151.12 22.7704L150.134 25.2644ZM156.224 43.5924L154.6 31.3544L152.744 29.4984L151.932 32.0504L156.224 43.5924Z" fill="white"/>
<path d="M111.494 6.41443H103.084V22.0164H106.332L111.958 15.1144V33.8484L106.332 26.5404H103.084V43.2444H111.494L119.324 28.8604V48.0004H87.3076L92.5276 43.9984V5.48643L87.3076 1.60043H119.324V20.7404L111.494 6.41443ZM99.1396 17.6664L97.8056 5.89243H97.6896L96.4136 17.6664L97.7476 19.9284L99.1396 17.6664ZM97.7476 26.8304L99.2556 24.7424L97.7476 22.5964L96.2976 24.7424L97.7476 26.8304ZM97.7476 44.0564L99.1396 31.7604L97.7476 29.4984L96.4136 31.7604L97.7476 44.0564Z" fill="white"/>
<path d="M70.0136 48.0004L57.7756 27.2944V43.9984L62.9376 48.0004H41.9996L47.2196 43.9984V5.48643L41.9996 1.60043H60.0956C72.7976 1.60043 79.2936 6.18243 79.2936 14.1284C79.2936 20.8564 74.9436 24.9164 67.6936 26.2504L78.4816 43.2444L83.4116 48.0004H70.0136ZM53.8896 17.6664L52.4396 5.48643L51.1056 17.6664L52.4396 19.9284L53.8896 17.6664ZM69.0276 13.7804C69.0276 9.08243 65.6636 6.41443 58.6456 6.41443H57.7756V21.4364H58.5876C65.8376 21.4364 69.0276 18.4204 69.0276 13.7804ZM52.4396 26.8304L53.9476 24.7424L52.4396 22.5964L50.9896 24.7424L52.4396 26.8304ZM52.4976 44.0564L53.8896 31.7604L52.4976 29.4984L51.1056 31.7604L52.4976 44.0564Z" fill="white"/>
<path d="M21.2397 5.13843C15.7877 5.13843 11.8437 11.4024 11.8437 24.8584C11.8437 38.3144 15.7877 44.5204 21.2397 44.5204C27.2137 44.5204 31.3897 36.9224 33.6517 28.5124V49.2764L29.7657 46.4344C29.7657 46.4344 26.1697 49.2184 19.7317 49.2184C8.5377 49.2184 0.939697 39.0104 0.939697 24.8584C0.939697 10.6484 8.5377 0.44043 19.7317 0.44043C27.2137 0.44043 29.7657 3.28243 29.7657 3.28243L33.6517 0.44043V19.2904C31.4477 12.9104 26.3437 5.13843 21.2397 5.13843ZM8.0737 18.3044C8.5957 13.8964 9.7557 9.48843 12.2497 6.47243C8.6537 8.85043 6.5657 13.3164 5.6377 18.0144L6.6237 20.1024L8.0737 18.3044ZM4.9417 24.9164L6.4497 26.9464L7.9577 24.9164L6.4497 22.8284L4.9417 24.9164ZM11.9597 43.3024C9.4657 40.2864 8.2477 36.2844 8.0737 31.5284L6.6237 29.6724L5.6377 31.7604C6.1597 36.3424 8.3637 40.8664 11.9597 43.3024Z" fill="white"/>
</svg>
