<svg width="315" height="50" viewBox="0 0 315 50" fill="none" xmlns="http://www.w3.org/2000/svg">
<path d="M300.883 48.0004L288.645 27.2944V43.9984L293.807 48.0004H272.869L278.089 43.9984V5.48643L272.869 1.60043H290.965C303.667 1.60043 310.163 6.18243 310.163 14.1284C310.163 20.8564 305.813 24.9164 298.563 26.2504L309.351 43.2444L314.281 48.0004H300.883ZM284.759 17.6664L283.309 5.48643L281.975 17.6664L283.309 19.9284L284.759 17.6664ZM299.897 13.7804C299.897 9.08243 296.533 6.41443 289.515 6.41443H288.645V21.4364H289.457C296.707 21.4364 299.897 18.4204 299.897 13.7804ZM283.309 26.8304L284.817 24.7424L283.309 22.5964L281.859 24.7424L283.309 26.8304ZM283.367 44.0564L284.759 31.7604L283.367 29.4984L281.975 31.7604L283.367 44.0564Z" fill="white"/>
<path d="M256.674 6.41443H248.264V22.0164H251.512L257.138 15.1144V33.8484L251.512 26.5404H248.264V43.2444H256.674L264.504 28.8604V48.0004H232.488L237.708 43.9984V5.48643L232.488 1.60043H264.504V20.7404L256.674 6.41443ZM244.32 17.6664L242.986 5.89243H242.87L241.594 17.6664L242.928 19.9284L244.32 17.6664ZM242.928 26.8304L244.436 24.7424L242.928 22.5964L241.478 24.7424L242.928 26.8304ZM242.928 44.0564L244.32 31.7604L242.928 29.4984L241.594 31.7604L242.928 44.0564Z" fill="white"/>
<path d="M218.1 1.60043H230.048L226.684 4.84843L211.198 49.2764L195.712 5.48643L190.608 1.60043H210.154L206.442 5.13843L213.982 26.3664L221.29 4.84843L218.1 1.60043ZM203.136 15.4624L205.108 17.0864L205.746 14.5924L201.048 5.08043L203.136 15.4624ZM205.224 22.0164L207.312 23.5244L208.124 21.0884L205.978 19.5224L205.224 22.0164ZM207.602 28.5124L212.3 38.1404L210.154 27.6424L208.182 26.1344L207.602 28.5124Z" fill="white"/>
<path d="M171.766 0.44043C183.018 0.44043 190.5 10.6484 190.5 24.8584C190.5 39.0104 183.018 49.2184 171.766 49.2184C160.572 49.2184 152.974 39.0104 152.974 24.8584C152.974 10.6484 160.572 0.44043 171.766 0.44043ZM172.056 44.0564C177.334 44.0564 180.176 38.4304 180.176 24.7424C180.176 11.1124 177.334 5.48643 172.056 5.48643C166.72 5.48643 163.878 11.1124 163.878 24.7424C163.878 38.4304 166.72 44.0564 172.056 44.0564ZM164.284 6.47243C160.688 8.85043 158.6 13.3164 157.73 18.0144L158.658 20.1024L160.108 18.3044C160.688 13.8964 161.79 9.48843 164.284 6.47243ZM167.822 25.0324L172.056 17.7244L176.406 25.0324L172.056 32.0504L167.822 25.0324ZM158.484 22.8284L156.976 24.9164L158.484 26.9464L159.992 24.9164L158.484 22.8284ZM157.73 31.7604C158.194 36.3424 160.398 40.8664 163.994 43.3024C161.5 40.2864 160.282 36.2844 160.108 31.5284L158.658 29.6724L157.73 31.7604Z" fill="white"/>
<path d="M132.214 5.13843C126.762 5.13843 122.818 11.4024 122.818 24.8584C122.818 38.3144 126.762 44.5204 132.214 44.5204C138.188 44.5204 142.364 36.9224 144.626 28.5124V49.2764L140.74 46.4344C140.74 46.4344 137.144 49.2184 130.706 49.2184C119.512 49.2184 111.914 39.0104 111.914 24.8584C111.914 10.6484 119.512 0.44043 130.706 0.44043C138.188 0.44043 140.74 3.28243 140.74 3.28243L144.626 0.44043V19.2904C142.422 12.9104 137.318 5.13843 132.214 5.13843ZM119.048 18.3044C119.57 13.8964 120.73 9.48843 123.224 6.47243C119.628 8.85043 117.54 13.3164 116.612 18.0144L117.598 20.1024L119.048 18.3044ZM115.916 24.9164L117.424 26.9464L118.932 24.9164L117.424 22.8284L115.916 24.9164ZM122.934 43.3024C120.44 40.2864 119.222 36.2844 119.048 31.5284L117.598 29.6724L116.612 31.7604C117.134 36.3424 119.338 40.8664 122.934 43.3024Z" fill="white"/>
<path d="M92.1615 19.3484C97.9615 22.4804 104.573 26.7724 104.573 35.7044C104.573 45.1004 96.8595 49.2764 88.9715 49.2764C84.5635 49.2764 81.3155 48.0584 78.3575 46.7244L74.0075 49.2764L73.8335 28.8604C78.2415 40.4024 83.9835 43.9984 88.7975 43.9984C92.3935 43.9984 95.3515 41.3304 95.3515 37.2704C95.3515 33.0364 90.4795 30.6584 85.5495 27.9904C80.0395 25.0324 74.3555 21.6104 74.3555 13.3164C74.3555 4.61643 80.9095 0.44043 88.9715 0.44043C93.3215 0.44043 96.2215 1.71643 98.3675 2.99243L102.137 0.498429V17.7824C99.4115 9.31443 93.9595 5.48643 89.0295 5.48643C85.4335 5.48643 83.0555 7.86443 83.0555 10.8224C83.0555 14.7664 87.2315 16.7964 92.1615 19.3484ZM82.7075 21.9584L85.3755 21.7264L84.2735 19.2904C80.2715 17.3764 78.0675 13.6644 79.5175 8.21243C76.7915 13.3744 77.6035 18.6524 82.7075 21.9584ZM88.7395 25.6124L91.3495 25.2644L90.3635 22.7704L87.6375 23.1184L88.7395 25.6124ZM98.5415 41.6784C101.673 37.1544 101.325 29.7884 96.3375 26.4244L93.6115 26.6564L94.7715 29.0924C98.9475 31.2964 100.455 36.3424 98.5415 41.6784Z" fill="white"/>
<path d="M61.2598 5.48643V43.9984L66.3638 48.0004H45.4838L50.5878 43.9984V5.48643L45.4838 1.60043H66.3638L61.2598 5.48643ZM55.9238 5.48643L54.5898 17.6664L55.9238 19.9284L57.3158 17.6664L55.9238 5.48643ZM55.9238 26.8304L57.4318 24.7424L55.9238 22.5964L54.4158 24.7424L55.9238 26.8304ZM55.9238 44.0564L57.3158 31.7604L55.9238 29.4984L54.5898 31.7604L55.9238 44.0564Z" fill="white"/>
<path d="M16.2835 1.60043C30.1455 1.60043 39.4255 11.4024 39.4255 24.8584C39.4255 38.1984 30.1455 48.0004 16.2835 48.0004H0.855469L6.07547 43.9984V5.48643L0.855469 1.60043H16.2835ZM11.3535 5.48643L10.0195 17.6664L11.3535 19.9284L12.7455 17.6664L11.3535 5.48643ZM16.6315 43.0124C23.2435 43.0124 29.1015 37.7924 29.1015 24.7424C29.1015 11.7504 23.2435 6.41443 16.6315 6.41443V43.0124ZM11.2955 26.8304L12.8035 24.7424L11.2955 22.5964L9.84547 24.7424L11.2955 26.8304ZM11.3535 44.0564L12.7455 31.7604L11.3535 29.4984L10.0195 31.7604L11.3535 44.0564Z" fill="white"/>
</svg>
