<svg width="288" height="50" viewBox="0 0 288 50" fill="none" xmlns="http://www.w3.org/2000/svg">
<path d="M279.751 6.41443H271.341V22.0164H274.589L280.215 15.1144V33.8484L274.589 26.5404H271.341V43.2444H279.751L287.581 28.8604V48.0004H255.565L260.785 43.9984V5.48643L255.565 1.60043H287.581V20.7404L279.751 6.41443ZM267.397 17.6664L266.063 5.89243H265.947L264.671 17.6664L266.005 19.9284L267.397 17.6664ZM266.005 26.8304L267.513 24.7424L266.005 22.5964L264.555 24.7424L266.005 26.8304ZM266.005 44.0564L267.397 31.7604L266.005 29.4984L264.671 31.7604L266.005 44.0564Z" fill="white"/>
<path d="M238.271 48.0004L226.033 27.2944V43.9984L231.195 48.0004H210.257L215.477 43.9984V5.48643L210.257 1.60043H228.353C241.055 1.60043 247.551 6.18243 247.551 14.1284C247.551 20.8564 243.201 24.9164 235.951 26.2504L246.739 43.2444L251.669 48.0004H238.271ZM222.147 17.6664L220.697 5.48643L219.363 17.6664L220.697 19.9284L222.147 17.6664ZM237.285 13.7804C237.285 9.08243 233.921 6.41443 226.903 6.41443H226.033V21.4364H226.845C234.095 21.4364 237.285 18.4204 237.285 13.7804ZM220.697 26.8304L222.205 24.7424L220.697 22.5964L219.247 24.7424L220.697 26.8304ZM220.755 44.0564L222.147 31.7604L220.755 29.4984L219.363 31.7604L220.755 44.0564Z" fill="white"/>
<path d="M185.497 0.44043C196.749 0.44043 204.231 10.6484 204.231 24.8584C204.231 39.0104 196.749 49.2184 185.497 49.2184C174.303 49.2184 166.705 39.0104 166.705 24.8584C166.705 10.6484 174.303 0.44043 185.497 0.44043ZM185.787 44.0564C191.065 44.0564 193.907 38.4304 193.907 24.7424C193.907 11.1124 191.065 5.48643 185.787 5.48643C180.451 5.48643 177.609 11.1124 177.609 24.7424C177.609 38.4304 180.451 44.0564 185.787 44.0564ZM178.015 6.47243C174.419 8.85043 172.331 13.3164 171.461 18.0144L172.389 20.1024L173.839 18.3044C174.419 13.8964 175.521 9.48843 178.015 6.47243ZM181.553 25.0324L185.787 17.7244L190.137 25.0324L185.787 32.0504L181.553 25.0324ZM172.215 22.8284L170.707 24.9164L172.215 26.9464L173.723 24.9164L172.215 22.8284ZM171.461 31.7604C171.925 36.3424 174.129 40.8664 177.725 43.3024C175.231 40.2864 174.013 36.2844 173.839 31.5284L172.389 29.6724L171.461 31.7604Z" fill="white"/>
<path d="M152.684 43.3024L160.224 23.4664V48.0004H130.006L135.226 43.9984V5.48643L130.006 1.60043H150.944L145.782 5.48643V43.3024H152.684ZM140.446 5.48643L139.112 17.6664L140.446 19.9284L141.838 17.6664L140.446 5.48643ZM140.446 22.5964L138.996 24.7424L140.446 26.8304L141.954 24.7424L140.446 22.5964ZM141.838 31.7604L140.446 29.4984L139.112 31.7604L140.446 44.0564L141.838 31.7604Z" fill="white"/>
<path d="M104.422 28.7444H102.74V43.9984L107.902 48.0004H86.9641L92.1841 43.9984V5.48643L86.9641 1.60043H103.378C117.008 1.60043 123.968 6.18243 123.968 15.2884C123.968 24.3364 117.356 28.7444 104.422 28.7444ZM98.8541 17.6664L97.4621 5.48643L96.1281 17.6664L97.4621 19.9284L98.8541 17.6664ZM104.422 6.41443H102.74V23.5244H104.016C110.802 23.5244 114.166 20.6824 114.166 15.2884C114.166 9.89443 110.628 6.41443 104.422 6.41443ZM97.4621 26.8304L98.9121 24.7424L97.4621 22.5964L95.9541 24.7424L97.4621 26.8304ZM97.4621 44.0564L98.8541 31.7604L97.4621 29.4984L96.1281 31.7604L97.4621 44.0564Z" fill="white"/>
<path d="M83.0967 48.0004H63.3767L67.4947 44.2884L60.0127 30.1364L51.9507 44.2884L54.4447 48.0004H41.4527L45.1067 44.6944L55.8947 25.6124L45.2227 5.19643L40.4667 1.60043H60.1867L56.4167 5.08043L62.6227 16.9124L69.3507 5.25443L65.2327 1.60043H80.1967L76.2527 4.61643L66.7407 21.5524L79.2107 45.0424L83.0967 48.0004ZM59.7227 20.7984L59.7807 18.3044L53.2267 9.77843L57.4607 19.6384L59.7227 20.7984ZM63.0867 26.6564L63.4347 24.1624L60.9987 23.1184L60.7667 25.7284L63.0867 26.6564ZM64.5367 29.0344L64.3627 31.5284L70.9167 39.9384L66.7407 30.1364L64.5367 29.0344Z" fill="white"/>
<path d="M24.2724 6.41443H15.8624V22.0164H19.1104L24.7364 15.1144V33.8484L19.1104 26.5404H15.8624V43.2444H24.2724L32.1024 28.8604V48.0004H0.0864258L5.30643 43.9984V5.48643L0.0864258 1.60043H32.1024V20.7404L24.2724 6.41443ZM11.9184 17.6664L10.5844 5.89243H10.4684L9.19243 17.6664L10.5264 19.9284L11.9184 17.6664ZM10.5264 26.8304L12.0344 24.7424L10.5264 22.5964L9.07643 24.7424L10.5264 26.8304ZM10.5264 44.0564L11.9184 31.7604L10.5264 29.4984L9.19243 31.7604L10.5264 44.0564Z" fill="white"/>
</svg>
