<svg width="1241" height="210" viewBox="0 0 1241 210" fill="none" xmlns="http://www.w3.org/2000/svg">
<g opacity="0.6">
<mask id="mask0_733_81" style="mask-type:alpha" maskUnits="userSpaceOnUse" x="0" y="-61" width="1241" height="241">
<path opacity="0.03" d="M24.0353 91.08C23.8753 91.08 22.6753 91.72 20.4353 93C14.6753 96.2 10.4353 97.8 7.71531 97.8C2.91531 97.8 0.515312 95.4 0.515312 90.6C0.515312 87.56 2.91531 85.08 7.71531 83.16C8.51531 82.84 10.4353 81.88 13.4753 80.28C16.5153 78.68 18.2753 77.72 18.7553 77.4C18.1153 75.96 17.7953 73.8 17.7953 70.92C17.7953 56.52 22.8353 44.2 32.9153 33.96C42.9953 23.72 52.1953 18.6 60.5153 18.6C68.8353 18.6 75.3953 20.6 80.1953 24.6C84.9953 28.44 87.3953 33.16 87.3953 38.76C87.3953 44.2 86.1153 48.92 83.5553 52.92C80.9953 56.92 76.9953 60.84 71.5553 64.68C64.0353 70.12 53.0753 76.44 38.6753 83.64C45.0753 88.28 53.9553 90.6 65.3153 90.6C76.6753 90.6 87.8753 88.76 98.9153 85.08C102.275 83.96 104.195 83.4 104.675 83.4C109.475 83.4 111.875 85.8 111.875 90.6C111.875 94.12 109.475 96.68 104.675 98.28C91.2353 102.76 78.2753 105 65.7953 105C48.0353 105 34.1153 100.36 24.0353 91.08ZM32.1953 70.92C59.3953 57.32 72.9953 47.08 72.9953 40.2C72.9953 35.4 68.9953 33 60.9953 33C56.1953 33 50.1953 36.84 42.9953 44.52C35.7953 52.04 32.1953 60.84 32.1953 70.92ZM118.689 25.8C118.689 21 121.089 18.6 125.889 18.6C127.969 18.6 130.689 21 134.049 25.8L149.169 46.92C156.049 36.52 163.649 28.76 171.969 23.64C177.409 20.28 183.089 18.6 189.009 18.6C194.929 18.6 199.889 20.6 203.889 24.6C207.889 28.6 209.889 33.4 209.889 39C209.889 44.44 209.409 49.72 208.449 54.84C207.489 59.96 205.889 65.4 203.649 71.16C201.409 76.76 197.889 81.4 193.089 85.08C188.449 88.76 183.409 90.6 177.969 90.6C172.689 90.6 168.369 89.8 165.009 88.2C161.649 86.6 159.249 85 157.809 83.4C156.369 81.64 154.689 79.4 152.769 76.68C150.849 73.8 149.569 71.96 148.929 71.16C142.049 82.52 136.769 91.88 133.089 99.24C129.249 106.92 127.169 111.08 126.849 111.72C125.729 113.64 123.809 114.6 121.089 114.6C116.289 114.6 113.889 112.2 113.889 107.4C113.889 105.8 114.849 103.4 116.769 100.2C127.649 78.6 135.329 64.76 139.809 58.68C138.849 57.4 133.089 49.4 122.529 34.68C119.969 31.16 118.689 28.2 118.689 25.8ZM158.049 59.16C164.129 67.64 167.889 72.6 169.329 74.04C170.929 75.48 173.409 76.2 176.769 76.2C180.289 76.2 183.409 74.84 186.129 72.12C188.849 69.24 190.849 65.72 192.129 61.56C194.369 54.2 195.489 47.08 195.489 40.2C195.489 35.4 193.089 33 188.289 33C183.809 33 179.489 34.92 175.329 38.76C173.729 40.36 172.449 41.64 171.489 42.6C170.529 43.4 169.249 44.84 167.649 46.92C166.049 48.84 164.929 50.12 164.289 50.76C160.449 55.56 158.369 58.36 158.049 59.16ZM250.802 145.8V172.68C250.802 177.48 248.402 179.88 243.602 179.88C238.802 179.88 236.402 177.48 236.402 172.68V145.8C236.402 126.92 235.522 106.52 233.762 84.6C232.162 62.68 230.562 50.52 228.962 48.12C227.522 45.56 226.802 43.72 226.802 42.6C226.802 37.8 229.202 35.4 234.002 35.4C236.722 35.4 239.202 37.4 241.442 41.4C243.842 45.4 246.002 58.28 247.922 80.04C253.202 64.2 260.162 50.84 268.802 39.96C277.602 28.92 286.802 23.4 296.402 23.4C302.002 23.4 306.802 24.68 310.802 27.24C314.962 29.48 318.002 32.52 319.922 36.36C323.442 43.72 325.202 50.28 325.202 56.04C325.202 61.8 324.322 68.36 322.562 75.72C320.802 83.08 317.762 89.8 313.442 95.88C309.282 101.96 304.162 105 298.082 105C292.162 105 287.202 103 283.202 99C279.202 95 277.202 89.8 277.202 83.4C277.202 80.36 278.482 76.44 281.042 71.64C283.602 66.68 286.322 64.2 289.202 64.2C294.002 64.2 296.402 66.6 296.402 71.4C296.402 72.36 295.602 74.44 294.002 77.64C292.402 80.68 291.602 82.6 291.602 83.4C291.602 88.2 294.002 90.6 298.802 90.6C301.202 90.6 303.762 86.44 306.482 78.12C309.362 69.8 310.802 61.96 310.802 54.6C310.802 51.08 309.602 47.4 307.202 43.56C304.802 39.72 301.202 37.8 296.402 37.8C289.842 37.8 282.962 43.24 275.762 54.12C268.722 64.84 262.802 78.76 258.002 95.88C253.202 112.84 250.802 129.48 250.802 145.8ZM365.282 40.92C374.722 38.68 382.402 34.36 388.322 27.96C394.242 21.4 397.202 14.04 397.202 5.88C397.202 -2.28 396.562 -8.76 395.282 -13.56C394.002 -18.36 392.402 -21.72 390.482 -23.64C386.962 -27.16 383.602 -28.92 380.402 -28.92C377.842 -28.92 375.442 -27.4 373.202 -24.36C371.122 -21.48 369.442 -18.36 368.162 -15C365.122 -7 363.602 2.68 363.602 14.04C363.602 25.4 364.162 34.36 365.282 40.92ZM351.122 42.6C349.842 35.72 349.202 27.72 349.202 18.6C349.202 -1.88001 352.162 -17.32 358.082 -27.72C364.002 -38.12 371.202 -43.32 379.682 -43.32C388.162 -43.32 395.602 -39.56 402.002 -32.04C408.402 -24.68 411.602 -12.6 411.602 4.2C411.602 16.68 407.602 27.48 399.602 36.6C391.602 45.72 381.362 51.8 368.882 54.84C377.042 78.68 393.682 90.6 418.802 90.6C422.802 90.6 428.962 89.4 437.282 87C445.602 84.6 450.002 83.4 450.482 83.4C455.282 83.4 457.682 85.8 457.682 90.6C457.682 94.12 455.282 96.68 450.482 98.28C437.042 102.76 426.482 105 418.802 105C402.322 105 388.722 100.76 378.002 92.28C367.282 83.64 359.522 71.88 354.722 57H351.602C346.802 57 344.402 54.68 344.402 50.04C344.402 45.24 346.642 42.76 351.122 42.6ZM469.192 37.8C473.992 37.8 476.392 40.2 476.392 45C476.392 46.92 475.992 48.84 475.192 50.76C474.392 52.68 473.992 55 473.992 57.72C473.992 60.28 474.792 62.92 476.392 65.64C478.152 68.36 480.632 71.32 483.832 74.52C487.032 77.56 491.832 80.2 498.232 82.44C504.632 84.68 511.032 85.8 517.432 85.8C523.992 85.8 529.592 84.12 534.232 80.76C538.872 77.4 541.192 72.68 541.192 66.6C541.192 56.52 538.872 48.44 534.232 42.36C529.592 36.12 523.112 33 514.792 33C510.952 33 507.032 34.2 503.032 36.6C499.192 39 496.712 40.2 495.592 40.2C490.792 40.2 488.392 37.8 488.392 33C488.392 29.96 491.112 26.84 496.552 23.64C502.152 20.28 508.232 18.6 514.792 18.6C526.952 18.6 536.792 23.08 544.312 32.04C551.832 40.84 555.592 52.36 555.592 66.6C555.592 76.84 551.752 85 544.072 91.08C536.552 97.16 528.472 100.2 519.832 100.2C511.192 100.2 503.272 99.16 496.072 97.08C489.032 94.84 483.352 92.12 479.032 88.92C474.712 85.56 470.952 81.96 467.752 78.12C462.312 71.4 459.592 65.24 459.592 59.64C459.592 53.88 460.472 48.84 462.232 44.52C463.992 40.04 466.312 37.8 469.192 37.8ZM581.385 72.84C581.705 72.36 582.425 68.92 583.545 62.52C584.825 56.12 586.265 49.88 587.865 43.8C589.625 37.56 592.665 31.8 596.985 26.52C601.465 21.24 606.825 18.6 613.065 18.6C625.225 18.6 635.465 21.8 643.785 28.2C652.265 34.44 656.505 42.52 656.505 52.44C656.505 62.36 657.865 71.24 660.585 79.08C663.305 86.76 666.905 90.6 671.385 90.6C674.425 90.6 678.185 89.64 682.665 87.72C689.865 84.84 694.105 83.4 695.385 83.4C700.185 83.4 702.585 85.8 702.585 90.6C702.585 94.12 700.185 96.68 695.385 98.28C686.425 102.76 678.345 105 671.145 105C664.105 105 658.265 102.04 653.625 96.12C648.985 90.04 645.865 83.32 644.265 75.96C642.825 68.6 642.105 60.68 642.105 52.2C642.105 46.6 639.385 42.04 633.945 38.52C628.505 34.84 621.625 33 613.305 33C606.585 33 601.305 43.72 597.465 65.16C595.865 73.48 594.745 78.28 594.105 79.56C591.385 85.16 583.945 90.6 571.785 95.88C568.905 97.16 566.585 97.8 564.825 97.8C560.025 97.8 557.625 95.4 557.625 90.6C557.625 87.56 560.025 85.08 564.825 83.16C574.265 79.32 579.785 75.88 581.385 72.84ZM710.754 91.08C710.594 91.08 709.394 91.72 707.154 93C701.394 96.2 697.154 97.8 694.434 97.8C689.634 97.8 687.234 95.4 687.234 90.6C687.234 87.56 689.634 85.08 694.434 83.16C695.234 82.84 697.154 81.88 700.194 80.28C703.234 78.68 704.994 77.72 705.474 77.4C704.834 75.96 704.514 73.8 704.514 70.92C704.514 56.52 709.554 44.2 719.634 33.96C729.714 23.72 738.914 18.6 747.234 18.6C755.554 18.6 762.114 20.6 766.914 24.6C771.714 28.44 774.114 33.16 774.114 38.76C774.114 44.2 772.834 48.92 770.274 52.92C767.714 56.92 763.714 60.84 758.274 64.68C750.754 70.12 739.794 76.44 725.394 83.64C731.794 88.28 740.674 90.6 752.034 90.6C763.394 90.6 774.594 88.76 785.634 85.08C788.994 83.96 790.914 83.4 791.394 83.4C796.194 83.4 798.594 85.8 798.594 90.6C798.594 94.12 796.194 96.68 791.394 98.28C777.954 102.76 764.994 105 752.514 105C734.754 105 720.834 100.36 710.754 91.08ZM718.914 70.92C746.114 57.32 759.714 47.08 759.714 40.2C759.714 35.4 755.714 33 747.714 33C742.914 33 736.914 36.84 729.714 44.52C722.514 52.04 718.914 60.84 718.914 70.92ZM1144.4 90.6C1144.4 97 1137.04 100.2 1122.32 100.2C1115.44 100.2 1110.08 98.68 1106.24 95.64C1102.56 92.6 1100.72 87.32 1100.72 79.8C1100.72 72.28 1100.08 65.8 1098.8 60.36C1097.52 54.92 1095.76 52.2 1093.52 52.2C1085.68 52.2 1077.76 58.44 1069.76 70.92C1066.4 76.04 1062.8 81.24 1058.96 86.52C1055.28 91.64 1050.8 96.04 1045.52 99.72C1040.4 103.24 1034.8 105 1028.72 105C1015.44 105 1008.32 93.16 1007.36 69.48C999.36 74.12 993.6 76.92 990.08 77.88C986.56 78.68 983.52 79.4 980.96 80.04C978.56 80.68 976.4 81.24 974.48 81.72C972.72 82.04 970.24 83.64 967.04 86.52C963.84 89.4 960.64 92.04 957.44 94.44C954.24 96.68 950.8 97.8 947.12 97.8C940.72 97.8 935.52 94.44 931.52 87.72C927.52 80.84 925.52 72.6 925.52 63C925.52 53.24 926.72 35.4 929.12 9.47999C931.52 -16.6 932.72 -37.4 932.72 -52.92C932.72 -55 933.36 -56.68 934.64 -57.96C936.08 -59.4 937.84 -60.12 939.92 -60.12C944.72 -60.12 947.12 -57.72 947.12 -52.92C947.12 -37.08 945.92 -15.72 943.52 11.16C941.12 37.88 939.92 54.12 939.92 59.88C939.92 65.64 940.56 71 941.84 75.96C943.12 80.92 944.88 83.4 947.12 83.4C948.08 83.4 949.68 82.28 951.92 80.04C958.8 73.16 966.8 68.6 975.92 66.36C986.48 63.48 996.96 58.92 1007.36 52.68C1008.64 24.36 1013.76 0.199995 1022.72 -19.8C1031.84 -39.96 1042.64 -50.04 1055.12 -50.04C1063.76 -50.04 1070.32 -46.92 1074.8 -40.68C1079.28 -34.44 1081.52 -26.2 1081.52 -15.96C1081.52 -5.72001 1078.96 4.35999 1073.84 14.28C1068.88 24.04 1062.48 31.88 1054.64 37.8C1042.8 46.76 1031.76 54.44 1021.52 60.84C1021.52 80.68 1023.92 90.6 1028.72 90.6C1035.6 90.6 1043.2 84.36 1051.52 71.88C1055.2 66.76 1058.96 61.64 1062.8 56.52C1072.08 44.04 1082.32 37.8 1093.52 37.8C1107.92 37.8 1115.12 51.4 1115.12 78.6C1115.12 83.4 1117.44 85.8 1122.08 85.8C1126.88 85.8 1130.48 85.4 1132.88 84.6C1135.28 83.8 1136.72 83.4 1137.2 83.4C1142 83.4 1144.4 85.8 1144.4 90.6ZM1022.48 43.08C1029.2 38.92 1036.08 34.12 1043.12 28.68C1059.12 16.68 1067.12 0.839996 1067.12 -18.84C1067.12 -23.16 1066.16 -27 1064.24 -30.36C1062.32 -33.88 1059.28 -35.64 1055.12 -35.64C1048.56 -35.64 1042 -28.12 1035.44 -13.08C1028.88 1.95999 1024.56 20.68 1022.48 43.08ZM1152.55 91.08C1152.39 91.08 1151.19 91.72 1148.95 93C1143.19 96.2 1138.95 97.8 1136.23 97.8C1131.43 97.8 1129.03 95.4 1129.03 90.6C1129.03 87.56 1131.43 85.08 1136.23 83.16C1137.03 82.84 1138.95 81.88 1141.99 80.28C1145.03 78.68 1146.79 77.72 1147.27 77.4C1146.63 75.96 1146.31 73.8 1146.31 70.92C1146.31 56.52 1151.35 44.2 1161.43 33.96C1171.51 23.72 1180.71 18.6 1189.03 18.6C1197.35 18.6 1203.91 20.6 1208.71 24.6C1213.51 28.44 1215.91 33.16 1215.91 38.76C1215.91 44.2 1214.63 48.92 1212.07 52.92C1209.51 56.92 1205.51 60.84 1200.07 64.68C1192.55 70.12 1181.59 76.44 1167.19 83.64C1173.59 88.28 1182.47 90.6 1193.83 90.6C1205.19 90.6 1216.39 88.76 1227.43 85.08C1230.79 83.96 1232.71 83.4 1233.19 83.4C1237.99 83.4 1240.39 85.8 1240.39 90.6C1240.39 94.12 1237.99 96.68 1233.19 98.28C1219.75 102.76 1206.79 105 1194.31 105C1176.55 105 1162.63 100.36 1152.55 91.08ZM1160.71 70.92C1187.91 57.32 1201.51 47.08 1201.51 40.2C1201.51 35.4 1197.51 33 1189.51 33C1184.71 33 1178.71 36.84 1171.51 44.52C1164.31 52.04 1160.71 60.84 1160.71 70.92ZM460.67 59.8C460.67 107.8 449.47 131.8 427.07 131.8C416.19 131.8 404.99 125.4 393.47 112.6C380.83 122.52 370.27 129.4 361.79 133.24C353.31 137.08 345.39 139 338.03 139C330.67 139 324.83 137.56 320.51 134.68C316.35 131.64 313.15 127.48 310.91 122.2C306.75 112.28 304.67 101.4 304.67 89.56C304.67 77.72 306.27 67.8 309.47 59.8C310.59 57.24 311.63 55.4 312.59 54.28C313.55 53.16 314.91 52.6 316.67 52.6C321.47 52.6 323.87 55 323.87 59.8C323.87 61.72 323.63 63.24 323.15 64.36C320.43 71.24 319.07 78.52 319.07 86.2C319.07 111.8 324.67 124.6 335.87 124.6C342.75 124.6 347.95 123.8 351.47 122.2C355.15 120.44 357.71 119.32 359.15 118.84C360.59 118.2 362.35 117.24 364.43 115.96C366.51 114.68 368.03 113.72 368.99 113.08C369.95 112.44 371.47 111.4 373.55 109.96C375.63 108.36 376.91 107.32 377.39 106.84C378.03 106.36 379.31 105.32 381.23 103.72C383.31 102.12 384.51 101.16 384.83 100.84C380.99 93.96 379.07 87.32 379.07 80.92C379.07 74.52 380.19 69 382.43 64.36C384.83 59.72 387.23 57.4 389.63 57.4C394.59 57.4 397.07 59.8 397.07 64.6C397.07 65.72 396.43 67.72 395.15 70.6C394.03 73.32 393.47 76.92 393.47 81.4C393.47 87.96 397.47 95.64 405.47 104.44C413.47 113.08 420.67 117.4 427.07 117.4C439.87 117.4 446.27 98.2 446.27 59.8C446.27 55 448.67 52.6 453.47 52.6C458.27 52.6 460.67 55 460.67 59.8ZM489.583 71.8C494.383 71.8 496.783 74.2 496.783 79C496.783 80.92 496.383 82.84 495.583 84.76C494.783 86.68 494.383 89 494.383 91.72C494.383 94.28 495.183 96.92 496.783 99.64C498.543 102.36 501.023 105.32 504.223 108.52C507.423 111.56 512.223 114.2 518.623 116.44C525.023 118.68 531.423 119.8 537.823 119.8C544.383 119.8 549.983 118.12 554.623 114.76C559.263 111.4 561.583 106.68 561.583 100.6C561.583 90.52 559.263 82.44 554.623 76.36C549.983 70.12 543.503 67 535.183 67C531.343 67 527.423 68.2 523.423 70.6C519.583 73 517.103 74.2 515.983 74.2C511.183 74.2 508.783 71.8 508.783 67C508.783 63.96 511.503 60.84 516.943 57.64C522.543 54.28 528.623 52.6 535.183 52.6C547.343 52.6 557.183 57.08 564.703 66.04C572.223 74.84 575.983 86.36 575.983 100.6C575.983 110.84 572.143 119 564.463 125.08C556.943 131.16 548.863 134.2 540.223 134.2C531.583 134.2 523.663 133.16 516.463 131.08C509.423 128.84 503.743 126.12 499.423 122.92C495.103 119.56 491.343 115.96 488.143 112.12C482.703 105.4 479.983 99.24 479.983 93.64C479.983 87.88 480.863 82.84 482.623 78.52C484.383 74.04 486.703 71.8 489.583 71.8ZM601.775 106.84C602.095 106.36 602.815 102.92 603.935 96.52C605.215 90.12 606.655 83.88 608.255 77.8C610.015 71.56 613.055 65.8 617.375 60.52C621.855 55.24 627.215 52.6 633.455 52.6C645.615 52.6 655.855 55.8 664.175 62.2C672.655 68.44 676.895 76.52 676.895 86.44C676.895 96.36 678.255 105.24 680.975 113.08C683.695 120.76 687.295 124.6 691.775 124.6C694.815 124.6 698.575 123.64 703.055 121.72C710.255 118.84 714.495 117.4 715.775 117.4C720.575 117.4 722.975 119.8 722.975 124.6C722.975 128.12 720.575 130.68 715.775 132.28C706.815 136.76 698.735 139 691.535 139C684.495 139 678.655 136.04 674.015 130.12C669.375 124.04 666.255 117.32 664.655 109.96C663.215 102.6 662.495 94.68 662.495 86.2C662.495 80.6 659.775 76.04 654.335 72.52C648.895 68.84 642.015 67 633.695 67C626.975 67 621.695 77.72 617.855 99.16C616.255 107.48 615.135 112.28 614.495 113.56C611.775 119.16 604.335 124.6 592.175 129.88C589.295 131.16 586.975 131.8 585.215 131.8C580.415 131.8 578.015 129.4 578.015 124.6C578.015 121.56 580.415 119.08 585.215 117.16C594.655 113.32 600.175 109.88 601.775 106.84ZM799.305 139C783.945 139 771.065 127.48 760.665 104.44C754.905 109.08 747.625 114.2 738.825 119.8C730.025 125.4 724.265 128.84 721.545 130.12C718.825 131.24 716.585 131.8 714.825 131.8C710.025 131.8 707.625 129.4 707.625 124.6C707.625 121.56 710.025 119.08 714.825 117.16C717.545 116.04 723.225 112.68 731.865 107.08C740.665 101.32 748.105 95.96 754.185 91C750.665 79.48 748.905 66.68 748.905 52.6C748.905 31.32 752.825 12.92 760.665 -2.60001C768.665 -18.28 777.545 -26.12 787.305 -26.12C791.465 -26.12 795.065 -24.84 798.105 -22.28C801.145 -19.72 803.385 -16.52 804.825 -12.68C807.545 -5.32001 808.905 2.68 808.905 11.32C808.905 19.96 807.945 28.76 806.025 37.72C804.105 46.52 801.785 53.96 799.065 60.04C796.505 66.12 793.385 71.8 789.705 77.08C784.265 84.92 778.585 91.24 772.665 96.04C781.305 115.08 790.185 124.6 799.305 124.6C805.545 124.6 812.265 123.4 819.465 121C826.665 118.6 830.505 117.4 830.985 117.4C835.785 117.4 838.185 119.8 838.185 124.6C838.185 128.12 835.785 130.68 830.985 132.28C817.545 136.76 806.985 139 799.305 139ZM787.305 -11.72C784.585 -11.72 781.065 -8.36001 776.745 -1.64001C767.785 12.44 763.305 30.52 763.305 52.6C763.305 63.8 764.505 73.64 766.905 82.12C772.185 77.16 777.065 70.76 781.545 62.92C790.185 47.88 794.505 30.04 794.505 9.39999C794.505 4.76 793.865 0.119995 792.585 -4.52001C791.305 -9.32001 789.545 -11.72 787.305 -11.72ZM868.537 10.6C865.657 6.6 864.217 2.52 864.217 -1.64001C864.217 -5.80001 865.577 -9.40001 868.297 -12.44C871.177 -15.48 874.697 -17.56 878.857 -18.68C883.177 -19.8 888.137 -20.84 893.737 -21.8C899.337 -22.76 904.217 -23.48 908.377 -23.96C919.257 -25.24 925.017 -25.88 925.657 -25.88C926.457 -26.04 927.577 -26.12 929.017 -26.12C933.817 -26.12 936.217 -23.72 936.217 -18.92C936.217 -17.64 935.577 -16.2 934.297 -14.6C933.017 -13 931.737 -12.12 930.457 -11.96C929.177 -11.8 926.377 -11.4 922.057 -10.76C917.897 -10.28 913.577 -9.72001 909.097 -9.08001C904.617 -8.60001 899.977 -7.96001 895.177 -7.16001C884.137 -5.24 878.617 -3.4 878.617 -1.64001C878.617 -0.360003 881.497 3.8 887.257 10.84C893.017 17.72 899.737 25.8 907.417 35.08C915.257 44.36 920.857 51.8 924.217 57.4C927.737 62.84 929.497 69 929.497 75.88C929.497 82.6 927.017 90.2 922.057 98.68C917.257 107 911.337 114.04 904.297 119.8C897.417 125.4 890.297 130.04 882.937 133.72C875.577 137.24 868.777 139 862.537 139C856.457 139 851.177 137 846.697 133C842.377 129 840.217 123.8 840.217 117.4C840.217 100.28 845.657 86.52 856.537 76.12C867.577 65.56 879.097 60.28 891.097 60.28C893.337 60.28 896.857 60.68 901.657 61.48C906.457 62.28 909.737 63.16 911.497 64.12C908.297 58.84 901.097 49.64 889.897 36.52C878.697 23.24 871.577 14.6 868.537 10.6ZM914.377 80.44C911.817 79.16 907.977 77.88 902.857 76.6C897.737 75.32 893.817 74.68 891.097 74.68C883.257 74.68 875.177 78.52 866.857 86.2C858.697 93.72 854.617 104.12 854.617 117.4C854.617 119.64 855.577 121.4 857.497 122.68C859.417 123.96 861.977 124.6 865.177 124.6C868.377 124.6 873.177 122.92 879.577 119.56C886.137 116.2 892.937 111 899.977 103.96C907.017 96.76 911.817 88.92 914.377 80.44Z" fill="black"/>
</mask>
<g mask="url(#mask0_733_81)">
<rect x="96" width="973" height="548" fill="#D9D9D9"/>
</g>
</g>
</svg>
