<svg width="1241" height="271" viewBox="0 0 1241 271" fill="none" xmlns="http://www.w3.org/2000/svg">
<g opacity="0.6">
<mask id="mask0_733_84" style="mask-type:alpha" maskUnits="userSpaceOnUse" x="94" y="0" width="1089" height="217">
<path opacity="0.03" d="M207.569 132.88C217.169 123.6 221.969 113.84 221.969 103.6C221.969 101.04 221.009 98.8 219.089 96.88C217.169 94.96 214.689 94 211.649 94C208.609 94 205.969 95.36 203.729 98.08C201.489 100.8 200.369 104.24 200.369 108.4C200.369 117.84 202.769 126 207.569 132.88ZM123.809 72.4L123.569 79.6C123.569 100.4 126.049 117.04 131.009 129.52C136.929 144.4 148.849 151.76 166.769 151.6C176.209 151.6 186.049 148.32 196.289 141.76C189.409 132.16 185.969 121.04 185.969 108.4C185.969 99.28 188.609 92.24 193.889 87.28C199.169 82.16 205.169 79.6 211.889 79.6C218.609 79.6 224.369 82 229.169 86.8C233.969 91.6 236.369 97.2 236.369 103.6C236.369 117.52 230.209 130.64 217.889 142.96C224.129 147.12 230.689 149.2 237.569 149.2C244.609 149.2 250.529 148.4 255.329 146.8C260.129 145.2 262.769 144.4 263.249 144.4C268.049 144.4 270.449 146.8 270.449 151.6C270.449 155.12 268.049 157.68 263.249 159.28C254.609 162.16 245.409 163.6 235.649 163.6C225.889 163.6 216.129 159.84 206.369 152.32C193.409 161.44 180.209 166 166.769 166C134.449 166 115.729 146.16 110.609 106.48C109.649 98.48 109.169 89.52 109.169 79.6V73.6C105.649 74.08 103.249 74.32 101.969 74.32C97.1688 74.32 94.7688 71.92 94.7688 67.12C94.7688 65.36 95.4088 63.84 96.6888 62.56C97.9688 61.12 99.1688 60.32 100.289 60.16C101.569 60 102.689 59.84 103.649 59.68C104.769 59.52 105.809 59.36 106.769 59.2C107.889 59.04 109.009 58.88 110.129 58.72C111.089 45.92 111.569 37.84 111.569 34.48C111.569 28.4 113.969 25.36 118.769 25.36C123.569 25.36 125.969 27.76 125.969 32.56C125.969 36.72 125.489 45.2 124.529 58C135.729 57.68 145.809 57.52 154.769 57.52C159.569 57.52 161.969 59.92 161.969 64.72C161.969 69.52 159.569 71.92 154.769 71.92C138.929 71.92 128.609 72.08 123.809 72.4ZM370.844 146.32C370.844 146.32 373.404 145.68 378.524 144.4C383.324 144.4 385.724 146.8 385.724 151.6C385.724 155.12 383.324 157.68 378.524 159.28C375.644 160.24 372.764 160.72 369.884 160.72C367.164 160.72 364.524 160.08 361.964 158.8C359.404 157.52 357.404 155.6 355.964 153.04C353.564 148.88 351.804 144.4 350.684 139.6L349.724 135.52C347.004 140.16 340.364 145.6 329.804 151.84C319.404 158.08 308.284 161.2 296.444 161.2C290.044 161.2 284.444 158.8 279.644 154C274.844 149.2 272.444 143.6 272.444 137.2C272.444 121.68 278.844 108.24 291.644 96.88C304.444 85.36 317.404 79.6 330.524 79.6C337.724 79.6 343.884 80.96 349.004 83.68C354.284 86.24 356.924 88.88 356.924 91.6C356.924 96.4 354.524 98.8 349.724 98.8C348.764 98.8 346.444 98 342.764 96.4C339.084 94.8 335.004 94 330.524 94C321.884 94 312.444 98.24 302.204 106.72C291.964 115.04 286.844 125.2 286.844 137.2C286.844 139.6 287.804 141.84 289.724 143.92C291.804 145.84 294.044 146.8 296.444 146.8C305.884 146.8 314.684 144.32 322.844 139.36C331.004 134.24 336.204 130.08 338.444 126.88C340.684 123.52 342.524 120.48 343.964 117.76C345.404 115.04 346.444 113.28 347.084 112.48C347.884 111.52 349.484 111.04 351.884 111.04C354.284 111.04 356.124 111.92 357.404 113.68C358.684 115.44 359.884 118.24 361.004 122.08C362.124 125.76 363.244 129.92 364.364 134.56C365.484 139.2 366.444 142.32 367.244 143.92C368.204 145.52 369.404 146.32 370.844 146.32ZM402.156 108.4L404.556 118C404.556 122.8 402.156 125.2 397.356 125.2C395.276 125.2 393.116 123.52 390.876 120.16C388.796 116.8 387.756 112.88 387.756 108.4C387.756 103.92 388.876 100.4 391.116 97.84C393.516 95.28 397.196 92.64 402.156 89.92C414.156 83.04 428.556 79.6 445.356 79.6C451.596 79.6 456.716 82.32 460.716 87.76C464.876 93.04 466.956 100 466.956 108.64C466.956 117.28 469.436 127.04 474.396 137.92C479.356 148.64 484.876 154 490.956 154C495.916 154 499.836 151.84 502.716 147.52C505.596 143.2 509.196 138.64 513.516 133.84C517.836 128.88 523.116 123.44 529.356 117.52C535.596 111.44 542.556 106.4 550.236 102.4C557.916 98.4 565.196 96.4 572.076 96.4C586.476 96.4 597.756 101.28 605.916 111.04C614.076 120.8 618.156 132.72 618.156 146.8C618.156 157.68 614.476 166 607.116 171.76C599.916 177.52 592.396 180.4 584.556 180.4C579.756 180.4 577.356 178.08 577.356 173.44C577.356 168.8 579.756 166.32 584.556 166C589.676 165.68 594.156 163.92 597.996 160.72C601.836 157.52 603.756 152.88 603.756 146.8C603.756 136.88 601.196 128.4 596.076 121.36C591.116 114.32 583.116 110.8 572.076 110.8C565.676 110.8 558.156 113.84 549.516 119.92C535.916 129.52 524.396 141.28 514.956 155.2C512.396 159.04 508.956 162.24 504.636 164.8C500.316 167.2 495.756 168.4 490.956 168.4C480.556 168.4 471.516 161.84 463.836 148.72C456.316 135.44 452.556 121.2 452.556 106C452.556 103.12 451.916 100.4 450.636 97.84C449.516 95.28 447.836 94 445.596 94C432.316 94 419.836 97.04 408.156 103.12C404.156 105.04 402.156 106.8 402.156 108.4ZM786.175 142.48L769.375 144.4C764.575 144.4 762.175 142 762.175 137.2C762.175 133.2 764.575 130.8 769.375 130C773.695 129.2 779.455 128.56 786.655 128.08C786.815 124.08 787.935 111.92 790.015 91.6C792.255 71.28 793.375 51.6 793.375 32.56C793.375 27.76 795.775 25.36 800.575 25.36C803.455 25.36 805.375 26 806.335 27.28C807.295 28.4 807.775 30.16 807.775 32.56C807.775 51.6 806.655 71.84 804.415 93.28C802.175 114.72 801.055 126 801.055 127.12C813.855 125.84 824.095 125.2 831.775 125.2C836.575 125.2 838.975 127.6 838.975 132.4C838.975 137.2 836.575 139.6 831.775 139.6C823.775 139.6 813.375 140.24 800.575 141.52V151.6C800.575 161.2 802.255 171.44 805.615 182.32C810.255 197.36 812.575 206.32 812.575 209.2C812.575 214 810.175 216.4 805.375 216.4C801.855 216.4 799.455 214 798.175 209.2C797.535 206.48 795.935 200.8 793.375 192.16C788.575 176 786.175 162.48 786.175 151.6V142.48ZM670.975 100.96C664.575 109.6 661.375 117.6 661.375 124.96C661.375 132.32 664.415 138.64 670.495 143.92C676.575 149.04 683.935 151.6 692.575 151.6C698.815 151.6 704.095 150.48 708.415 148.24C717.055 144.08 721.375 137.84 721.375 129.52C721.375 121.2 719.135 114.4 714.655 109.12C710.335 103.84 704.575 101.2 697.375 101.2C693.535 101.2 689.615 102.4 685.615 104.8C681.775 107.2 679.295 108.4 678.175 108.4C673.375 108.4 670.975 105.92 670.975 100.96ZM676.735 93.28C683.775 88.96 690.655 86.8 697.375 86.8C708.255 86.8 717.375 90.88 724.735 99.04C732.095 107.2 735.775 117.36 735.775 129.52C735.775 141.52 731.295 150.64 722.335 156.88C713.535 162.96 703.055 166 690.895 166C678.895 166 668.575 161.84 659.935 153.52C651.295 145.2 646.975 135.76 646.975 125.2C646.975 119.92 648.175 114.4 650.575 108.64C652.975 102.88 654.895 98.96 656.335 96.88C657.775 94.8 660.255 91.44 663.775 86.8C667.295 82 670.495 79.6 673.375 79.6C678.175 79.6 680.575 82 680.575 86.8C680.575 87.76 679.295 89.92 676.735 93.28ZM1086.63 151.6C1086.63 158 1079.27 161.2 1064.55 161.2C1057.67 161.2 1052.31 159.68 1048.47 156.64C1044.79 153.6 1042.95 148.32 1042.95 140.8C1042.95 133.28 1042.31 126.8 1041.03 121.36C1039.75 115.92 1037.99 113.2 1035.75 113.2C1027.91 113.2 1019.99 119.44 1011.99 131.92C1008.63 137.04 1005.03 142.24 1001.19 147.52C997.507 152.64 993.027 157.04 987.747 160.72C982.627 164.24 977.027 166 970.947 166C957.667 166 950.547 154.16 949.587 130.48C941.587 135.12 935.827 137.92 932.307 138.88C928.787 139.68 925.747 140.4 923.187 141.04C920.787 141.68 918.627 142.24 916.707 142.72C914.947 143.04 912.467 144.64 909.267 147.52C906.067 150.4 902.867 153.04 899.667 155.44C896.467 157.68 893.027 158.8 889.347 158.8C882.947 158.8 877.747 155.44 873.747 148.72C869.747 141.84 867.747 133.6 867.747 124C867.747 114.24 868.947 96.4 871.347 70.48C873.747 44.4 874.947 23.6 874.947 8.07999C874.947 6 875.587 4.32 876.867 3.04C878.307 1.59999 880.067 0.879994 882.147 0.879994C886.947 0.879994 889.347 3.27999 889.347 8.07999C889.347 23.92 888.147 45.28 885.747 72.16C883.347 98.88 882.147 115.12 882.147 120.88C882.147 126.64 882.787 132 884.067 136.96C885.347 141.92 887.107 144.4 889.347 144.4C890.307 144.4 891.907 143.28 894.147 141.04C901.027 134.16 909.027 129.6 918.147 127.36C928.707 124.48 939.187 119.92 949.587 113.68C950.867 85.36 955.987 61.2 964.947 41.2C974.067 21.04 984.867 10.96 997.347 10.96C1005.99 10.96 1012.55 14.08 1017.03 20.32C1021.51 26.56 1023.75 34.8 1023.75 45.04C1023.75 55.28 1021.19 65.36 1016.07 75.28C1011.11 85.04 1004.71 92.88 996.867 98.8C985.027 107.76 973.987 115.44 963.747 121.84C963.747 141.68 966.147 151.6 970.947 151.6C977.827 151.6 985.427 145.36 993.747 132.88C997.427 127.76 1001.19 122.64 1005.03 117.52C1014.31 105.04 1024.55 98.8 1035.75 98.8C1050.15 98.8 1057.35 112.4 1057.35 139.6C1057.35 144.4 1059.67 146.8 1064.31 146.8C1069.11 146.8 1072.71 146.4 1075.11 145.6C1077.51 144.8 1078.95 144.4 1079.43 144.4C1084.23 144.4 1086.63 146.8 1086.63 151.6ZM964.707 104.08C971.427 99.92 978.307 95.12 985.347 89.68C1001.35 77.68 1009.35 61.84 1009.35 42.16C1009.35 37.84 1008.39 34 1006.47 30.64C1004.55 27.12 1001.51 25.36 997.347 25.36C990.787 25.36 984.227 32.88 977.667 47.92C971.107 62.96 966.787 81.68 964.707 104.08ZM1094.78 152.08C1094.62 152.08 1093.42 152.72 1091.18 154C1085.42 157.2 1081.18 158.8 1078.46 158.8C1073.66 158.8 1071.26 156.4 1071.26 151.6C1071.26 148.56 1073.66 146.08 1078.46 144.16C1079.26 143.84 1081.18 142.88 1084.22 141.28C1087.26 139.68 1089.02 138.72 1089.5 138.4C1088.86 136.96 1088.54 134.8 1088.54 131.92C1088.54 117.52 1093.58 105.2 1103.66 94.96C1113.74 84.72 1122.94 79.6 1131.26 79.6C1139.58 79.6 1146.14 81.6 1150.94 85.6C1155.74 89.44 1158.14 94.16 1158.14 99.76C1158.14 105.2 1156.86 109.92 1154.3 113.92C1151.74 117.92 1147.74 121.84 1142.3 125.68C1134.78 131.12 1123.82 137.44 1109.42 144.64C1115.82 149.28 1124.7 151.6 1136.06 151.6C1147.42 151.6 1158.62 149.76 1169.66 146.08C1173.02 144.96 1174.94 144.4 1175.42 144.4C1180.22 144.4 1182.62 146.8 1182.62 151.6C1182.62 155.12 1180.22 157.68 1175.42 159.28C1161.98 163.76 1149.02 166 1136.54 166C1118.78 166 1104.86 161.36 1094.78 152.08ZM1102.94 131.92C1130.14 118.32 1143.74 108.08 1143.74 101.2C1143.74 96.4 1139.74 94 1131.74 94C1126.94 94 1120.94 97.84 1113.74 105.52C1106.54 113.04 1102.94 121.84 1102.94 131.92Z" fill="black"/>
</mask>
<g mask="url(#mask0_733_84)">
<rect x="108" y="-343" width="973" height="549" fill="#D9D9D9"/>
</g>
</g>
</svg>
