<svg width="1874" height="241" viewBox="0 0 1874 241" fill="none" xmlns="http://www.w3.org/2000/svg">
<path d="M2749.58 110.8C2760.46 110.8 2766.86 118.48 2768.78 133.84C2768.94 134.64 2769.1 136.08 2769.26 138.16C2769.58 140.08 2769.82 141.6 2769.98 142.72C2770.14 143.84 2770.38 144.72 2770.7 145.36C2770.7 146 2770.86 146.64 2771.18 147.28C2771.66 148.56 2772.46 149.2 2773.58 149.2C2776.62 149.2 2780.54 148.4 2785.34 146.8C2790.14 145.2 2792.78 144.4 2793.26 144.4C2798.06 144.4 2800.46 146.8 2800.46 151.6C2800.46 155.12 2798.06 157.68 2793.26 159.28C2784.62 162.16 2777.9 163.6 2773.1 163.6C2762.7 163.6 2756.46 154.32 2754.38 135.76C2753.42 128.72 2751.82 125.2 2749.58 125.2C2744.78 125.2 2738.7 130.8 2731.34 142C2728.62 146.16 2725.02 150 2720.54 153.52C2716.06 157.04 2711.5 158.8 2706.86 158.8C2702.22 158.8 2698.54 157.2 2695.82 154C2693.1 150.8 2691.34 147.76 2690.54 144.88C2689.58 141.68 2688.06 134.72 2685.98 124C2683.9 113.28 2682.46 107.6 2681.66 106.96C2681.02 106.32 2680.46 106 2679.98 106C2677.74 106 2675.74 107.44 2673.98 110.32C2672.38 113.04 2670.54 116.88 2668.46 121.84C2666.38 126.8 2664.38 131.92 2662.46 137.2C2660.7 142.32 2659.26 146.16 2658.14 148.72C2657.02 151.12 2655.5 153.92 2653.58 157.12C2650.06 163.04 2645.26 166 2639.18 166C2635.02 166 2631.5 164.56 2628.62 161.68C2625.74 158.8 2623.5 155.12 2621.9 150.64C2619.02 141.68 2617.5 132.56 2617.34 123.28C2617.34 113.84 2616.38 106.64 2614.46 101.68C2612.7 96.5599 2610.54 93.9999 2607.98 93.9999C2599.66 93.9999 2593.42 99.1199 2589.26 109.36C2587.34 114.32 2585.26 121.36 2583.02 130.48C2579.82 142.8 2572.22 151.52 2560.22 156.64C2557.66 158.08 2555.02 158.8 2552.3 158.8C2547.5 158.8 2545.1 156.4 2545.1 151.6C2545.1 148.56 2547.5 146.08 2552.3 144.16C2554.22 143.36 2555.26 142.96 2555.42 142.96C2555.74 142.8 2556.38 142.48 2557.34 142C2558.3 141.52 2558.94 141.2 2559.26 141.04C2559.58 140.72 2560.14 140.32 2560.94 139.84C2561.9 139.2 2562.54 138.64 2562.86 138.16C2563.34 137.52 2563.9 136.8 2564.54 136C2565.34 135.2 2565.9 134.4 2566.22 133.6C2567.5 131.2 2568.62 128.08 2569.58 124.24C2570.54 120.4 2571.42 117.2 2572.22 114.64C2573.02 112.08 2574.54 108.16 2576.78 102.88C2579.02 97.4399 2581.34 93.3599 2583.74 90.6399C2586.14 87.9199 2589.42 85.4399 2593.58 83.1999C2597.9 80.7999 2603.1 79.5999 2609.18 79.5999C2615.42 79.5999 2620.7 83.1999 2625.02 90.3999C2629.5 97.4399 2631.74 108.24 2631.74 122.8C2631.74 127.92 2632.3 134 2633.42 141.04C2634.7 148.08 2636.62 151.6 2639.18 151.6C2640.46 151.6 2641.82 149.92 2643.26 146.56C2644.7 143.04 2645.9 140.08 2646.86 137.68C2647.82 135.12 2648.94 132.08 2650.22 128.56C2655.02 114.96 2659.74 105.44 2664.38 99.9999C2669.02 94.3999 2674.22 91.5999 2679.98 91.5999C2686.7 91.5999 2691.5 94.6399 2694.38 100.72C2696.78 106 2698.46 111.2 2699.42 116.32C2702.62 135.04 2704.94 144.4 2706.38 144.4C2711.18 144.4 2717.26 138.8 2724.62 127.6C2727.34 123.44 2730.94 119.6 2735.42 116.08C2739.9 112.56 2744.62 110.8 2749.58 110.8Z" fill="white" fill-opacity="0.02"/>
<path d="M2456.67 98.7999C2461.47 98.7999 2463.87 101.2 2463.87 106C2463.87 107.92 2463.47 109.84 2462.67 111.76C2461.87 113.68 2461.47 116 2461.47 118.72C2461.47 121.28 2462.27 123.92 2463.87 126.64C2465.63 129.36 2468.11 132.32 2471.31 135.52C2474.51 138.56 2479.31 141.2 2485.71 143.44C2492.11 145.68 2498.51 146.8 2504.91 146.8C2511.47 146.8 2517.07 145.12 2521.71 141.76C2526.35 138.4 2528.67 133.68 2528.67 127.6C2528.67 117.52 2526.35 109.44 2521.71 103.36C2517.07 97.1199 2510.59 93.9999 2502.27 93.9999C2498.43 93.9999 2494.51 95.1999 2490.51 97.5999C2486.67 99.9999 2484.19 101.2 2483.07 101.2C2478.27 101.2 2475.87 98.7999 2475.87 93.9999C2475.87 90.9599 2478.59 87.8399 2484.03 84.6399C2489.63 81.2799 2495.71 79.5999 2502.27 79.5999C2514.43 79.5999 2524.27 84.0799 2531.79 93.0399C2539.31 101.84 2543.07 113.36 2543.07 127.6C2543.07 137.84 2539.23 146 2531.55 152.08C2524.03 158.16 2515.95 161.2 2507.31 161.2C2498.67 161.2 2490.75 160.16 2483.55 158.08C2476.51 155.84 2470.83 153.12 2466.51 149.92C2462.19 146.56 2458.43 142.96 2455.23 139.12C2449.79 132.4 2447.07 126.24 2447.07 120.64C2447.07 114.88 2447.95 109.84 2449.71 105.52C2451.47 101.04 2453.79 98.7999 2456.67 98.7999Z" fill="white" fill-opacity="0.02"/>
<path d="M2360.08 37.5999C2357.2 33.5999 2355.76 29.5199 2355.76 25.3599C2355.76 21.1999 2357.12 17.5999 2359.84 14.5599C2362.72 11.5199 2366.24 9.43988 2370.4 8.31989C2374.72 7.19988 2379.68 6.15988 2385.28 5.19988C2390.88 4.23988 2395.76 3.51987 2399.92 3.03988C2410.8 1.75988 2416.56 1.11988 2417.2 1.11988C2418 0.959883 2419.12 0.879883 2420.56 0.879883C2425.36 0.879883 2427.76 3.27988 2427.76 8.07987C2427.76 9.35987 2427.12 10.7999 2425.84 12.3999C2424.56 13.9999 2423.28 14.8799 2422 15.0399C2420.72 15.1999 2417.92 15.5999 2413.6 16.2399C2409.44 16.7199 2405.12 17.2799 2400.64 17.9199C2396.16 18.3999 2391.52 19.0399 2386.72 19.8399C2375.68 21.7599 2370.16 23.5999 2370.16 25.3599C2370.16 26.6399 2373.04 30.7999 2378.8 37.8399C2384.56 44.7199 2391.28 52.7999 2398.96 62.0799C2406.8 71.3599 2412.4 78.7999 2415.76 84.3999C2419.28 89.8399 2421.04 95.9999 2421.04 102.88C2421.04 109.6 2418.56 117.2 2413.6 125.68C2408.8 134 2402.88 141.04 2395.84 146.8C2388.96 152.4 2381.84 157.04 2374.48 160.72C2367.12 164.24 2360.32 166 2354.08 166C2348 166 2342.72 164 2338.24 160C2333.92 156 2331.76 150.8 2331.76 144.4C2331.76 127.28 2337.2 113.52 2348.08 103.12C2359.12 92.5599 2370.64 87.2799 2382.64 87.2799C2384.88 87.2799 2388.4 87.6799 2393.2 88.4799C2398 89.2799 2401.28 90.1599 2403.04 91.1199C2399.84 85.8399 2392.64 76.6399 2381.44 63.5199C2370.24 50.2399 2363.12 41.5999 2360.08 37.5999ZM2405.92 107.44C2403.36 106.16 2399.52 104.88 2394.4 103.6C2389.28 102.32 2385.36 101.68 2382.64 101.68C2374.8 101.68 2366.72 105.52 2358.4 113.2C2350.24 120.72 2346.16 131.12 2346.16 144.4C2346.16 146.64 2347.12 148.4 2349.04 149.68C2350.96 150.96 2353.52 151.6 2356.72 151.6C2359.92 151.6 2364.72 149.92 2371.12 146.56C2377.68 143.2 2384.48 138 2391.52 130.96C2398.56 123.76 2403.36 115.92 2405.92 107.44Z" fill="white" fill-opacity="0.02"/>
<path d="M2273.82 172.48C2272.86 171.2 2269.98 167.52 2265.18 161.44C2260.38 155.36 2257.1 151.12 2255.34 148.72C2253.74 146.16 2251.42 142.48 2248.38 137.68C2243.1 129.36 2240.46 120.88 2240.46 112.24C2240.46 103.6 2242.78 95.9999 2247.42 89.4399C2252.22 82.8799 2258.22 79.5999 2265.42 79.5999C2272.62 79.5999 2278.94 81.7599 2284.38 86.0799C2289.82 90.3999 2293.42 96.5599 2295.18 104.56C2295.5 105.84 2295.66 107.12 2295.66 108.4C2295.66 113.2 2293.26 115.6 2288.46 115.6C2284.94 115.6 2282.54 113.2 2281.26 108.4C2279.02 98.7999 2274.22 93.9999 2266.86 93.9999C2262.86 93.9999 2259.82 95.9999 2257.74 99.9999C2255.82 103.84 2254.86 107.68 2254.86 111.52C2254.86 115.36 2255.34 118.8 2256.3 121.84C2257.42 124.88 2259.18 128.4 2261.58 132.4C2264.14 136.24 2266.22 139.28 2267.82 141.52C2272.14 147.6 2277.82 154.88 2284.86 163.36C2295.42 155.52 2306.06 149.76 2316.78 146.08C2320.14 144.96 2322.06 144.4 2322.54 144.4C2327.34 144.4 2329.74 146.8 2329.74 151.6C2329.74 155.12 2327.34 157.68 2322.54 159.28C2313.1 162.32 2303.26 167.6 2293.02 175.12C2300.54 186.8 2304.3 196.64 2304.3 204.64C2304.3 212.64 2301.1 220.64 2294.7 228.64C2288.3 236.8 2281.34 240.88 2273.82 240.88C2266.3 240.88 2260.06 238.32 2255.1 233.2C2250.14 228.08 2247.66 221.68 2247.66 214C2247.66 202.16 2256.38 188.32 2273.82 172.48ZM2281.98 184.24C2268.7 196.72 2262.06 206.64 2262.06 214C2262.06 217.84 2263.1 220.88 2265.18 223.12C2267.26 225.36 2270.06 226.48 2273.58 226.48C2277.26 226.48 2280.86 223.84 2284.38 218.56C2288.06 213.28 2289.9 208.24 2289.9 203.44C2289.9 198.8 2287.26 192.4 2281.98 184.24Z" fill="white" fill-opacity="0.02"/>
<path d="M2226.57 159.28C2217.93 162.16 2211.21 163.6 2206.41 163.6C2201.61 163.6 2197.85 161.84 2195.13 158.32C2192.41 154.8 2189.93 148.8 2187.69 140.32C2185.61 131.84 2184.01 127.6 2182.89 127.6C2178.73 127.6 2174.33 134 2169.69 146.8C2167.93 151.6 2165.05 156 2161.05 160C2157.05 164 2152.01 166 2145.93 166C2140.01 166 2135.37 163.36 2132.01 158.08C2128.65 152.8 2126.65 147.04 2126.01 140.8C2125.53 134.56 2124.73 128.8 2123.61 123.52C2122.49 118.24 2120.65 115.6 2118.09 115.6C2116.33 115.6 2115.05 116.08 2114.25 117.04C2113.45 118 2112.73 118.96 2112.09 119.92C2111.61 120.72 2111.05 121.6 2110.41 122.56C2109.93 123.36 2109.29 124.48 2108.49 125.92C2107.85 127.36 2107.05 128.88 2106.09 130.48C2102.89 136.08 2100.33 140.24 2098.41 142.96C2094.57 149.04 2088.89 153.68 2081.37 156.88C2078.49 158.16 2076.17 158.8 2074.41 158.8C2069.61 158.8 2067.21 156.4 2067.21 151.6C2067.21 148.56 2069.77 146.08 2074.89 144.16C2080.01 142.24 2083.61 139.52 2085.69 136C2087.93 132.32 2090.41 128.16 2093.13 123.52C2095.85 118.88 2097.69 115.76 2098.65 114.16C2099.77 112.56 2101.13 110.64 2102.73 108.4C2104.33 106 2105.77 104.48 2107.05 103.84C2110.41 102.08 2114.09 101.2 2118.09 101.2C2124.65 101.2 2129.61 103.84 2132.97 109.12C2136.33 114.4 2138.25 120.16 2138.73 126.4C2139.37 132.64 2140.25 138.4 2141.37 143.68C2142.49 148.96 2144.33 151.6 2146.89 151.6C2149.45 151.6 2151.85 149.6 2154.09 145.6C2156.49 141.6 2158.57 137.2 2160.33 132.4C2162.09 127.6 2164.89 123.2 2168.73 119.2C2172.73 115.2 2177.45 113.2 2182.89 113.2C2187.05 113.2 2190.09 114.24 2192.01 116.32C2193.93 118.24 2195.29 119.76 2196.09 120.88C2197.05 122 2197.85 123.68 2198.49 125.92C2199.29 128.16 2199.85 129.84 2200.17 130.96C2200.49 131.92 2200.97 133.68 2201.61 136.24C2203.53 145.04 2205.29 149.36 2206.89 149.2C2209.93 149.2 2213.85 148.4 2218.65 146.8C2223.45 145.2 2226.09 144.4 2226.57 144.4C2231.37 144.4 2233.77 146.8 2233.77 151.6C2233.77 155.12 2231.37 157.68 2226.57 159.28Z" fill="white" fill-opacity="0.02"/>
<path d="M2029.55 46.9599C2032.11 46.9599 2034.75 48.1599 2037.47 50.5599C2040.19 52.7999 2041.55 55.1999 2041.55 57.7599C2041.55 60.1599 2040.43 61.9999 2038.19 63.2799C2036.11 64.5599 2033.79 65.1999 2031.23 65.1999C2028.67 65.1999 2026.51 64.0799 2024.75 61.8399C2023.15 59.4399 2022.35 56.8799 2022.35 54.1599C2022.35 49.3599 2024.75 46.9599 2029.55 46.9599ZM2007.95 136.24C1998.99 145.84 1989.87 152.72 1980.59 156.88C1977.71 158.16 1975.39 158.8 1973.63 158.8C1968.83 158.8 1966.43 156.4 1966.43 151.6C1966.43 148.56 1968.83 146.08 1973.63 144.16C1976.19 143.2 1979.55 141.28 1983.71 138.4C1988.03 135.52 1990.91 133.36 1992.35 131.92C1993.79 130.48 1996.27 127.84 1999.79 124C2003.47 120.16 2006.35 117.28 2008.43 115.36C2010.51 113.28 2013.31 111.2 2016.83 109.12C2020.51 107.04 2023.87 106 2026.91 106C2033.15 106 2037.95 108.24 2041.31 112.72C2044.67 117.2 2046.67 122.16 2047.31 127.6C2049.07 142 2051.87 149.2 2055.71 149.2C2058.75 149.2 2062.67 148.4 2067.47 146.8C2072.27 145.2 2074.91 144.4 2075.39 144.4C2080.19 144.4 2082.59 146.8 2082.59 151.6C2082.59 155.12 2080.19 157.68 2075.39 159.28C2066.75 162.16 2059.71 163.6 2054.27 163.6C2048.99 163.6 2044.67 161.36 2041.31 156.88C2037.95 152.4 2035.95 147.44 2035.31 142C2033.55 127.6 2030.75 120.4 2026.91 120.4C2024.83 120.4 2022.43 121.76 2019.71 124.48C2017.15 127.04 2015.07 129.12 2013.47 130.72C2011.87 132.16 2010.03 134 2007.95 136.24Z" fill="white" fill-opacity="0.02"/>
<path d="M1954.82 163.6C1946.34 163.6 1939.78 159.76 1935.14 152.08C1930.66 144.4 1928.42 135.6 1928.42 125.68C1928.42 120.56 1930.82 118 1935.62 118C1940.42 118 1942.82 120.88 1942.82 126.64C1942.82 132.4 1943.94 137.6 1946.18 142.24C1948.42 146.88 1951.14 149.2 1954.34 149.2C1957.7 149.2 1961.78 148.4 1966.58 146.8C1971.38 145.2 1974.02 144.4 1974.5 144.4C1979.3 144.4 1981.7 146.8 1981.7 151.6C1981.7 155.12 1979.3 157.68 1974.5 159.28C1965.86 162.16 1959.3 163.6 1954.82 163.6ZM1906.82 8.07987L1906.58 12.1599C1904.66 31.3599 1903.38 45.5999 1902.74 54.8799C1902.26 64.1599 1902.02 75.3599 1902.02 88.4799C1902.02 101.44 1902.42 109.92 1903.22 113.92C1907.06 105.44 1913.62 97.5999 1922.9 90.3999C1932.18 83.1999 1943.62 79.5999 1957.22 79.5999C1962.02 79.5999 1964.42 81.9999 1964.42 86.7999C1964.42 91.5999 1962.02 93.9999 1957.22 93.9999C1950.66 93.9999 1944.58 95.1999 1938.98 97.5999C1933.54 99.9999 1929.22 102.96 1926.02 106.48C1919.94 113.2 1916.1 119.2 1914.5 124.48C1914.18 125.44 1913.62 127.52 1912.82 130.72C1912.18 133.76 1911.7 135.76 1911.38 136.72C1911.22 137.84 1910.66 139.28 1909.7 141.04C1908.1 144.08 1905.54 145.6 1902.02 145.6C1898.66 145.6 1895.38 140.32 1892.18 129.76C1889.14 119.04 1887.62 109.52 1887.62 101.2C1887.62 92.8799 1887.62 85.4399 1887.62 78.8799C1887.78 72.1599 1887.86 66.8799 1887.86 63.0399C1888.02 59.0399 1888.34 54.1599 1888.82 48.3999C1889.3 42.6399 1889.54 38.8799 1889.54 37.1199C1889.86 29.5999 1890.82 19.8399 1892.42 7.83987C1892.9 3.19988 1895.3 0.879883 1899.62 0.879883C1904.42 0.879883 1906.82 3.27988 1906.82 8.07987Z" fill="white" fill-opacity="0.02"/>
<path d="M1682.45 152.08C1682.29 152.08 1681.09 152.72 1678.85 154C1673.09 157.2 1668.85 158.8 1666.13 158.8C1661.33 158.8 1658.93 156.4 1658.93 151.6C1658.93 148.56 1661.33 146.08 1666.13 144.16C1666.93 143.84 1668.85 142.88 1671.89 141.28C1674.93 139.68 1676.69 138.72 1677.17 138.4C1676.53 136.96 1676.21 134.8 1676.21 131.92C1676.21 117.52 1681.25 105.2 1691.33 94.9599C1701.41 84.7199 1710.61 79.5999 1718.93 79.5999C1727.25 79.5999 1733.81 81.5999 1738.61 85.5999C1743.41 89.4399 1745.81 94.1599 1745.81 99.7599C1745.81 105.2 1744.53 109.92 1741.97 113.92C1739.41 117.92 1735.41 121.84 1729.97 125.68C1722.45 131.12 1711.49 137.44 1697.09 144.64C1703.49 149.28 1712.37 151.6 1723.73 151.6C1735.09 151.6 1746.29 149.76 1757.33 146.08C1760.69 144.96 1762.61 144.4 1763.09 144.4C1767.89 144.4 1770.29 146.8 1770.29 151.6C1770.29 155.12 1767.89 157.68 1763.09 159.28C1749.65 163.76 1736.69 166 1724.21 166C1706.45 166 1692.53 161.36 1682.45 152.08ZM1690.61 131.92C1717.81 118.32 1731.41 108.08 1731.41 101.2C1731.41 96.3999 1727.41 93.9999 1719.41 93.9999C1714.61 93.9999 1708.61 97.8399 1701.41 105.52C1694.21 113.04 1690.61 121.84 1690.61 131.92Z" fill="white" fill-opacity="0.02"/>
<path d="M1674.3 151.6C1674.3 158 1666.94 161.2 1652.22 161.2C1645.34 161.2 1639.98 159.68 1636.14 156.64C1632.46 153.6 1630.62 148.32 1630.62 140.8C1630.62 133.28 1629.98 126.8 1628.7 121.36C1627.42 115.92 1625.66 113.2 1623.42 113.2C1615.58 113.2 1607.66 119.44 1599.66 131.92C1596.3 137.04 1592.7 142.24 1588.86 147.52C1585.18 152.64 1580.7 157.04 1575.42 160.72C1570.3 164.24 1564.7 166 1558.62 166C1545.34 166 1538.22 154.16 1537.26 130.48C1529.26 135.12 1523.5 137.92 1519.98 138.88C1516.46 139.68 1513.42 140.4 1510.86 141.04C1508.46 141.68 1506.3 142.24 1504.38 142.72C1502.62 143.04 1500.14 144.64 1496.94 147.52C1493.74 150.4 1490.54 153.04 1487.34 155.44C1484.14 157.68 1480.7 158.8 1477.02 158.8C1470.62 158.8 1465.42 155.44 1461.42 148.72C1457.42 141.84 1455.42 133.6 1455.42 124C1455.42 114.24 1456.62 96.3999 1459.02 70.4799C1461.42 44.3999 1462.62 23.5999 1462.62 8.07987C1462.62 5.99988 1463.26 4.31988 1464.54 3.03988C1465.98 1.59988 1467.74 0.879883 1469.82 0.879883C1474.62 0.879883 1477.02 3.27988 1477.02 8.07987C1477.02 23.9199 1475.82 45.2799 1473.42 72.1599C1471.02 98.8799 1469.82 115.12 1469.82 120.88C1469.82 126.64 1470.46 132 1471.74 136.96C1473.02 141.92 1474.78 144.4 1477.02 144.4C1477.98 144.4 1479.58 143.28 1481.82 141.04C1488.7 134.16 1496.7 129.6 1505.82 127.36C1516.38 124.48 1526.86 119.92 1537.26 113.68C1538.54 85.3599 1543.66 61.1999 1552.62 41.1999C1561.74 21.0399 1572.54 10.9599 1585.02 10.9599C1593.66 10.9599 1600.22 14.0799 1604.7 20.3199C1609.18 26.5599 1611.42 34.7999 1611.42 45.0399C1611.42 55.2799 1608.86 65.3599 1603.74 75.2799C1598.78 85.0399 1592.38 92.8799 1584.54 98.7999C1572.7 107.76 1561.66 115.44 1551.42 121.84C1551.42 141.68 1553.82 151.6 1558.62 151.6C1565.5 151.6 1573.1 145.36 1581.42 132.88C1585.1 127.76 1588.86 122.64 1592.7 117.52C1601.98 105.04 1612.22 98.7999 1623.42 98.7999C1637.82 98.7999 1645.02 112.4 1645.02 139.6C1645.02 144.4 1647.34 146.8 1651.98 146.8C1656.78 146.8 1660.38 146.4 1662.78 145.6C1665.18 144.8 1666.62 144.4 1667.1 144.4C1671.9 144.4 1674.3 146.8 1674.3 151.6ZM1552.38 104.08C1559.1 99.9199 1565.98 95.1199 1573.02 89.6799C1589.02 77.6799 1597.02 61.8399 1597.02 42.1599C1597.02 37.8399 1596.06 33.9999 1594.14 30.6399C1592.22 27.1199 1589.18 25.3599 1585.02 25.3599C1578.46 25.3599 1571.9 32.8799 1565.34 47.9199C1558.78 62.9599 1554.46 81.6799 1552.38 104.08Z" fill="white" fill-opacity="0.02"/>
<path d="M1258.53 142.48L1241.73 144.4C1236.93 144.4 1234.53 142 1234.53 137.2C1234.53 133.2 1236.93 130.8 1241.73 130C1246.05 129.2 1251.81 128.56 1259.01 128.08C1259.17 124.08 1260.29 111.92 1262.37 91.5999C1264.61 71.2799 1265.73 51.5999 1265.73 32.5599C1265.73 27.7599 1268.13 25.3599 1272.93 25.3599C1275.81 25.3599 1277.73 25.9999 1278.69 27.2799C1279.65 28.3999 1280.13 30.1599 1280.13 32.5599C1280.13 51.5999 1279.01 71.8399 1276.77 93.2799C1274.53 114.72 1273.41 126 1273.41 127.12C1286.21 125.84 1296.45 125.2 1304.13 125.2C1308.93 125.2 1311.33 127.6 1311.33 132.4C1311.33 137.2 1308.93 139.6 1304.13 139.6C1296.13 139.6 1285.73 140.24 1272.93 141.52V151.6C1272.93 161.2 1274.61 171.44 1277.97 182.32C1282.61 197.36 1284.93 206.32 1284.93 209.2C1284.93 214 1282.53 216.4 1277.73 216.4C1274.21 216.4 1271.81 214 1270.53 209.2C1269.89 206.48 1268.29 200.8 1265.73 192.16C1260.93 176 1258.53 162.48 1258.53 151.6V142.48ZM1143.33 100.96C1136.93 109.6 1133.73 117.6 1133.73 124.96C1133.73 132.32 1136.77 138.64 1142.85 143.92C1148.93 149.04 1156.29 151.6 1164.93 151.6C1171.17 151.6 1176.45 150.48 1180.77 148.24C1189.41 144.08 1193.73 137.84 1193.73 129.52C1193.73 121.2 1191.49 114.4 1187.01 109.12C1182.69 103.84 1176.93 101.2 1169.73 101.2C1165.89 101.2 1161.97 102.4 1157.97 104.8C1154.13 107.2 1151.65 108.4 1150.53 108.4C1145.73 108.4 1143.33 105.92 1143.33 100.96ZM1149.09 93.2799C1156.13 88.9599 1163.01 86.7999 1169.73 86.7999C1180.61 86.7999 1189.73 90.8799 1197.09 99.0399C1204.45 107.2 1208.13 117.36 1208.13 129.52C1208.13 141.52 1203.65 150.64 1194.69 156.88C1185.89 162.96 1175.41 166 1163.25 166C1151.25 166 1140.93 161.84 1132.29 153.52C1123.65 145.2 1119.33 135.76 1119.33 125.2C1119.33 119.92 1120.53 114.4 1122.93 108.64C1125.33 102.88 1127.25 98.9599 1128.69 96.8799C1130.13 94.7999 1132.61 91.4399 1136.13 86.7999C1139.65 81.9999 1142.85 79.5999 1145.73 79.5999C1150.53 79.5999 1152.93 81.9999 1152.93 86.7999C1152.93 87.7599 1151.65 89.9199 1149.09 93.2799Z" fill="white" fill-opacity="0.02"/>
<path d="M759.203 108.4L761.603 118C761.603 122.8 759.203 125.2 754.403 125.2C752.323 125.2 750.163 123.52 747.923 120.16C745.843 116.8 744.803 112.88 744.803 108.4C744.803 103.92 745.923 100.4 748.163 97.8399C750.563 95.2799 754.243 92.6399 759.203 89.9199C771.203 83.0399 785.603 79.5999 802.403 79.5999C808.643 79.5999 813.763 82.3199 817.763 87.7599C821.923 93.0399 824.003 99.9999 824.003 108.64C824.003 117.28 826.483 127.04 831.443 137.92C836.403 148.64 841.923 154 848.003 154C852.963 154 856.883 151.84 859.763 147.52C862.643 143.2 866.243 138.64 870.563 133.84C874.883 128.88 880.163 123.44 886.403 117.52C892.643 111.44 899.603 106.4 907.283 102.4C914.963 98.3999 922.243 96.3999 929.123 96.3999C943.523 96.3999 954.803 101.28 962.963 111.04C971.123 120.8 975.203 132.72 975.203 146.8C975.203 157.68 971.523 166 964.163 171.76C956.963 177.52 949.443 180.4 941.603 180.4C936.803 180.4 934.403 178.08 934.403 173.44C934.403 168.8 936.803 166.32 941.603 166C946.723 165.68 951.203 163.92 955.043 160.72C958.883 157.52 960.803 152.88 960.803 146.8C960.803 136.88 958.243 128.4 953.123 121.36C948.163 114.32 940.163 110.8 929.123 110.8C922.723 110.8 915.203 113.84 906.563 119.92C892.963 129.52 881.443 141.28 872.003 155.2C869.443 159.04 866.003 162.24 861.683 164.8C857.363 167.2 852.803 168.4 848.003 168.4C837.603 168.4 828.563 161.84 820.883 148.72C813.363 135.44 809.603 121.2 809.603 106C809.603 103.12 808.963 100.4 807.683 97.8399C806.563 95.2799 804.883 93.9999 802.643 93.9999C789.363 93.9999 776.883 97.0399 765.203 103.12C761.203 105.04 759.203 106.8 759.203 108.4Z" fill="white" fill-opacity="0.02"/>
<path d="M727.891 146.32C727.891 146.32 730.451 145.68 735.571 144.4C740.371 144.4 742.771 146.8 742.771 151.6C742.771 155.12 740.371 157.68 735.571 159.28C732.691 160.24 729.811 160.72 726.931 160.72C724.211 160.72 721.571 160.08 719.011 158.8C716.451 157.52 714.451 155.6 713.011 153.04C710.611 148.88 708.851 144.4 707.731 139.6L706.771 135.52C704.051 140.16 697.411 145.6 686.851 151.84C676.451 158.08 665.331 161.2 653.491 161.2C647.091 161.2 641.491 158.8 636.691 154C631.891 149.2 629.491 143.6 629.491 137.2C629.491 121.68 635.891 108.24 648.691 96.8799C661.491 85.3599 674.451 79.5999 687.571 79.5999C694.771 79.5999 700.931 80.9599 706.051 83.6799C711.331 86.2399 713.971 88.8799 713.971 91.5999C713.971 96.3999 711.571 98.7999 706.771 98.7999C705.811 98.7999 703.491 97.9999 699.811 96.3999C696.131 94.7999 692.051 93.9999 687.571 93.9999C678.931 93.9999 669.491 98.2399 659.251 106.72C649.011 115.04 643.891 125.2 643.891 137.2C643.891 139.6 644.851 141.84 646.771 143.92C648.851 145.84 651.091 146.8 653.491 146.8C662.931 146.8 671.731 144.32 679.891 139.36C688.051 134.24 693.251 130.08 695.491 126.88C697.731 123.52 699.571 120.48 701.011 117.76C702.451 115.04 703.491 113.28 704.131 112.48C704.931 111.52 706.531 111.04 708.931 111.04C711.331 111.04 713.171 111.92 714.451 113.68C715.731 115.44 716.931 118.24 718.051 122.08C719.171 125.76 720.291 129.92 721.411 134.56C722.531 139.2 723.491 142.32 724.291 143.92C725.251 145.52 726.451 146.32 727.891 146.32Z" fill="white" fill-opacity="0.02"/>
<path d="M564.616 132.88C574.216 123.6 579.016 113.84 579.016 103.6C579.016 101.04 578.056 98.7999 576.136 96.8799C574.216 94.9599 571.736 93.9999 568.696 93.9999C565.656 93.9999 563.016 95.3599 560.776 98.0799C558.536 100.8 557.416 104.24 557.416 108.4C557.416 117.84 559.816 126 564.616 132.88ZM480.856 72.3999L480.616 79.5999C480.616 100.4 483.096 117.04 488.056 129.52C493.976 144.4 505.896 151.76 523.816 151.6C533.256 151.6 543.096 148.32 553.336 141.76C546.456 132.16 543.016 121.04 543.016 108.4C543.016 99.2799 545.656 92.2399 550.936 87.2799C556.216 82.1599 562.216 79.5999 568.936 79.5999C575.656 79.5999 581.416 81.9999 586.216 86.7999C591.016 91.5999 593.416 97.1999 593.416 103.6C593.416 117.52 587.256 130.64 574.936 142.96C581.176 147.12 587.736 149.2 594.616 149.2C601.656 149.2 607.576 148.4 612.376 146.8C617.176 145.2 619.816 144.4 620.296 144.4C625.096 144.4 627.496 146.8 627.496 151.6C627.496 155.12 625.096 157.68 620.296 159.28C611.656 162.16 602.456 163.6 592.696 163.6C582.936 163.6 573.176 159.84 563.416 152.32C550.456 161.44 537.256 166 523.816 166C491.496 166 472.776 146.16 467.656 106.48C466.696 98.4799 466.216 89.5199 466.216 79.5999V73.5999C462.696 74.0799 460.296 74.3199 459.016 74.3199C454.216 74.3199 451.816 71.9199 451.816 67.1199C451.816 65.3599 452.456 63.8399 453.736 62.5599C455.016 61.1199 456.216 60.3199 457.336 60.1599C458.616 59.9999 459.736 59.8399 460.696 59.6799C461.816 59.5199 462.856 59.3599 463.816 59.1999C464.936 59.0399 466.056 58.8799 467.176 58.7199C468.136 45.9199 468.616 37.8399 468.616 34.4799C468.616 28.3999 471.016 25.3599 475.816 25.3599C480.616 25.3599 483.016 27.7599 483.016 32.5599C483.016 36.7199 482.536 45.1999 481.576 57.9999C492.776 57.6799 502.856 57.5199 511.816 57.5199C516.616 57.5199 519.016 59.9199 519.016 64.7199C519.016 69.5199 516.616 71.9199 511.816 71.9199C495.976 71.9199 485.656 72.0799 480.856 72.3999Z" fill="white" fill-opacity="0.02"/>
<path d="M227.449 152.08C227.289 152.08 226.089 152.72 223.849 154C218.089 157.2 213.849 158.8 211.129 158.8C206.329 158.8 203.929 156.4 203.929 151.6C203.929 148.56 206.329 146.08 211.129 144.16C211.929 143.84 213.849 142.88 216.889 141.28C219.929 139.68 221.689 138.72 222.169 138.4C221.529 136.96 221.209 134.8 221.209 131.92C221.209 117.52 226.249 105.2 236.329 94.9599C246.409 84.7199 255.609 79.5999 263.929 79.5999C272.249 79.5999 278.809 81.5999 283.609 85.5999C288.409 89.4399 290.809 94.1599 290.809 99.7599C290.809 105.2 289.529 109.92 286.969 113.92C284.409 117.92 280.409 121.84 274.969 125.68C267.449 131.12 256.489 137.44 242.089 144.64C248.489 149.28 257.369 151.6 268.729 151.6C280.089 151.6 291.289 149.76 302.329 146.08C305.689 144.96 307.609 144.4 308.089 144.4C312.889 144.4 315.289 146.8 315.289 151.6C315.289 155.12 312.889 157.68 308.089 159.28C294.649 163.76 281.689 166 269.209 166C251.449 166 237.529 161.36 227.449 152.08ZM235.609 131.92C262.809 118.32 276.409 108.08 276.409 101.2C276.409 96.3999 272.409 93.9999 264.409 93.9999C259.609 93.9999 253.609 97.8399 246.409 105.52C239.209 113.04 235.609 121.84 235.609 131.92Z" fill="white" fill-opacity="0.02"/>
<path d="M219.299 151.6C219.299 158 211.939 161.2 197.219 161.2C190.339 161.2 184.979 159.68 181.139 156.64C177.459 153.6 175.619 148.32 175.619 140.8C175.619 133.28 174.979 126.8 173.699 121.36C172.419 115.92 170.659 113.2 168.419 113.2C160.579 113.2 152.659 119.44 144.659 131.92C141.299 137.04 137.699 142.24 133.859 147.52C130.179 152.64 125.699 157.04 120.419 160.72C115.299 164.24 109.699 166 103.619 166C90.3387 166 83.2187 154.16 82.2587 130.48C74.2587 135.12 68.4987 137.92 64.9787 138.88C61.4587 139.68 58.4187 140.4 55.8587 141.04C53.4587 141.68 51.2987 142.24 49.3787 142.72C47.6187 143.04 45.1387 144.64 41.9387 147.52C38.7387 150.4 35.5387 153.04 32.3387 155.44C29.1387 157.68 25.6987 158.8 22.0187 158.8C15.6187 158.8 10.4187 155.44 6.4187 148.72C2.4187 141.84 0.418701 133.6 0.418701 124C0.418701 114.24 1.6187 96.3999 4.0187 70.4799C6.4187 44.3999 7.6187 23.5999 7.6187 8.07987C7.6187 5.99988 8.2587 4.31988 9.5387 3.03988C10.9787 1.59988 12.7387 0.879883 14.8187 0.879883C19.6187 0.879883 22.0187 3.27988 22.0187 8.07987C22.0187 23.9199 20.8187 45.2799 18.4187 72.1599C16.0187 98.8799 14.8187 115.12 14.8187 120.88C14.8187 126.64 15.4587 132 16.7387 136.96C18.0187 141.92 19.7787 144.4 22.0187 144.4C22.9787 144.4 24.5787 143.28 26.8187 141.04C33.6987 134.16 41.6987 129.6 50.8187 127.36C61.3787 124.48 71.8587 119.92 82.2587 113.68C83.5387 85.3599 88.6587 61.1999 97.6187 41.1999C106.739 21.0399 117.539 10.9599 130.019 10.9599C138.659 10.9599 145.219 14.0799 149.699 20.3199C154.179 26.5599 156.419 34.7999 156.419 45.0399C156.419 55.2799 153.859 65.3599 148.739 75.2799C143.779 85.0399 137.379 92.8799 129.539 98.7999C117.699 107.76 106.659 115.44 96.4187 121.84C96.4187 141.68 98.8187 151.6 103.619 151.6C110.499 151.6 118.099 145.36 126.419 132.88C130.099 127.76 133.859 122.64 137.699 117.52C146.979 105.04 157.219 98.7999 168.419 98.7999C182.819 98.7999 190.019 112.4 190.019 139.6C190.019 144.4 192.339 146.8 196.979 146.8C201.779 146.8 205.379 146.4 207.779 145.6C210.179 144.8 211.619 144.4 212.099 144.4C216.899 144.4 219.299 146.8 219.299 151.6ZM97.3787 104.08C104.099 99.9199 110.979 95.1199 118.019 89.6799C134.019 77.6799 142.019 61.8399 142.019 42.1599C142.019 37.8399 141.059 33.9999 139.139 30.6399C137.219 27.1199 134.179 25.3599 130.019 25.3599C123.459 25.3599 116.899 32.8799 110.339 47.9199C103.779 62.9599 99.4587 81.6799 97.3787 104.08Z" fill="white" fill-opacity="0.02"/>
</svg>
