<svg width="198" height="37" viewBox="0 0 198 37" fill="none" xmlns="http://www.w3.org/2000/svg">
<path d="M27.1258 30V8.451H31.2946V30H27.1258ZM40.6437 30V8.451H44.8125V30H40.6437ZM29.7619 20.7122V17.0338H41.8085V20.7122H29.7619ZM47.6235 30L56.2983 8.451H59.7007L68.3449 30H63.9002L57.2178 12.3133H58.7505L51.9762 30H47.6235ZM52.2214 25.9845V22.49H63.8082V25.9845H52.2214ZM73.9553 20.988V17.7388H78.9517C79.9735 17.7388 80.7602 17.4834 81.312 16.9725C81.8842 16.4412 82.1703 15.7157 82.1703 14.7962C82.1703 13.9583 81.8842 13.2635 81.312 12.7118C80.7602 12.1396 79.9735 11.8535 78.9517 11.8535H73.9553V8.451H79.3196C80.7092 8.451 81.9251 8.72687 82.9673 9.27862C84.0299 9.80994 84.8473 10.5456 85.4195 11.4856C86.0121 12.4257 86.3084 13.5087 86.3084 14.7348C86.3084 16.0018 86.0121 17.1053 85.4195 18.0454C84.8473 18.9649 84.0299 19.6904 82.9673 20.2217C81.9046 20.7326 80.6683 20.988 79.2582 20.988H73.9553ZM70.89 30V8.451H75.0588V30H70.89ZM82.6607 30L75.5492 20.6815L79.3809 19.486L87.7185 30H82.6607ZM92.9287 30V26.291H98.4156C99.8052 26.291 101.021 26.0049 102.063 25.4327C103.106 24.8401 103.913 24.0125 104.485 22.9498C105.078 21.8872 105.374 20.6304 105.374 19.1795C105.374 17.7695 105.078 16.5434 104.485 15.5012C103.892 14.4385 103.075 13.6211 102.033 13.0489C100.99 12.4563 99.7848 12.16 98.4156 12.16H92.8368V8.451H98.4769C100.071 8.451 101.542 8.71665 102.891 9.24797C104.26 9.77929 105.445 10.5354 106.447 11.5163C107.468 12.4767 108.255 13.6109 108.807 14.9188C109.379 16.2266 109.665 17.6571 109.665 19.2102C109.665 20.7633 109.379 22.2039 108.807 23.5322C108.255 24.8401 107.479 25.9845 106.477 26.9654C105.476 27.9258 104.291 28.6717 102.922 29.203C101.573 29.7343 100.112 30 98.5382 30H92.9287ZM90.078 30V8.451H94.2468V30H90.078ZM118.434 30L111.445 8.451H115.553L120.733 25.0342H119.354L124.442 8.451H127.538L132.626 25.0342H131.216L136.427 8.451H140.535L133.515 30H130.419L125.3 13.4474H126.649L121.561 30H118.434ZM139.313 30L147.988 8.451H151.39L160.034 30H155.59L148.907 12.3133H150.44L143.666 30H139.313ZM143.911 25.9845V22.49H155.498V25.9845H143.911ZM165.645 20.988V17.7388H170.641C171.663 17.7388 172.45 17.4834 173.001 16.9725C173.574 16.4412 173.86 15.7157 173.86 14.7962C173.86 13.9583 173.574 13.2635 173.001 12.7118C172.45 12.1396 171.663 11.8535 170.641 11.8535H165.645V8.451H171.009C172.399 8.451 173.614 8.72687 174.657 9.27862C175.719 9.80994 176.537 10.5456 177.109 11.4856C177.701 12.4257 177.998 13.5087 177.998 14.7348C177.998 16.0018 177.701 17.1053 177.109 18.0454C176.537 18.9649 175.719 19.6904 174.657 20.2217C173.594 20.7326 172.358 20.988 170.948 20.988H165.645ZM162.579 30V8.451H166.748V30H162.579ZM174.35 30L167.239 20.6815L171.07 19.486L179.408 30H174.35ZM181.767 30V8.451H185.936V30H181.767ZM184.833 30V26.3216H196.757V30H184.833ZM184.833 20.7735V17.2177H195.684V20.7735H184.833ZM184.833 12.1293V8.451H196.603V12.1293H184.833Z" fill="#999999"/>
<line x1="4.5" y1="5" x2="4.5" y2="33" stroke="#999999" stroke-width="9"/>
</svg>
