<svg width="949" height="185" viewBox="0 0 949 185" fill="none" xmlns="http://www.w3.org/2000/svg">
<mask id="mask0_540_164" style="mask-type:alpha" maskUnits="userSpaceOnUse" x="2" y="25" width="944" height="139">
<path d="M52.725 163.035C41.7483 163.035 32.19 161.37 24.05 158.04C16.0333 154.71 8.695 149.468 2.035 142.315L22.94 121.225C27.5033 126.035 32.375 129.735 37.555 132.325C42.735 134.792 48.5933 136.025 55.13 136.025C60.68 136.025 64.935 135.1 67.895 133.25C70.9783 131.277 72.52 128.625 72.52 125.295C72.52 122.212 71.41 119.683 69.19 117.71C66.97 115.613 64.01 113.825 60.31 112.345C56.7333 110.742 52.725 109.262 48.285 107.905C43.9683 106.425 39.59 104.698 35.15 102.725C30.8333 100.628 26.825 98.1 23.125 95.14C19.5483 92.18 16.65 88.48 14.43 84.04C12.21 79.6 11.1 74.1117 11.1 67.575C11.1 59.1883 13.0733 52.035 17.02 46.115C21.09 40.195 26.7017 35.6317 33.855 32.425C41.0083 29.2183 49.3333 27.615 58.83 27.615C68.3267 27.615 77.0833 29.2183 85.1 32.425C93.1167 35.6317 99.715 40.0717 104.895 45.745L83.805 66.65C79.8583 62.7033 75.85 59.7433 71.78 57.77C67.71 55.7967 63.27 54.81 58.46 54.81C53.8967 54.81 50.32 55.6117 47.73 57.215C45.14 58.8183 43.845 61.1 43.845 64.06C43.845 67.02 44.955 69.425 47.175 71.275C49.395 73.125 52.2933 74.79 55.87 76.27C59.57 77.6267 63.5783 79.045 67.895 80.525C72.335 82.005 76.7133 83.7317 81.03 85.705C85.3467 87.6783 89.2933 90.2067 92.87 93.29C96.57 96.3733 99.53 100.258 101.75 104.945C103.97 109.632 105.08 115.305 105.08 121.965C105.08 135.038 100.455 145.152 91.205 152.305C82.0783 159.458 69.2517 163.035 52.725 163.035ZM138.17 161L109.495 70.535H140.575L157.595 136.395L148.345 136.58L168.51 70.535H197.185L217.35 136.58L208.1 136.395L225.305 70.535H256.385L227.71 161H198.665L179.425 98.47H186.64L166.845 161H138.17ZM264.709 161V70.535H297.084V161H264.709ZM280.804 59.99C275.994 59.99 271.986 58.3867 268.779 55.18C265.572 51.85 263.969 47.7183 263.969 42.785C263.969 37.975 265.572 33.905 268.779 30.575C271.986 27.245 275.994 25.58 280.804 25.58C285.861 25.58 289.931 27.245 293.014 30.575C296.221 33.905 297.824 37.975 297.824 42.785C297.824 47.7183 296.221 51.85 293.014 55.18C289.931 58.3867 285.861 59.99 280.804 59.99ZM328.236 161V33.165H360.426V161H328.236ZM308.256 97.36V70.535H380.406V97.36H308.256ZM435.045 163.035C425.425 163.035 416.73 161 408.96 156.93C401.313 152.86 395.27 147.248 390.83 140.095C386.39 132.942 384.17 124.863 384.17 115.86C384.17 106.733 386.39 98.5933 390.83 91.44C395.393 84.2867 401.498 78.675 409.145 74.605C416.915 70.4117 425.672 68.315 435.415 68.315C442.445 68.315 448.858 69.4867 454.655 71.83C460.452 74.1733 465.755 77.6883 470.565 82.375L450.215 102.725C448.365 100.875 446.207 99.5183 443.74 98.655C441.397 97.6683 438.622 97.175 435.415 97.175C431.962 97.175 428.817 97.9767 425.98 99.58C423.267 101.06 421.047 103.157 419.32 105.87C417.717 108.583 416.915 111.852 416.915 115.675C416.915 119.375 417.717 122.643 419.32 125.48C421.047 128.193 423.267 130.352 425.98 131.955C428.817 133.558 431.962 134.36 435.415 134.36C438.868 134.36 441.828 133.805 444.295 132.695C446.762 131.585 448.92 129.982 450.77 127.885L471.305 148.235C466.248 153.168 460.76 156.868 454.84 159.335C449.043 161.802 442.445 163.035 435.045 163.035ZM541.601 161V109.94C541.601 105.747 540.367 102.478 537.901 100.135C535.434 97.6683 532.289 96.435 528.466 96.435C525.876 96.435 523.532 96.99 521.436 98.1C519.462 99.21 517.921 100.752 516.811 102.725C515.701 104.698 515.146 107.103 515.146 109.94L502.566 104.02C502.566 96.7433 504.046 90.515 507.006 85.335C510.089 80.0317 514.282 75.9617 519.586 73.125C524.889 70.165 531.056 68.685 538.086 68.685C545.362 68.685 551.652 70.165 556.956 73.125C562.382 75.9617 566.514 79.9083 569.351 84.965C572.311 90.0217 573.791 95.88 573.791 102.54V161H541.601ZM482.956 161V26.135H515.146V161H482.956ZM627.177 161V29.835H660.292V161H627.177ZM653.447 161V132.51H716.717V161H653.447ZM729.738 161V70.535H762.113V161H729.738ZM745.833 59.99C741.023 59.99 737.015 58.3867 733.808 55.18C730.602 51.85 728.998 47.7183 728.998 42.785C728.998 37.975 730.602 33.905 733.808 30.575C737.015 27.245 741.023 25.58 745.833 25.58C750.89 25.58 754.96 27.245 758.043 30.575C761.25 33.905 762.853 37.975 762.853 42.785C762.853 47.7183 761.25 51.85 758.043 55.18C754.96 58.3867 750.89 59.99 745.833 59.99ZM793.266 161V33.165H825.456V161H793.266ZM773.286 97.36V70.535H845.436V97.36H773.286ZM900.999 163.035C890.886 163.035 881.944 161.062 874.174 157.115C866.404 153.045 860.299 147.433 855.859 140.28C851.419 133.127 849.199 124.925 849.199 115.675C849.199 106.548 851.357 98.47 855.674 91.44C859.991 84.2867 865.849 78.675 873.249 74.605C880.772 70.4117 889.221 68.315 898.594 68.315C907.721 68.315 915.799 70.2883 922.829 74.235C929.982 78.0583 935.532 83.4233 939.479 90.33C943.549 97.1133 945.584 104.883 945.584 113.64C945.584 115.49 945.461 117.402 945.214 119.375C945.091 121.225 944.721 123.383 944.104 125.85L864.369 126.22V105.5L931.339 104.945L916.909 114.01C916.786 108.953 916.046 104.822 914.689 101.615C913.332 98.285 911.359 95.7567 908.769 94.03C906.179 92.3033 902.911 91.44 898.964 91.44C894.894 91.44 891.379 92.4267 888.419 94.4C885.459 96.3733 883.177 99.1483 881.574 102.725C879.971 106.302 879.169 110.618 879.169 115.675C879.169 120.855 880.032 125.295 881.759 128.995C883.486 132.572 885.952 135.285 889.159 137.135C892.366 138.985 896.312 139.91 900.999 139.91C905.439 139.91 909.324 139.17 912.654 137.69C916.107 136.21 919.191 133.928 921.904 130.845L938.739 147.68C934.299 152.737 928.872 156.56 922.459 159.15C916.169 161.74 909.016 163.035 900.999 163.035Z" fill="white"/>
</mask>
<g mask="url(#mask0_540_164)">
<circle cx="740" cy="255" r="287" fill="white"/>
</g>
</svg>
