<svg width="656" height="656" viewBox="0 0 656 656" fill="none" xmlns="http://www.w3.org/2000/svg">
<circle cx="327.61" cy="327.61" r="327.61" fill="#D42D26"/>
<mask id="mask0_781_28" style="mask-type:alpha" maskUnits="userSpaceOnUse" x="0" y="0" width="656" height="656">
<circle cx="327.61" cy="327.61" r="327.61" fill="white"/>
</mask>
<g mask="url(#mask0_781_28)">
<path d="M65.6179 473.769C53.9739 473.769 43.2529 471.781 33.4549 467.805C23.6569 463.829 15.0659 458.291 7.68187 451.191C0.439868 444.091 -5.24013 435.784 -9.35813 426.27C-13.4761 416.614 -15.5351 406.248 -15.5351 395.172C-15.5351 384.096 -13.5471 373.872 -9.57113 364.5C-5.45313 354.986 0.226868 346.679 7.46887 339.579C14.7109 332.479 23.2309 327.012 33.0289 323.178C42.8269 319.202 53.5479 317.214 65.1919 317.214C76.8359 317.214 87.5569 319.202 97.3549 323.178C107.153 327.012 115.673 332.479 122.915 339.579C130.157 346.679 135.766 354.986 139.742 364.5C143.86 374.014 145.919 384.309 145.919 395.385C145.919 406.461 143.86 416.756 139.742 426.27C135.766 435.784 130.157 444.162 122.915 451.404C115.673 458.504 107.153 464.042 97.3549 468.018C87.6989 471.852 77.1199 473.769 65.6179 473.769ZM65.1919 439.689C73.7119 439.689 81.0959 437.843 87.3439 434.151C93.5919 430.459 98.4199 425.276 101.828 418.602C105.236 411.928 106.94 404.118 106.94 395.172C106.94 388.64 105.946 382.676 103.958 377.28C102.112 371.884 99.3429 367.269 95.6509 363.435C91.9589 359.459 87.5569 356.406 82.4449 354.276C77.3329 352.146 71.5819 351.081 65.1919 351.081C56.6719 351.081 49.2879 352.927 43.0399 356.619C36.7919 360.169 31.9639 365.281 28.5559 371.955C25.1479 378.629 23.4439 386.368 23.4439 395.172C23.4439 401.988 24.3669 408.165 26.2129 413.703C28.2009 419.099 31.0409 423.785 34.7329 427.761C38.4249 431.595 42.8269 434.577 47.9389 436.707C53.0509 438.695 58.8019 439.689 65.1919 439.689ZM164.987 471V319.983H203.114V471H164.987ZM195.233 471V438.198H268.079V471H195.233ZM285.84 471V319.983H323.967V471H285.84ZM316.086 471V438.837H397.878V471H316.086ZM316.086 409.656V378.345H390.21V409.656H316.086ZM316.086 352.146V319.983H396.6V352.146H316.086ZM445.154 471V438.198H481.364C489.884 438.198 497.268 436.565 503.516 433.299C509.906 430.033 514.805 425.205 518.213 418.815C521.621 412.283 523.325 404.402 523.325 395.172C523.325 386.084 521.55 378.416 518 372.168C514.592 365.778 509.764 360.95 503.516 357.684C497.268 354.418 489.884 352.785 481.364 352.785H443.45V319.983H481.577C493.221 319.983 503.942 321.829 513.74 325.521C523.538 329.071 532.058 334.183 539.3 340.857C546.542 347.531 552.151 355.483 556.127 364.713C560.245 373.943 562.304 384.167 562.304 395.385C562.304 406.745 560.245 417.04 556.127 426.27C552.151 435.5 546.542 443.452 539.3 450.126C532.058 456.8 523.538 461.983 513.74 465.675C504.084 469.225 493.505 471 482.003 471H445.154ZM419.381 471V319.983H457.508V471H419.381Z" fill="white"/>
</g>
</svg>
