<svg width="596" height="596" viewBox="0 0 596 596" fill="none" xmlns="http://www.w3.org/2000/svg">
<mask id="mask0_369_991" style="mask-type:alpha" maskUnits="userSpaceOnUse" x="0" y="0" width="596" height="596">
<circle cx="298" cy="298" r="298" fill="white"/>
</mask>
<g mask="url(#mask0_369_991)">
<path d="M-103.425 326.145C-114.995 326.145 -125.07 324.39 -133.65 320.88C-142.1 317.37 -149.835 311.845 -156.855 304.305L-134.82 282.075C-130.01 287.145 -124.875 291.045 -119.415 293.775C-113.955 296.375 -107.78 297.675 -100.89 297.675C-95.04 297.675 -90.555 296.7 -87.435 294.75C-84.185 292.67 -82.56 289.875 -82.56 286.365C-82.56 283.115 -83.73 280.45 -86.07 278.37C-88.41 276.16 -91.53 274.275 -95.43 272.715C-99.2 271.025 -103.425 269.465 -108.105 268.035C-112.655 266.475 -117.27 264.655 -121.95 262.575C-126.5 260.365 -130.725 257.7 -134.625 254.58C-138.395 251.46 -141.45 247.56 -143.79 242.88C-146.13 238.2 -147.3 232.415 -147.3 225.525C-147.3 216.685 -145.22 209.145 -141.06 202.905C-136.77 196.665 -130.855 191.855 -123.315 188.475C-115.775 185.095 -107 183.405 -96.99 183.405C-86.98 183.405 -77.75 185.095 -69.3 188.475C-60.85 191.855 -53.895 196.535 -48.435 202.515L-70.665 224.55C-74.825 220.39 -79.05 217.27 -83.34 215.19C-87.63 213.11 -92.31 212.07 -97.38 212.07C-102.19 212.07 -105.96 212.915 -108.69 214.605C-111.42 216.295 -112.785 218.7 -112.785 221.82C-112.785 224.94 -111.615 227.475 -109.275 229.425C-106.935 231.375 -103.88 233.13 -100.11 234.69C-96.21 236.12 -91.985 237.615 -87.435 239.175C-82.755 240.735 -78.14 242.555 -73.59 244.635C-69.04 246.715 -64.88 249.38 -61.11 252.63C-57.21 255.88 -54.09 259.975 -51.75 264.915C-49.41 269.855 -48.24 275.835 -48.24 282.855C-48.24 296.635 -53.115 307.295 -62.865 314.835C-72.485 322.375 -86.005 326.145 -103.425 326.145ZM-13.3609 324L-43.5859 228.645H-10.8259L7.1141 298.065L-2.6359 298.26L18.6191 228.645H48.8441L70.0991 298.26L60.3491 298.065L78.4841 228.645H111.244L81.0191 324H50.4041L30.1241 258.09H37.7291L16.8641 324H-13.3609ZM120.018 324V228.645H154.143V324H120.018ZM136.983 217.53C131.913 217.53 127.688 215.84 124.308 212.46C120.928 208.95 119.238 204.595 119.238 199.395C119.238 194.325 120.928 190.035 124.308 186.525C127.688 183.015 131.913 181.26 136.983 181.26C142.313 181.26 146.603 183.015 149.853 186.525C153.233 190.035 154.923 194.325 154.923 199.395C154.923 204.595 153.233 208.95 149.853 212.46C146.603 215.84 142.313 217.53 136.983 217.53ZM186.979 324V189.255H220.909V324H186.979ZM165.919 256.92V228.645H241.969V256.92H165.919ZM299.561 326.145C289.421 326.145 280.256 324 272.066 319.71C264.006 315.42 257.636 309.505 252.956 301.965C248.276 294.425 245.936 285.91 245.936 276.42C245.936 266.8 248.276 258.22 252.956 250.68C257.766 243.14 264.201 237.225 272.261 232.935C280.451 228.515 289.681 226.305 299.951 226.305C307.361 226.305 314.121 227.54 320.231 230.01C326.341 232.48 331.931 236.185 337.001 241.125L315.551 262.575C313.601 260.625 311.326 259.195 308.726 258.285C306.256 257.245 303.331 256.725 299.951 256.725C296.311 256.725 292.996 257.57 290.006 259.26C287.146 260.82 284.806 263.03 282.986 265.89C281.296 268.75 280.451 272.195 280.451 276.225C280.451 280.125 281.296 283.57 282.986 286.56C284.806 289.42 287.146 291.695 290.006 293.385C292.996 295.075 296.311 295.92 299.951 295.92C303.591 295.92 306.711 295.335 309.311 294.165C311.911 292.995 314.186 291.305 316.136 289.095L337.781 310.545C332.451 315.745 326.666 319.645 320.426 322.245C314.316 324.845 307.361 326.145 299.561 326.145ZM411.876 324V270.18C411.876 265.76 410.576 262.315 407.976 259.845C405.376 257.245 402.061 255.945 398.031 255.945C395.301 255.945 392.831 256.53 390.621 257.7C388.541 258.87 386.916 260.495 385.746 262.575C384.576 264.655 383.991 267.19 383.991 270.18L370.731 263.94C370.731 256.27 372.291 249.705 375.411 244.245C378.661 238.655 383.081 234.365 388.671 231.375C394.261 228.255 400.761 226.695 408.171 226.695C415.841 226.695 422.471 228.255 428.061 231.375C433.781 234.365 438.136 238.525 441.126 243.855C444.246 249.185 445.806 255.36 445.806 262.38V324H411.876ZM350.061 324V181.845H383.991V324H350.061Z" fill="white"/>
</g>
</svg>
