<svg width="28" height="251" viewBox="0 0 28 251" fill="none" xmlns="http://www.w3.org/2000/svg">
<path d="M22 243.02L1.78 243.02L1.78 240.2L22 240.2L22 243.02ZM3.76 250.1L1.18 250.1L1.18 233.15L3.76 233.15L3.76 250.1ZM22 220.19L13.69 220.19C12.61 220.19 11.72 220.53 11.02 221.21C10.32 221.89 9.97 222.77 9.97 223.85C9.97 224.57 10.13 225.21 10.45 225.77C10.77 226.33 11.21 226.77 11.77 227.09C12.33 227.41 12.97 227.57 13.69 227.57L13.06 228.68C11.98 228.68 11.02 228.44 10.18 227.96C9.34 227.48 8.68 226.81 8.2 225.95C7.7 225.09 7.45 224.12 7.45 223.04C7.45 221.96 7.69 221.01 8.17 220.19C8.65 219.35 9.32 218.69 10.18 218.21C11.04 217.73 12.03 217.49 13.15 217.49L22 217.49L22 220.19ZM22 230.27L0.579998 230.27L0.579998 227.57L22 227.57L22 230.27ZM22.3 207.234C22.3 208.654 21.98 209.934 21.34 211.074C20.68 212.214 19.79 213.114 18.67 213.774C17.55 214.434 16.28 214.764 14.86 214.764C13.46 214.764 12.2 214.444 11.08 213.804C9.96 213.144 9.08 212.264 8.44 211.164C7.78 210.044 7.45 208.794 7.45 207.414C7.45 206.094 7.75 204.934 8.35 203.934C8.95 202.914 9.78 202.124 10.84 201.564C11.9 200.984 13.1 200.694 14.44 200.694C14.64 200.694 14.86 200.704 15.1 200.724C15.32 200.744 15.58 200.784 15.88 200.844L15.88 212.874L13.63 212.874L13.63 202.284L14.5 203.274C13.54 203.274 12.73 203.444 12.07 203.784C11.39 204.124 10.87 204.604 10.51 205.224C10.13 205.844 9.94 206.594 9.94 207.474C9.94 208.394 10.14 209.204 10.54 209.904C10.94 210.604 11.5 211.144 12.22 211.524C12.94 211.904 13.79 212.094 14.77 212.094C15.77 212.094 16.65 211.894 17.41 211.494C18.15 211.094 18.73 210.524 19.15 209.784C19.55 209.044 19.75 208.194 19.75 207.234C19.75 206.434 19.61 205.704 19.33 205.044C19.05 204.364 18.63 203.784 18.07 203.304L19.84 201.564C20.64 202.244 21.25 203.084 21.67 204.084C22.09 205.064 22.3 206.114 22.3 207.234ZM22 189.14L19.54 189.14L19.54 182.84C19.54 181.64 19.19 180.7 18.49 180.02C17.77 179.34 16.91 179 15.91 179C15.23 179 14.62 179.15 14.08 179.45C13.52 179.75 13.08 180.19 12.76 180.77C12.44 181.33 12.28 181.99 12.28 182.75L12.28 189.14L9.82 189.14L9.82 183.17C9.82 182.17 9.56 181.38 9.04 180.8C8.5 180.2 7.73 179.9 6.73 179.9C5.73 179.9 4.97 180.21 4.45 180.83C3.91 181.45 3.64 182.27 3.64 183.29L3.64 189.14L1.18 189.14L1.18 183.23C1.18 181.87 1.43 180.74 1.93 179.84C2.41 178.92 3.05 178.23 3.85 177.77C4.65 177.29 5.53 177.05 6.49 177.05C7.61 177.05 8.59 177.36 9.43 177.98C10.27 178.58 10.93 179.47 11.41 180.65L10.51 180.41C10.99 179.07 11.72 178.03 12.7 177.29C13.66 176.53 14.8 176.15 16.12 176.15C17.22 176.15 18.21 176.42 19.09 176.96C19.97 177.5 20.68 178.28 21.22 179.3C21.74 180.3 22 181.53 22 182.99L22 189.14ZM22 191.03L1.18 191.03L1.18 188.21L22 188.21L22 191.03ZM22.3 166.219C22.3 167.639 21.98 168.919 21.34 170.059C20.68 171.199 19.79 172.099 18.67 172.759C17.55 173.419 16.28 173.749 14.86 173.749C13.46 173.749 12.2 173.429 11.08 172.789C9.96 172.129 9.08 171.249 8.44 170.149C7.78 169.029 7.45 167.779 7.45 166.399C7.45 165.079 7.75 163.919 8.35 162.919C8.95 161.899 9.78 161.109 10.84 160.549C11.9 159.969 13.1 159.679 14.44 159.679C14.64 159.679 14.86 159.689 15.1 159.709C15.32 159.729 15.58 159.769 15.88 159.829L15.88 171.859L13.63 171.859L13.63 161.269L14.5 162.259C13.54 162.259 12.73 162.429 12.07 162.769C11.39 163.109 10.87 163.589 10.51 164.209C10.13 164.829 9.94 165.579 9.94 166.459C9.94 167.379 10.14 168.189 10.54 168.889C10.94 169.589 11.5 170.129 12.22 170.509C12.94 170.889 13.79 171.079 14.77 171.079C15.77 171.079 16.65 170.879 17.41 170.479C18.15 170.079 18.73 169.509 19.15 168.769C19.55 168.029 19.75 167.179 19.75 166.219C19.75 165.419 19.61 164.689 19.33 164.029C19.05 163.349 18.63 162.769 18.07 162.289L19.84 160.549C20.64 161.229 21.25 162.069 21.67 163.069C22.09 164.049 22.3 165.099 22.3 166.219ZM22.3 152.205C22.3 153.005 22.2 153.765 22 154.485C21.78 155.185 21.48 155.835 21.1 156.435C20.7 157.035 20.23 157.555 19.69 157.995L17.95 156.255C18.59 155.735 19.07 155.135 19.39 154.455C19.69 153.775 19.84 153.015 19.84 152.175C19.84 151.335 19.7 150.685 19.42 150.225C19.12 149.765 18.71 149.535 18.19 149.535C17.67 149.535 17.27 149.725 16.99 150.105C16.69 150.465 16.45 150.935 16.27 151.515C16.07 152.095 15.88 152.715 15.7 153.375C15.5 154.015 15.25 154.625 14.95 155.205C14.65 155.785 14.24 156.265 13.72 156.645C13.2 157.005 12.51 157.185 11.65 157.185C10.79 157.185 10.05 156.975 9.42999 156.555C8.78999 156.135 8.29999 155.555 7.96 154.815C7.62 154.055 7.45 153.145 7.45 152.085C7.45 150.965 7.64999 149.975 8.04999 149.115C8.42999 148.235 9.01 147.515 9.79 146.955L11.53 148.695C11.01 149.095 10.61 149.595 10.33 150.195C10.05 150.775 9.90999 151.435 9.90999 152.175C9.90999 152.955 10.05 153.555 10.33 153.975C10.59 154.375 10.96 154.575 11.44 154.575C11.92 154.575 12.29 154.395 12.55 154.035C12.81 153.675 13.03 153.205 13.21 152.625C13.39 152.025 13.58 151.405 13.78 150.765C13.96 150.125 14.21 149.515 14.53 148.935C14.85 148.355 15.28 147.885 15.82 147.525C16.36 147.145 17.07 146.955 17.95 146.955C19.29 146.955 20.35 147.435 21.13 148.395C21.91 149.335 22.3 150.605 22.3 152.205ZM22 141.742L1.77999 141.742L1.77999 139.042L22 139.042L22 141.742ZM10.21 145.252L7.74999 145.252L7.74999 135.532L10.21 135.532L10.21 145.252ZM13.9 124.277L11.44 124.277L11.44 118.607C11.44 117.827 11.28 117.137 10.96 116.537C10.64 115.917 10.19 115.437 9.60999 115.097C9.02999 114.737 8.33999 114.557 7.53999 114.557C6.73999 114.557 6.04999 114.737 5.46999 115.097C4.88999 115.437 4.43999 115.917 4.11999 116.537C3.79999 117.137 3.63999 117.827 3.63999 118.607L3.63999 124.277L1.17999 124.277L1.17999 118.427C1.17999 117.147 1.43999 116.007 1.95999 115.007C2.47999 113.987 3.21999 113.187 4.17999 112.607C5.11999 112.007 6.23999 111.707 7.53999 111.707C8.81999 111.707 9.93999 112.007 10.9 112.607C11.84 113.187 12.58 113.987 13.12 115.007C13.64 116.007 13.9 117.147 13.9 118.427L13.9 124.277ZM22 126.167L1.17999 126.167L1.17999 123.347L22 123.347L22 126.167ZM22 108.454L0.579992 108.454L0.579992 105.754L22 105.754L22 108.454ZM22.3 95.7432C22.3 97.0432 21.98 98.2232 21.34 99.2832C20.68 100.343 19.79 101.183 18.67 101.803C17.55 102.403 16.29 102.703 14.89 102.703C13.49 102.703 12.23 102.403 11.11 101.803C9.98999 101.183 9.09999 100.353 8.43999 99.3132C7.77999 98.2532 7.44999 97.0632 7.44999 95.7432C7.44999 94.6632 7.67999 93.7032 8.13999 92.8632C8.57999 92.0032 9.19999 91.3132 9.99999 90.7932C10.78 90.2732 11.69 89.9832 12.73 89.9232L17.02 89.9232C18.04 89.9832 18.95 90.2732 19.75 90.7932C20.55 91.2932 21.18 91.9732 21.64 92.8332C22.08 93.6732 22.3 94.6432 22.3 95.7432ZM19.75 95.2932C19.75 93.9532 19.3 92.8732 18.4 92.0532C17.48 91.2332 16.31 90.8232 14.89 90.8232C13.91 90.8232 13.06 91.0132 12.34 91.3932C11.6 91.7532 11.03 92.2732 10.63 92.9532C10.21 93.6332 9.99999 94.4232 9.99999 95.3232C9.99999 96.2232 10.21 97.0232 10.63 97.7232C11.05 98.4032 11.63 98.9432 12.37 99.3432C13.09 99.7232 13.92 99.9132 14.86 99.9132C15.82 99.9132 16.67 99.7232 17.41 99.3432C18.13 98.9432 18.7 98.3932 19.12 97.6932C19.54 96.9932 19.75 96.1932 19.75 95.2932ZM22 91.0032L18.16 91.0032L14.68 90.4932L11.23 91.0032L7.74999 91.0032L7.74999 88.2732L22 88.2732L22 91.0032ZM22.12 79.6623L7.74999 85.8423L7.74999 82.8423L19 78.2523L19 79.2123L7.74999 74.3823L7.74999 71.3823L22.12 78.0423L22.12 79.6623ZM27.97 83.7423L19.36 79.5423L22.12 78.0423L27.97 80.7423L27.97 83.7423ZM22 62.2119L1.17999 62.2119L1.17999 59.3919L22 59.3919L22 62.2119ZM22 48.7719L1.17999 48.7719L1.17999 45.9519L22 45.9519L22 48.7719ZM12.52 60.2919L9.93999 60.2919L9.93999 48.0819L12.52 48.0819L12.52 60.2919ZM22.3 34.9102C22.3 36.3302 21.98 37.6102 21.34 38.7502C20.68 39.8902 19.79 40.7902 18.67 41.4502C17.55 42.1102 16.28 42.4402 14.86 42.4402C13.46 42.4402 12.2 42.1202 11.08 41.4802C9.95999 40.8202 9.07999 39.9402 8.43999 38.8402C7.77999 37.7202 7.44999 36.4702 7.44999 35.0902C7.44999 33.7702 7.74999 32.6102 8.34999 31.6102C8.94999 30.5902 9.77999 29.8002 10.84 29.2402C11.9 28.6602 13.1 28.3702 14.44 28.3702C14.64 28.3702 14.86 28.3802 15.1 28.4002C15.32 28.4202 15.58 28.4602 15.88 28.5202L15.88 40.5502L13.63 40.5502L13.63 29.9602L14.5 30.9502C13.54 30.9502 12.73 31.1202 12.07 31.4602C11.39 31.8002 10.87 32.2802 10.51 32.9002C10.13 33.5202 9.93999 34.2702 9.93999 35.1502C9.93999 36.0702 10.14 36.8802 10.54 37.5802C10.94 38.2802 11.5 38.8202 12.22 39.2002C12.94 39.5802 13.79 39.7702 14.77 39.7702C15.77 39.7702 16.65 39.5702 17.41 39.1702C18.15 38.7702 18.73 38.2002 19.15 37.4602C19.55 36.7202 19.75 35.8702 19.75 34.9102C19.75 34.1102 19.61 33.3802 19.33 32.7202C19.05 32.0402 18.63 31.4602 18.07 30.9802L19.84 29.2402C20.64 29.9202 21.25 30.7602 21.67 31.7602C22.09 32.7402 22.3 33.7902 22.3 34.9102ZM22 25.4262L7.74999 25.4262L7.74999 22.7262L22 22.7262L22 25.4262ZM13.87 22.7262L13.42 23.7462C11.6 23.7462 10.15 23.3262 9.06999 22.4862C7.98999 21.6462 7.44999 20.4362 7.44999 18.8562C7.44999 18.1362 7.57999 17.4862 7.83999 16.9062C8.07999 16.3262 8.48999 15.7862 9.06999 15.2862L10.9 17.0562C10.58 17.3562 10.35 17.6862 10.21 18.0462C10.07 18.4062 9.99999 18.8262 9.99999 19.3062C9.99999 20.3062 10.32 21.1262 10.96 21.7662C11.6 22.4062 12.57 22.7262 13.87 22.7262ZM22.3 7.25398C22.3 8.67398 21.98 9.95398 21.34 11.094C20.68 12.234 19.79 13.134 18.67 13.794C17.55 14.454 16.28 14.784 14.86 14.784C13.46 14.784 12.2 14.464 11.08 13.824C9.95999 13.164 9.07999 12.284 8.43999 11.184C7.77999 10.064 7.44999 8.81398 7.44999 7.43398C7.44999 6.11398 7.74999 4.95398 8.34999 3.95398C8.94999 2.93398 9.77999 2.14398 10.84 1.58398C11.9 1.00398 13.1 0.713983 14.44 0.713983C14.64 0.713983 14.86 0.723983 15.1 0.743983C15.32 0.763982 15.58 0.803982 15.88 0.863983L15.88 12.894L13.63 12.894L13.63 2.30398L14.5 3.29398C13.54 3.29398 12.73 3.46398 12.07 3.80398C11.39 4.14398 10.87 4.62398 10.51 5.24398C10.13 5.86398 9.93999 6.61398 9.93999 7.49398C9.93999 8.41398 10.14 9.22398 10.54 9.92398C10.94 10.624 11.5 11.164 12.22 11.544C12.94 11.924 13.79 12.114 14.77 12.114C15.77 12.114 16.65 11.914 17.41 11.514C18.15 11.114 18.73 10.544 19.15 9.80398C19.55 9.06398 19.75 8.21398 19.75 7.25398C19.75 6.45398 19.61 5.72398 19.33 5.06398C19.05 4.38398 18.63 3.80398 18.07 3.32398L19.84 1.58398C20.64 2.26398 21.25 3.10398 21.67 4.10398C22.09 5.08398 22.3 6.13398 22.3 7.25398Z" fill="#CCCCCC"/>
</svg>
