<svg width="564" height="529" viewBox="0 0 564 529" fill="none" xmlns="http://www.w3.org/2000/svg">
<path opacity="0.06" d="M242.56 528.744C195.088 528.744 153.12 517.392 116.656 494.688C80.192 471.984 51.64 441.024 31 401.808C10.36 361.904 0.0400391 316.152 0.0400391 264.552C0.0400391 212.952 10.36 167.2 31 127.296C51.64 87.3921 80.192 56.4321 116.656 34.4161C153.12 11.7121 195.088 0.360107 242.56 0.360107C272.144 0.360107 299.32 5.52011 324.088 15.8401C349.544 25.4721 370.528 39.2321 387.04 57.1201C404.24 75.0081 415.248 95.6481 420.064 119.04V410.064C415.248 433.456 404.24 454.096 387.04 471.984C370.528 489.872 349.544 503.976 324.088 514.296C299.32 523.928 272.144 528.744 242.56 528.744ZM287.968 351.24C313.424 351.24 333.72 343.328 348.856 327.504C364.68 310.992 372.592 290.008 372.592 264.552C372.592 247.352 369.152 232.56 362.272 220.176C355.392 207.104 345.416 196.784 332.344 189.216C319.96 181.648 305.512 177.864 289 177.864C272.488 177.864 257.696 181.648 244.624 189.216C232.24 196.784 222.264 207.104 214.696 220.176C207.128 233.248 203.344 248.04 203.344 264.552C203.344 281.064 206.784 295.856 213.664 308.928C221.232 322 231.552 332.32 244.624 339.888C257.696 347.456 272.144 351.24 287.968 351.24ZM366.4 518.424V382.2L394.264 258.36L366.4 135.552V10.6801H563.512V518.424H366.4Z" fill="#666666"/>
</svg>
