<svg width="564" height="736" viewBox="0 0 564 736" fill="none" xmlns="http://www.w3.org/2000/svg">
<path opacity="0.06" d="M312.696 528.744C282.424 528.744 253.872 523.928 227.04 514.296C200.208 503.976 177.504 489.872 158.928 471.984C140.352 454.096 128.312 433.456 122.808 410.064V129.36C128.312 105.968 140.352 84.6401 158.928 65.3761C177.504 45.4241 200.208 29.6001 227.04 17.9041C253.872 6.2081 282.424 0.360107 312.696 0.360107C362.92 0.360107 406.608 11.7121 443.76 34.4161C481.6 56.4321 510.84 87.3921 531.48 127.296C552.808 167.2 563.472 212.952 563.472 264.552C563.472 316.152 552.808 361.904 531.48 401.808C510.84 441.024 481.6 471.984 443.76 494.688C406.608 517.392 362.92 528.744 312.696 528.744ZM274.512 351.24C291.024 351.24 305.816 347.456 318.888 339.888C331.96 332.32 341.936 322 348.816 308.928C356.384 295.856 360.168 281.064 360.168 264.552C360.168 247.352 356.384 232.56 348.816 220.176C341.936 207.104 331.96 196.784 318.888 189.216C306.504 181.648 292.056 177.864 275.544 177.864C259.032 177.864 244.24 181.648 231.168 189.216C218.784 196.096 208.808 206.072 201.24 219.144C194.36 232.216 190.92 247.352 190.92 264.552C190.92 281.064 194.36 295.856 201.24 308.928C208.12 322 217.752 332.32 230.136 339.888C243.208 347.456 258 351.24 274.512 351.24ZM0 735.144V10.6801H202.272V135.552L169.248 258.36L197.112 382.2V735.144H0Z" fill="#666666"/>
</svg>
