<svg width="146" height="134" viewBox="0 0 146 134" fill="none" xmlns="http://www.w3.org/2000/svg">
<g filter="url(#filter0_d_802_50)">
<line x1="37.0385" y1="64.4791" x2="26.0385" y2="-3.52093" stroke="#97722B" stroke-width="6"/>
</g>
<g filter="url(#filter1_d_802_50)">
<line x1="108.036" y1="63.5369" x2="118.036" y2="-0.463137" stroke="#97722B" stroke-width="6"/>
</g>
<g filter="url(#filter2_d_802_50)">
<path d="M51.7015 35L62.0921 43.5577H83.3454H99.8757L119.24 51.4022L129.401 43.5577L135.079 56.109L132.936 86.3462L140 105.744L132.936 117.724H112.155L91.9266 124L68.2319 112.732L38.4773 117.724H16.7517L6 102.321L9.40678 80.0705L6 58.9615L14.7062 43.5577H21.9469H38.4773L51.7015 35Z" fill="#97722B"/>
</g>
<path d="M63.05 78.05C62.95 80.75 62.45 83.1 61.55 85.1C60.6833 87.0667 59.5333 88.7167 58.1 90.05C56.7 91.35 55.1 92.35 53.3 93.05C51.5 93.75 49.6167 94.1833 47.65 94.35C45.9167 94.5167 44.05 94.6 42.05 94.6C40.0833 94.6 38.2833 94.55 36.65 94.45L36.3 89.6L39.8 89.5L39.45 65.45L36.3 65.55L36 60.2C36.8333 60.1 37.7833 60.0333 38.85 60C39.95 59.9667 41.0667 59.9667 42.2 60C43.3667 60 44.5 60.0333 45.6 60.1C46.7 60.1333 47.7 60.2 48.6 60.3C51 60.5 53.1167 61.0833 54.95 62.05C56.7833 62.9833 58.3167 64.2333 59.55 65.8C60.7833 67.3333 61.7 69.1333 62.3 71.2C62.9 73.2667 63.15 75.55 63.05 78.05ZM57 76C56.9333 74.6 56.6333 73.2667 56.1 72C55.6 70.7 54.8833 69.5667 53.95 68.6C53.05 67.6333 51.9333 66.8667 50.6 66.3C49.3 65.7333 47.8167 65.4667 46.15 65.5L46.35 89.1C48.0833 89.0667 49.6333 88.7 51 88C52.3667 87.2667 53.5 86.3 54.4 85.1C55.3333 83.9 56.0167 82.5167 56.45 80.95C56.9167 79.35 57.1 77.7 57 76ZM80.4516 89.65L80.4016 94.65L67.6516 94.55V90H71.2516L70.9016 64.1L67.7016 64.25L67.6016 59.45H80.3516L80.2516 64.25L76.6516 64.35L76.6016 89.55L80.4516 89.65ZM111.945 63.5L109.395 63.65L100.945 79.95L101.095 90.6H104.695L104.845 94.4L91.6953 94.55L91.7453 89.95H95.2453L95.0953 80.85L87.3953 64.8H84.9453L85.0453 60.6L91.5453 60.5L98.4953 74.8L103.395 64.45H100.045L99.9453 60.05L111.795 59.85L111.945 63.5Z" fill="#E8BF32"/>
<defs>
<filter id="filter0_d_802_50" x="17.0771" y="-6" width="28.9229" height="80.959" filterUnits="userSpaceOnUse" color-interpolation-filters="sRGB">
<feFlood flood-opacity="0" result="BackgroundImageFix"/>
<feColorMatrix in="SourceAlpha" type="matrix" values="0 0 0 0 0 0 0 0 0 0 0 0 0 0 0 0 0 0 127 0" result="hardAlpha"/>
<feOffset dy="4"/>
<feGaussianBlur stdDeviation="3"/>
<feComposite in2="hardAlpha" operator="out"/>
<feColorMatrix type="matrix" values="0 0 0 0 0 0 0 0 0 0 0 0 0 0 0 0 0 0 0.25 0"/>
<feBlend mode="normal" in2="BackgroundImageFix" result="effect1_dropShadow_802_50"/>
<feBlend mode="normal" in="SourceGraphic" in2="effect1_dropShadow_802_50" result="shape"/>
</filter>
<filter id="filter1_d_802_50" x="99.0723" y="-2.92578" width="27.9277" height="76.9258" filterUnits="userSpaceOnUse" color-interpolation-filters="sRGB">
<feFlood flood-opacity="0" result="BackgroundImageFix"/>
<feColorMatrix in="SourceAlpha" type="matrix" values="0 0 0 0 0 0 0 0 0 0 0 0 0 0 0 0 0 0 127 0" result="hardAlpha"/>
<feOffset dy="4"/>
<feGaussianBlur stdDeviation="3"/>
<feComposite in2="hardAlpha" operator="out"/>
<feColorMatrix type="matrix" values="0 0 0 0 0 0 0 0 0 0 0 0 0 0 0 0 0 0 0.25 0"/>
<feBlend mode="normal" in2="BackgroundImageFix" result="effect1_dropShadow_802_50"/>
<feBlend mode="normal" in="SourceGraphic" in2="effect1_dropShadow_802_50" result="shape"/>
</filter>
<filter id="filter2_d_802_50" x="0" y="33" width="146" height="101" filterUnits="userSpaceOnUse" color-interpolation-filters="sRGB">
<feFlood flood-opacity="0" result="BackgroundImageFix"/>
<feColorMatrix in="SourceAlpha" type="matrix" values="0 0 0 0 0 0 0 0 0 0 0 0 0 0 0 0 0 0 127 0" result="hardAlpha"/>
<feOffset dy="4"/>
<feGaussianBlur stdDeviation="3"/>
<feComposite in2="hardAlpha" operator="out"/>
<feColorMatrix type="matrix" values="0 0 0 0 0 0 0 0 0 0 0 0 0 0 0 0 0 0 0.25 0"/>
<feBlend mode="normal" in2="BackgroundImageFix" result="effect1_dropShadow_802_50"/>
<feBlend mode="normal" in="SourceGraphic" in2="effect1_dropShadow_802_50" result="shape"/>
</filter>
</defs>
</svg>
