<svg width="231" height="134" viewBox="0 0 231 134" fill="none" xmlns="http://www.w3.org/2000/svg">
<g filter="url(#filter0_d_802_51)">
<line x1="42.0385" y1="64.4791" x2="31.0385" y2="-3.52093" stroke="#97722B" stroke-width="6"/>
</g>
<g filter="url(#filter1_d_802_51)">
<line x1="175.036" y1="63.5369" x2="185.036" y2="-0.463137" stroke="#97722B" stroke-width="6"/>
</g>
<g filter="url(#filter2_d_802_51)">
<path d="M80.6913 35L97.6728 43.5577H132.408H159.424L191.071 51.4022L207.678 43.5577L216.958 56.109L213.456 86.3462L225 105.744L213.456 117.724H179.493L146.432 124L107.707 112.732L59.0785 117.724H23.5718L6 102.321L11.5678 80.0705L6 58.9615L20.2288 43.5577H32.0625H59.0785L80.6913 35Z" fill="#97722B"/>
</g>
<path d="M60.55 68.75L56.75 68.95L56.45 65L44.55 65.2L44.8 75.9L50.45 75.7L50.4 69.85H54.85L55.25 82.8L50.4 83L50.2 80.1L44.85 80.3L44.8 89.8L51.2 89.7L51.15 94.9L36.15 94.7L36 90.3L39.15 90.1L38.75 65.35L36.3 65.25L36.15 60.4L60.45 60.15L60.55 68.75ZM76.9125 89.65L76.8625 94.65L64.1125 94.55V90H67.7125L67.3625 64.1L64.1625 64.25L64.0625 59.45H76.8125L76.7125 64.25L73.1125 64.35L73.0625 89.55L76.9125 89.65ZM95.3563 78L91.3563 78.2C91.3229 77.2 91.0563 76.4667 90.5563 76C90.0896 75.5 89.4396 75.2333 88.6063 75.2C87.8729 75.2 87.1563 75.4167 86.4563 75.85C85.7896 76.2833 85.4729 76.9667 85.5063 77.9C85.5396 78.8 86.0396 79.5833 87.0063 80.25C87.9729 80.9167 89.0229 81.6167 90.1563 82.35C91.2896 83.0833 92.3063 83.95 93.2063 84.95C94.1396 85.9167 94.5729 87.1833 94.5063 88.75C94.4396 90.3833 93.9229 91.7833 92.9563 92.95C91.9896 94.1167 90.3563 94.7167 88.0563 94.75C86.9229 94.75 85.8396 94.55 84.8063 94.15C83.7729 93.7833 82.9229 93.2333 82.2563 92.5C81.5896 91.7333 81.1563 90.8 80.9563 89.7C80.7563 88.6 80.9063 87.35 81.4063 85.95L85.6562 87.55C85.3229 88.4167 85.3229 89.1167 85.6562 89.65C86.0229 90.15 86.4729 90.45 87.0063 90.55C87.5396 90.65 88.0563 90.55 88.5563 90.25C89.0896 89.9167 89.3729 89.35 89.4063 88.55C89.4063 87.75 88.9563 87.05 88.0563 86.45C87.1896 85.8167 86.2063 85.1333 85.1063 84.4C84.0063 83.6667 82.9729 82.8167 82.0063 81.85C81.0729 80.8833 80.5563 79.65 80.4563 78.15C80.2896 76.3167 80.5896 74.8333 81.3563 73.7C82.1563 72.5667 83.1229 71.75 84.2563 71.25C85.4229 70.75 86.6229 70.5667 87.8563 70.7C89.1229 70.8 90.1729 71.1833 91.0063 71.85V69.75L95.0563 69.6L95.3563 78ZM123.25 93.65L115.45 93.8C115.516 91.4667 115.583 89.3167 115.65 87.35C115.716 85.3833 115.683 83.6667 115.55 82.2C115.45 80.7333 115.2 79.5667 114.8 78.7C114.433 77.8333 113.833 77.3333 113 77.2C112.366 77.1 111.75 77.1667 111.15 77.4C110.583 77.6 110.05 77.9 109.55 78.3C109.083 78.7 108.666 79.1667 108.3 79.7C107.933 80.2333 107.616 80.7667 107.35 81.3L107.2 90.2L110.15 90.1V94.7L99.0996 94.5L98.8496 90.2H101.6L101.85 64.4L99.2996 64.45V59.7L107.65 59.65L107.55 73.7C108.283 72.9 109.3 72.25 110.6 71.75C111.9 71.25 113.383 71.1833 115.05 71.55C116.65 71.8833 117.883 72.5833 118.75 73.65C119.616 74.7167 120.233 76.0333 120.6 77.6C121 79.1667 121.216 80.9333 121.25 82.9C121.316 84.8333 121.333 86.85 121.3 88.95L123.25 89V93.65ZM135.966 66.85C136.032 67.8833 135.716 68.7667 135.016 69.5C134.349 70.2 133.499 70.55 132.466 70.55C131.432 70.55 130.499 70.2667 129.666 69.7C128.866 69.1333 128.466 68.2667 128.466 67.1C128.466 66.0667 128.782 65.1667 129.416 64.4C130.082 63.6 130.932 63.2 131.966 63.2C132.999 63.2 133.916 63.5167 134.716 64.15C135.516 64.7833 135.932 65.6833 135.966 66.85ZM139.116 93.95H127.666L127.516 89.45L130.966 89.3L131.116 77.7L126.816 77.5L126.766 72.8L136.216 72.55L136.266 89.1L139.116 89.2V93.95ZM166.871 94.45L158.921 94.4C159.021 89.1667 159.071 85.4 159.071 83.1C159.071 80.7667 159.071 79.6 159.071 79.6C159.071 78.8 158.788 78.1333 158.221 77.6C157.654 77.0667 156.954 76.75 156.121 76.65C155.321 76.55 154.488 76.7 153.621 77.1C152.754 77.4667 152.054 78.15 151.521 79.15L151.271 93.9L143.121 93.95V90.35L145.921 90.25L146.021 74L142.721 74.15L142.621 70.5L151.421 70.35V73.7C152.188 72.8333 153.088 72.25 154.121 71.95C155.188 71.65 156.138 71.4833 156.971 71.45C158.204 71.3833 159.288 71.5667 160.221 72C161.154 72.4333 161.938 73 162.571 73.7C163.204 74.4 163.688 75.1833 164.021 76.05C164.354 76.8833 164.521 77.6833 164.521 78.45C164.521 78.45 164.521 79.4667 164.521 81.5C164.521 83.5 164.504 86.2667 164.471 89.8L166.871 89.65V94.45ZM194.741 76.35L192.341 76.6L191.741 98.9C191.707 100.567 191.424 102 190.891 103.2C190.357 104.4 189.674 105.367 188.841 106.1C188.007 106.867 187.041 107.433 185.941 107.8C184.874 108.167 183.741 108.367 182.541 108.4C181.641 108.433 180.741 108.3 179.841 108C178.941 107.7 178.107 107.267 177.341 106.7C176.607 106.167 175.991 105.483 175.491 104.65C175.024 103.85 174.774 102.933 174.741 101.9C174.674 100.233 175.091 98.7333 175.991 97.4C176.891 96.0667 178.241 95.3667 180.041 95.3C181.207 95.2333 182.241 95.55 183.141 96.25C184.041 96.95 184.691 97.9167 185.091 99.15L181.441 100.95C181.041 100.483 180.691 100.35 180.391 100.55C180.091 100.783 179.941 101.117 179.941 101.55C179.941 101.883 180.124 102.233 180.491 102.6C180.857 103 181.641 103.167 182.841 103.1C183.707 103.033 184.474 102.6 185.141 101.8C185.841 101.033 186.207 100.017 186.241 98.75L186.341 92.25C185.507 92.8833 184.674 93.3167 183.841 93.55C183.007 93.7833 181.824 93.8833 180.291 93.85C178.924 93.8167 177.624 93.5 176.391 92.9C175.191 92.3 174.141 91.5167 173.241 90.55C172.341 89.5833 171.624 88.45 171.091 87.15C170.591 85.85 170.357 84.4667 170.391 83C170.424 81.5333 170.707 80.1667 171.241 78.9C171.774 77.6333 172.474 76.55 173.341 75.65C174.241 74.75 175.291 74.05 176.491 73.55C177.691 73.0167 178.974 72.7667 180.341 72.8C182.741 72.8667 184.757 73.4667 186.391 74.6L186.591 71.55L194.741 71.7V76.35ZM186.091 80C185.624 79.3333 184.974 78.7667 184.141 78.3C183.341 77.8333 182.374 77.6167 181.241 77.65C179.474 77.7167 178.174 78.3333 177.341 79.5C176.507 80.6333 176.074 81.9833 176.041 83.55C176.007 84.9833 176.524 86.2333 177.591 87.3C178.691 88.3333 180.041 88.8667 181.641 88.9C182.474 88.9 183.291 88.7167 184.091 88.35C184.891 87.9833 185.524 87.4 185.991 86.6L186.091 80Z" fill="#E8BF32"/>
<defs>
<filter id="filter0_d_802_51" x="22.0771" y="-6" width="28.9229" height="80.959" filterUnits="userSpaceOnUse" color-interpolation-filters="sRGB">
<feFlood flood-opacity="0" result="BackgroundImageFix"/>
<feColorMatrix in="SourceAlpha" type="matrix" values="0 0 0 0 0 0 0 0 0 0 0 0 0 0 0 0 0 0 127 0" result="hardAlpha"/>
<feOffset dy="4"/>
<feGaussianBlur stdDeviation="3"/>
<feComposite in2="hardAlpha" operator="out"/>
<feColorMatrix type="matrix" values="0 0 0 0 0 0 0 0 0 0 0 0 0 0 0 0 0 0 0.25 0"/>
<feBlend mode="normal" in2="BackgroundImageFix" result="effect1_dropShadow_802_51"/>
<feBlend mode="normal" in="SourceGraphic" in2="effect1_dropShadow_802_51" result="shape"/>
</filter>
<filter id="filter1_d_802_51" x="166.072" y="-2.92578" width="27.9277" height="76.9258" filterUnits="userSpaceOnUse" color-interpolation-filters="sRGB">
<feFlood flood-opacity="0" result="BackgroundImageFix"/>
<feColorMatrix in="SourceAlpha" type="matrix" values="0 0 0 0 0 0 0 0 0 0 0 0 0 0 0 0 0 0 127 0" result="hardAlpha"/>
<feOffset dy="4"/>
<feGaussianBlur stdDeviation="3"/>
<feComposite in2="hardAlpha" operator="out"/>
<feColorMatrix type="matrix" values="0 0 0 0 0 0 0 0 0 0 0 0 0 0 0 0 0 0 0.25 0"/>
<feBlend mode="normal" in2="BackgroundImageFix" result="effect1_dropShadow_802_51"/>
<feBlend mode="normal" in="SourceGraphic" in2="effect1_dropShadow_802_51" result="shape"/>
</filter>
<filter id="filter2_d_802_51" x="0" y="33" width="231" height="101" filterUnits="userSpaceOnUse" color-interpolation-filters="sRGB">
<feFlood flood-opacity="0" result="BackgroundImageFix"/>
<feColorMatrix in="SourceAlpha" type="matrix" values="0 0 0 0 0 0 0 0 0 0 0 0 0 0 0 0 0 0 127 0" result="hardAlpha"/>
<feOffset dy="4"/>
<feGaussianBlur stdDeviation="3"/>
<feComposite in2="hardAlpha" operator="out"/>
<feColorMatrix type="matrix" values="0 0 0 0 0 0 0 0 0 0 0 0 0 0 0 0 0 0 0.25 0"/>
<feBlend mode="normal" in2="BackgroundImageFix" result="effect1_dropShadow_802_51"/>
<feBlend mode="normal" in="SourceGraphic" in2="effect1_dropShadow_802_51" result="shape"/>
</filter>
</defs>
</svg>
