<svg width="191" height="128" viewBox="0 0 191 128" fill="none" xmlns="http://www.w3.org/2000/svg">
<g filter="url(#filter0_d_783_56)">
<line x1="41.0385" y1="64.4791" x2="30.0385" y2="-3.52093" stroke="#97722B" stroke-width="6"/>
</g>
<g filter="url(#filter1_d_783_56)">
<line x1="139.036" y1="63.5369" x2="149.036" y2="-0.463137" stroke="#97722B" stroke-width="6"/>
</g>
<g filter="url(#filter2_d_783_56)">
<path d="M67.0491 38L80.9289 45.6923H109.32H131.401L157.268 52.7436L170.842 45.6923L178.427 56.9744L175.564 84.1539L185 101.59L175.564 112.359H147.805L120.782 118L89.1307 107.872L49.3838 112.359H20.3623L6 98.5128L10.5508 78.5128L6 59.5385L17.6299 45.6923H27.3022H49.3838L67.0491 38Z" fill="#97722B"/>
</g>
<path d="M63.35 90.2L63.3 94.7L54.25 94.8L54.4 81.15L44.2 81.1L44.25 88.75L47.8 88.8L47.9 93.9L35 94V88.95L37.9 88.9L38.1 64.85H35.55L35.5 60.05L47.45 59.95V64.3L43.95 64.4L43.9 75.9L54.45 75.75L54.55 63.35H51.2L51.1 58.9L62.75 58.95L62.85 63.85H60.7L60.6 90.25L63.35 90.2ZM89.0711 83.1C89.0378 84.6667 88.7711 86.15 88.2711 87.55C87.7711 88.9167 87.0711 90.1167 86.1711 91.15C85.2711 92.15 84.1878 92.9667 82.9211 93.6C81.6544 94.2333 80.2211 94.5833 78.6211 94.65C77.0878 94.7167 75.6378 94.5333 74.2711 94.1C72.9378 93.6667 71.7544 93.0167 70.7211 92.15C69.6878 91.2833 68.8378 90.2167 68.1711 88.95C67.5044 87.6833 67.0878 86.2667 66.9211 84.7C66.7544 82.8667 66.9211 81.2 67.4211 79.7C67.9544 78.1667 68.7211 76.85 69.7211 75.75C70.7544 74.6167 71.9711 73.7333 73.3711 73.1C74.8044 72.4333 76.3378 72.0667 77.9711 72C79.5044 71.9333 80.9544 72.2 82.3211 72.8C83.6878 73.4 84.8711 74.2167 85.8711 75.25C86.8711 76.2833 87.6544 77.4833 88.2211 78.85C88.8211 80.2167 89.1044 81.6333 89.0711 83.1ZM83.9211 83.35C83.9211 82.55 83.7544 81.7667 83.4211 81C83.0878 80.2 82.6378 79.5 82.0711 78.9C81.5378 78.2667 80.9044 77.7667 80.1711 77.4C79.4711 77.0333 78.7211 76.85 77.9211 76.85C77.1211 76.8833 76.3544 77.1167 75.6211 77.55C74.9211 77.95 74.2878 78.5 73.7211 79.2C73.1878 79.8667 72.7711 80.65 72.4711 81.55C72.2044 82.4167 72.1044 83.3167 72.1711 84.25C72.3044 86.0167 72.9544 87.3833 74.1211 88.35C75.2878 89.3167 76.6711 89.8 78.2711 89.8C79.0711 89.8 79.8044 89.6167 80.4711 89.25C81.1711 88.8833 81.7711 88.4 82.2711 87.8C82.7711 87.2 83.1711 86.5167 83.4711 85.75C83.7711 84.95 83.9211 84.15 83.9211 83.35ZM116.14 91.7L116.04 95.5H109.19L109.34 92.15C108.773 92.7833 108.123 93.3167 107.39 93.75C106.657 94.1833 105.49 94.4 103.89 94.4C103.023 94.4 102.123 94.25 101.19 93.95C100.29 93.65 99.4398 93.2 98.6398 92.6C97.8732 91.9667 97.2065 91.2 96.6398 90.3C96.1065 89.3667 95.7732 88.2833 95.6398 87.05C95.6398 87.05 95.5565 85.9833 95.3898 83.85C95.2565 81.6833 95.2898 78.8667 95.4898 75.4H92.7398L92.5898 72.2L100.74 72.25C100.673 75.0833 100.623 77.4167 100.59 79.25C100.59 81.05 100.59 82.4833 100.59 83.55C100.623 84.5833 100.64 85.3167 100.64 85.75C100.673 86.15 100.69 86.35 100.69 86.35C100.69 87.5167 101.14 88.45 102.04 89.15C102.94 89.85 103.84 90.1833 104.74 90.15C106.64 90.05 107.94 89.1167 108.64 87.35L108.89 74.75H106.24L106.14 70.65L114.44 70.9L113.89 91.65L116.14 91.7ZM134.577 78L130.577 78.2C130.544 77.2 130.277 76.4667 129.777 76C129.31 75.5 128.66 75.2333 127.827 75.2C127.094 75.2 126.377 75.4167 125.677 75.85C125.01 76.2833 124.694 76.9667 124.727 77.9C124.76 78.8 125.26 79.5833 126.227 80.25C127.194 80.9167 128.244 81.6167 129.377 82.35C130.51 83.0833 131.527 83.95 132.427 84.95C133.36 85.9167 133.794 87.1833 133.727 88.75C133.66 90.3833 133.144 91.7833 132.177 92.95C131.21 94.1167 129.577 94.7167 127.277 94.75C126.144 94.75 125.06 94.55 124.027 94.15C122.994 93.7833 122.144 93.2333 121.477 92.5C120.81 91.7333 120.377 90.8 120.177 89.7C119.977 88.6 120.127 87.35 120.627 85.95L124.877 87.55C124.544 88.4167 124.544 89.1167 124.877 89.65C125.244 90.15 125.694 90.45 126.227 90.55C126.76 90.65 127.277 90.55 127.777 90.25C128.31 89.9167 128.594 89.35 128.627 88.55C128.627 87.75 128.177 87.05 127.277 86.45C126.41 85.8167 125.427 85.1333 124.327 84.4C123.227 83.6667 122.194 82.8167 121.227 81.85C120.294 80.8833 119.777 79.65 119.677 78.15C119.51 76.3167 119.81 74.8333 120.577 73.7C121.377 72.5667 122.344 71.75 123.477 71.25C124.644 70.75 125.844 70.5667 127.077 70.7C128.344 70.8 129.394 71.1833 130.227 71.85V69.75L134.277 69.6L134.577 78ZM158.37 85.25L143.62 85.7C143.62 86.3 143.77 86.85 144.07 87.35C144.404 87.85 144.804 88.3 145.27 88.7C145.77 89.0667 146.32 89.3667 146.92 89.6C147.52 89.8 148.12 89.9167 148.72 89.95C149.587 89.9833 150.454 89.85 151.32 89.55C152.22 89.25 152.937 88.8167 153.47 88.25L156.32 91.9C155.287 93.0333 154.137 93.8 152.87 94.2C151.604 94.6333 150.237 94.8333 148.77 94.8C147.337 94.7667 145.954 94.4833 144.62 93.95C143.287 93.4167 142.12 92.65 141.12 91.65C140.12 90.6167 139.337 89.35 138.77 87.85C138.237 86.35 138.02 84.6 138.12 82.6C138.22 80.8 138.62 79.25 139.32 77.95C140.02 76.6167 140.87 75.5333 141.87 74.7C142.904 73.8667 144.02 73.25 145.22 72.85C146.42 72.45 147.57 72.25 148.67 72.25C149.57 72.25 150.604 72.4333 151.77 72.8C152.97 73.1333 154.07 73.7833 155.07 74.75C156.104 75.6833 156.954 77 157.62 78.7C158.287 80.4 158.537 82.5833 158.37 85.25ZM153.12 80.9C152.954 79.6333 152.404 78.6667 151.47 78C150.57 77.3333 149.62 77.0167 148.62 77.05C147.587 77.0833 146.57 77.4667 145.57 78.2C144.604 78.9333 144.037 79.95 143.87 81.25L153.12 80.9Z" fill="#E8BF32"/>
<defs>
<filter id="filter0_d_783_56" x="21.0771" y="-6" width="28.9229" height="80.958" filterUnits="userSpaceOnUse" color-interpolation-filters="sRGB">
<feFlood flood-opacity="0" result="BackgroundImageFix"/>
<feColorMatrix in="SourceAlpha" type="matrix" values="0 0 0 0 0 0 0 0 0 0 0 0 0 0 0 0 0 0 127 0" result="hardAlpha"/>
<feOffset dy="4"/>
<feGaussianBlur stdDeviation="3"/>
<feComposite in2="hardAlpha" operator="out"/>
<feColorMatrix type="matrix" values="0 0 0 0 0 0 0 0 0 0 0 0 0 0 0 0 0 0 0.25 0"/>
<feBlend mode="normal" in2="BackgroundImageFix" result="effect1_dropShadow_783_56"/>
<feBlend mode="normal" in="SourceGraphic" in2="effect1_dropShadow_783_56" result="shape"/>
</filter>
<filter id="filter1_d_783_56" x="130.072" y="-2.92578" width="27.9282" height="76.9258" filterUnits="userSpaceOnUse" color-interpolation-filters="sRGB">
<feFlood flood-opacity="0" result="BackgroundImageFix"/>
<feColorMatrix in="SourceAlpha" type="matrix" values="0 0 0 0 0 0 0 0 0 0 0 0 0 0 0 0 0 0 127 0" result="hardAlpha"/>
<feOffset dy="4"/>
<feGaussianBlur stdDeviation="3"/>
<feComposite in2="hardAlpha" operator="out"/>
<feColorMatrix type="matrix" values="0 0 0 0 0 0 0 0 0 0 0 0 0 0 0 0 0 0 0.25 0"/>
<feBlend mode="normal" in2="BackgroundImageFix" result="effect1_dropShadow_783_56"/>
<feBlend mode="normal" in="SourceGraphic" in2="effect1_dropShadow_783_56" result="shape"/>
</filter>
<filter id="filter2_d_783_56" x="0" y="36" width="191" height="92" filterUnits="userSpaceOnUse" color-interpolation-filters="sRGB">
<feFlood flood-opacity="0" result="BackgroundImageFix"/>
<feColorMatrix in="SourceAlpha" type="matrix" values="0 0 0 0 0 0 0 0 0 0 0 0 0 0 0 0 0 0 127 0" result="hardAlpha"/>
<feOffset dy="4"/>
<feGaussianBlur stdDeviation="3"/>
<feComposite in2="hardAlpha" operator="out"/>
<feColorMatrix type="matrix" values="0 0 0 0 0 0 0 0 0 0 0 0 0 0 0 0 0 0 0.25 0"/>
<feBlend mode="normal" in2="BackgroundImageFix" result="effect1_dropShadow_783_56"/>
<feBlend mode="normal" in="SourceGraphic" in2="effect1_dropShadow_783_56" result="shape"/>
</filter>
</defs>
</svg>
