<svg width="914" height="137" viewBox="0 0 914 137" fill="none" xmlns="http://www.w3.org/2000/svg">
<mask id="mask0_798_12" style="mask-type:alpha" maskUnits="userSpaceOnUse" x="0" y="0" width="915" height="137">
<path d="M88.5719 0L0 137H35.4388L50.0741 113.038H101.128L103.207 137H139.416L122.071 0H88.5719ZM66.8288 85.5938L94.7699 39.864L98.7387 85.5938H66.8288Z" fill="#D42D26"/>
<path d="M253.21 77.8824L211.723 0H187.521L152.192 137H186.851L206.475 60.8933L246.872 137H272.624L307.952 0H273.293L253.21 77.8824Z" fill="#D42D26"/>
<path d="M563.221 29.7583L570.899 0H452.786H452.207H413.869L375.731 46.498L361.585 0H321.898L349.389 81.1046L334.974 137H369.633L384.448 79.5384L451.957 0.967669L444.529 29.7583H486.546L458.894 137H493.553L521.205 29.7583H563.221Z" fill="#D42D26"/>
<path d="M586.574 0L551.245 137H585.914L621.233 0H586.574Z" fill="#D42D26"/>
<path d="M763.938 0L699.178 70.4902L670.608 0H645.635L610.307 137H644.766L662.84 66.9188L678.685 106.074H701.148L737.406 66.8689L719.322 137H753.591L788.92 0H763.938Z" fill="#D42D26"/>
<path d="M840.814 0H813.312L777.983 137H805.485H812.642H879.831L887.359 107.82H820.17L826.998 81.3441H887.219L894.536 52.9425H834.326L840.454 29.1797H906.473L914 0H847.971H840.814Z" fill="#D42D26"/>
</mask>
<g mask="url(#mask0_798_12)">
<rect x="-17.9941" y="-9.97607" width="1269.6" height="130.685" fill="#D42D26"/>
</g>
</svg>
