<svg width="454" height="58" viewBox="0 0 454 58" fill="none" xmlns="http://www.w3.org/2000/svg">
<path d="M26.8721 39V18.18H28.8521L29.6921 21.45V39H26.8721ZM41.2721 39L28.4921 21.93L28.8521 18.18L41.6621 35.22L41.2721 39ZM41.2721 39L40.4321 35.91V18.18H43.2521V39H41.2721ZM54.2009 39.3C52.8009 39.3 51.5409 38.97 50.4209 38.31C49.3009 37.65 48.4109 36.76 47.7509 35.64C47.0909 34.5 46.7609 33.23 46.7609 31.83C46.7609 30.45 47.0909 29.21 47.7509 28.11C48.4109 26.99 49.3009 26.1 50.4209 25.44C51.5409 24.78 52.8009 24.45 54.2009 24.45C55.5809 24.45 56.8309 24.78 57.9509 25.44C59.0909 26.08 59.9909 26.96 60.6509 28.08C61.3109 29.2 61.6409 30.45 61.6409 31.83C61.6409 33.23 61.3109 34.5 60.6509 35.64C59.9909 36.76 59.0909 37.65 57.9509 38.31C56.8309 38.97 55.5809 39.3 54.2009 39.3ZM54.2009 36.69C55.1009 36.69 55.9009 36.48 56.6009 36.06C57.3009 35.64 57.8509 35.07 58.2509 34.35C58.6509 33.61 58.8509 32.77 58.8509 31.83C58.8509 30.91 58.6409 30.09 58.2209 29.37C57.8209 28.65 57.2709 28.09 56.5709 27.69C55.8909 27.27 55.1009 27.06 54.2009 27.06C53.3009 27.06 52.5009 27.27 51.8009 27.69C51.1009 28.09 50.5509 28.65 50.1509 29.37C49.7509 30.09 49.5509 30.91 49.5509 31.83C49.5509 32.77 49.7509 33.61 50.1509 34.35C50.5509 35.07 51.1009 35.64 51.8009 36.06C52.5009 36.48 53.3009 36.69 54.2009 36.69ZM68.353 39L62.713 24.75H65.533L69.613 35.85H68.713L72.763 24.75H74.323L78.373 35.85H77.473L81.553 24.75H84.373L78.763 39H77.173L73.063 28.23H74.053L69.913 39H68.353ZM99.2436 30.54L91.0536 18.18H94.3236L100.924 28.29H99.4536L106.084 18.18H109.294L101.044 30.54H99.2436ZM98.7636 39V28.68H101.584V39H98.7636ZM114.201 39.3C112.801 39.3 111.541 38.97 110.421 38.31C109.301 37.65 108.411 36.76 107.751 35.64C107.091 34.5 106.761 33.23 106.761 31.83C106.761 30.45 107.091 29.21 107.751 28.11C108.411 26.99 109.301 26.1 110.421 25.44C111.541 24.78 112.801 24.45 114.201 24.45C115.581 24.45 116.831 24.78 117.951 25.44C119.091 26.08 119.991 26.96 120.651 28.08C121.311 29.2 121.641 30.45 121.641 31.83C121.641 33.23 121.311 34.5 120.651 35.64C119.991 36.76 119.091 37.65 117.951 38.31C116.831 38.97 115.581 39.3 114.201 39.3ZM114.201 36.69C115.101 36.69 115.901 36.48 116.601 36.06C117.301 35.64 117.851 35.07 118.251 34.35C118.651 33.61 118.851 32.77 118.851 31.83C118.851 30.91 118.641 30.09 118.221 29.37C117.821 28.65 117.271 28.09 116.571 27.69C115.891 27.27 115.101 27.06 114.201 27.06C113.301 27.06 112.501 27.27 111.801 27.69C111.101 28.09 110.551 28.65 110.151 29.37C109.751 30.09 109.551 30.91 109.551 31.83C109.551 32.77 109.751 33.61 110.151 34.35C110.551 35.07 111.101 35.64 111.801 36.06C112.501 36.48 113.301 36.69 114.201 36.69ZM130.413 39.3C129.253 39.3 128.203 39.04 127.263 38.52C126.343 37.98 125.623 37.24 125.103 36.3C124.583 35.36 124.323 34.27 124.323 33.03V24.75H127.023V32.91C127.023 33.69 127.153 34.37 127.413 34.95C127.693 35.51 128.093 35.94 128.613 36.24C129.133 36.54 129.743 36.69 130.443 36.69C131.503 36.69 132.333 36.36 132.933 35.7C133.533 35.02 133.833 34.09 133.833 32.91V24.75H136.533V33.03C136.533 34.27 136.273 35.36 135.753 36.3C135.233 37.24 134.513 37.98 133.593 38.52C132.693 39.04 131.633 39.3 130.413 39.3ZM140.462 24.9L139.832 17.58H142.802L142.172 24.9H140.462ZM146.216 39V24.75H148.916V39H146.216ZM148.916 30.87L147.896 30.42C147.896 28.6 148.316 27.15 149.156 26.07C149.996 24.99 151.206 24.45 152.786 24.45C153.506 24.45 154.156 24.58 154.736 24.84C155.316 25.08 155.856 25.49 156.356 26.07L154.586 27.9C154.286 27.58 153.956 27.35 153.596 27.21C153.236 27.07 152.816 27 152.336 27C151.336 27 150.516 27.32 149.876 27.96C149.236 28.6 148.916 29.57 148.916 30.87ZM164.389 39.3C162.969 39.3 161.689 38.98 160.549 38.34C159.409 37.68 158.509 36.79 157.849 35.67C157.189 34.55 156.859 33.28 156.859 31.86C156.859 30.46 157.179 29.2 157.819 28.08C158.479 26.96 159.359 26.08 160.459 25.44C161.579 24.78 162.829 24.45 164.209 24.45C165.529 24.45 166.689 24.75 167.689 25.35C168.709 25.95 169.499 26.78 170.059 27.84C170.639 28.9 170.929 30.1 170.929 31.44C170.929 31.64 170.919 31.86 170.899 32.1C170.879 32.32 170.839 32.58 170.779 32.88H158.749V30.63H169.339L168.349 31.5C168.349 30.54 168.179 29.73 167.839 29.07C167.499 28.39 167.019 27.87 166.399 27.51C165.779 27.13 165.029 26.94 164.149 26.94C163.229 26.94 162.419 27.14 161.719 27.54C161.019 27.94 160.479 28.5 160.099 29.22C159.719 29.94 159.529 30.79 159.529 31.77C159.529 32.77 159.729 33.65 160.129 34.41C160.529 35.15 161.099 35.73 161.839 36.15C162.579 36.55 163.429 36.75 164.389 36.75C165.189 36.75 165.919 36.61 166.579 36.33C167.259 36.05 167.839 35.63 168.319 35.07L170.059 36.84C169.379 37.64 168.539 38.25 167.539 38.67C166.559 39.09 165.509 39.3 164.389 39.3ZM182.483 30.9V28.44H188.153C188.933 28.44 189.623 28.28 190.223 27.96C190.843 27.64 191.323 27.19 191.663 26.61C192.023 26.03 192.203 25.34 192.203 24.54C192.203 23.74 192.023 23.05 191.663 22.47C191.323 21.89 190.843 21.44 190.223 21.12C189.623 20.8 188.933 20.64 188.153 20.64H182.483V18.18H188.333C189.613 18.18 190.753 18.44 191.753 18.96C192.773 19.48 193.573 20.22 194.153 21.18C194.753 22.12 195.053 23.24 195.053 24.54C195.053 25.82 194.753 26.94 194.153 27.9C193.573 28.84 192.773 29.58 191.753 30.12C190.753 30.64 189.613 30.9 188.333 30.9H182.483ZM180.593 39V18.18H183.413V39H180.593ZM198.306 39V17.58H201.006V39H198.306ZM211.017 39.3C209.717 39.3 208.537 38.98 207.477 38.34C206.417 37.68 205.577 36.79 204.957 35.67C204.357 34.55 204.057 33.29 204.057 31.89C204.057 30.49 204.357 29.23 204.957 28.11C205.577 26.99 206.407 26.1 207.447 25.44C208.507 24.78 209.697 24.45 211.017 24.45C212.097 24.45 213.057 24.68 213.897 25.14C214.757 25.58 215.447 26.2 215.967 27C216.487 27.78 216.777 28.69 216.837 29.73V34.02C216.777 35.04 216.487 35.95 215.967 36.75C215.467 37.55 214.787 38.18 213.927 38.64C213.087 39.08 212.117 39.3 211.017 39.3ZM211.467 36.75C212.807 36.75 213.887 36.3 214.707 35.4C215.527 34.48 215.937 33.31 215.937 31.89C215.937 30.91 215.747 30.06 215.367 29.34C215.007 28.6 214.487 28.03 213.807 27.63C213.127 27.21 212.337 27 211.437 27C210.537 27 209.737 27.21 209.037 27.63C208.357 28.05 207.817 28.63 207.417 29.37C207.037 30.09 206.847 30.92 206.847 31.86C206.847 32.82 207.037 33.67 207.417 34.41C207.817 35.13 208.367 35.7 209.067 36.12C209.767 36.54 210.567 36.75 211.467 36.75ZM215.757 39V35.16L216.267 31.68L215.757 28.23V24.75H218.487V39H215.757ZM227.098 39.12L220.918 24.75H223.918L228.508 36H227.548L232.378 24.75H235.378L228.718 39.12H227.098ZM223.018 44.97L227.218 36.36L228.718 39.12L226.018 44.97H223.018ZM237.448 39V24.75H240.148V39H237.448ZM238.798 21.9C238.298 21.9 237.888 21.74 237.568 21.42C237.248 21.08 237.088 20.66 237.088 20.16C237.088 19.68 237.248 19.28 237.568 18.96C237.888 18.62 238.298 18.45 238.798 18.45C239.298 18.45 239.708 18.62 240.028 18.96C240.348 19.28 240.508 19.68 240.508 20.16C240.508 20.66 240.348 21.08 240.028 21.42C239.708 21.74 239.298 21.9 238.798 21.9ZM254.206 39V30.69C254.206 29.61 253.866 28.72 253.186 28.02C252.506 27.32 251.626 26.97 250.546 26.97C249.826 26.97 249.186 27.13 248.626 27.45C248.066 27.77 247.626 28.21 247.306 28.77C246.986 29.33 246.826 29.97 246.826 30.69L245.716 30.06C245.716 28.98 245.956 28.02 246.436 27.18C246.916 26.34 247.586 25.68 248.446 25.2C249.306 24.7 250.276 24.45 251.356 24.45C252.436 24.45 253.386 24.72 254.206 25.26C255.046 25.8 255.706 26.51 256.186 27.39C256.666 28.25 256.906 29.17 256.906 30.15V39H254.206ZM244.126 39V24.75H246.826V39H244.126ZM266.472 45.27C265.012 45.27 263.712 45 262.572 44.46C261.452 43.92 260.552 43.16 259.872 42.18L261.612 40.41C262.192 41.15 262.882 41.71 263.682 42.09C264.482 42.49 265.432 42.69 266.532 42.69C267.992 42.69 269.142 42.3 269.982 41.52C270.842 40.76 271.272 39.73 271.272 38.43V34.89L271.752 31.68L271.272 28.5V24.75H273.972V38.43C273.972 39.79 273.652 40.98 273.012 42C272.392 43.02 271.512 43.82 270.372 44.4C269.252 44.98 267.952 45.27 266.472 45.27ZM266.472 38.76C265.172 38.76 264.002 38.45 262.962 37.83C261.942 37.21 261.132 36.36 260.532 35.28C259.932 34.18 259.632 32.95 259.632 31.59C259.632 30.23 259.932 29.02 260.532 27.96C261.132 26.88 261.942 26.03 262.962 25.41C264.002 24.77 265.172 24.45 266.472 24.45C267.592 24.45 268.582 24.67 269.442 25.11C270.302 25.55 270.982 26.17 271.482 26.97C272.002 27.75 272.282 28.67 272.322 29.73V33.51C272.262 34.55 271.972 35.47 271.452 36.27C270.952 37.05 270.272 37.66 269.412 38.1C268.552 38.54 267.572 38.76 266.472 38.76ZM267.012 36.21C267.892 36.21 268.662 36.02 269.322 35.64C270.002 35.26 270.522 34.73 270.882 34.05C271.242 33.35 271.422 32.54 271.422 31.62C271.422 30.7 271.232 29.9 270.852 29.22C270.492 28.52 269.982 27.98 269.322 27.6C268.662 27.2 267.882 27 266.982 27C266.082 27 265.292 27.2 264.612 27.6C263.932 27.98 263.392 28.52 262.992 29.22C262.612 29.9 262.422 30.69 262.422 31.59C262.422 32.49 262.612 33.29 262.992 33.99C263.392 34.69 263.932 35.24 264.612 35.64C265.312 36.02 266.112 36.21 267.012 36.21ZM288.255 39L282.615 24.75H285.435L289.515 35.85H288.615L292.665 24.75H294.225L298.275 35.85H297.375L301.455 24.75H304.275L298.665 39H297.075L292.965 28.23H293.955L289.815 39H288.255ZM306.471 39V24.75H309.171V39H306.471ZM307.821 21.9C307.321 21.9 306.911 21.74 306.591 21.42C306.271 21.08 306.111 20.66 306.111 20.16C306.111 19.68 306.271 19.28 306.591 18.96C306.911 18.62 307.321 18.45 307.821 18.45C308.321 18.45 308.731 18.62 309.051 18.96C309.371 19.28 309.531 19.68 309.531 20.16C309.531 20.66 309.371 21.08 309.051 21.42C308.731 21.74 308.321 21.9 307.821 21.9ZM315.34 39V18.78H318.04V39H315.34ZM311.83 27.21V24.75H321.55V27.21H311.83ZM334.275 39V30.69C334.275 29.61 333.935 28.72 333.255 28.02C332.575 27.32 331.695 26.97 330.615 26.97C329.895 26.97 329.255 27.13 328.695 27.45C328.135 27.77 327.695 28.21 327.375 28.77C327.055 29.33 326.895 29.97 326.895 30.69L325.785 30.06C325.785 28.98 326.025 28.02 326.505 27.18C326.985 26.34 327.655 25.68 328.515 25.2C329.375 24.7 330.345 24.45 331.425 24.45C332.505 24.45 333.455 24.69 334.275 25.17C335.115 25.65 335.775 26.32 336.255 27.18C336.735 28.04 336.975 29.03 336.975 30.15V39H334.275ZM324.195 39V17.58H326.895V39H324.195ZM349.241 30.9V28.44H354.911C355.691 28.44 356.381 28.28 356.981 27.96C357.601 27.64 358.081 27.19 358.421 26.61C358.781 26.03 358.961 25.34 358.961 24.54C358.961 23.74 358.781 23.05 358.421 22.47C358.081 21.89 357.601 21.44 356.981 21.12C356.381 20.8 355.691 20.64 354.911 20.64H349.241V18.18H355.091C356.371 18.18 357.511 18.44 358.511 18.96C359.531 19.48 360.331 20.22 360.911 21.18C361.511 22.12 361.811 23.24 361.811 24.54C361.811 25.82 361.511 26.94 360.911 27.9C360.331 28.84 359.531 29.58 358.511 30.12C357.511 30.64 356.371 30.9 355.091 30.9H349.241ZM347.351 39V18.18H350.171V39H347.351ZM370.754 39.3C369.354 39.3 368.094 38.97 366.974 38.31C365.854 37.65 364.964 36.76 364.304 35.64C363.644 34.5 363.314 33.23 363.314 31.83C363.314 30.45 363.644 29.21 364.304 28.11C364.964 26.99 365.854 26.1 366.974 25.44C368.094 24.78 369.354 24.45 370.754 24.45C372.134 24.45 373.384 24.78 374.504 25.44C375.644 26.08 376.544 26.96 377.204 28.08C377.864 29.2 378.194 30.45 378.194 31.83C378.194 33.23 377.864 34.5 377.204 35.64C376.544 36.76 375.644 37.65 374.504 38.31C373.384 38.97 372.134 39.3 370.754 39.3ZM370.754 36.69C371.654 36.69 372.454 36.48 373.154 36.06C373.854 35.64 374.404 35.07 374.804 34.35C375.204 33.61 375.404 32.77 375.404 31.83C375.404 30.91 375.194 30.09 374.774 29.37C374.374 28.65 373.824 28.09 373.124 27.69C372.444 27.27 371.654 27.06 370.754 27.06C369.854 27.06 369.054 27.27 368.354 27.69C367.654 28.09 367.104 28.65 366.704 29.37C366.304 30.09 366.104 30.91 366.104 31.83C366.104 32.77 366.304 33.61 366.704 34.35C367.104 35.07 367.654 35.64 368.354 36.06C369.054 36.48 369.854 36.69 370.754 36.69ZM384.906 39L379.266 24.75H382.086L386.166 35.85H385.266L389.316 24.75H390.876L394.926 35.85H394.026L398.106 24.75H400.926L395.316 39H393.726L389.616 28.23H390.606L386.466 39H384.906ZM409.516 39.3C408.096 39.3 406.816 38.98 405.676 38.34C404.536 37.68 403.636 36.79 402.976 35.67C402.316 34.55 401.986 33.28 401.986 31.86C401.986 30.46 402.306 29.2 402.946 28.08C403.606 26.96 404.486 26.08 405.586 25.44C406.706 24.78 407.956 24.45 409.336 24.45C410.656 24.45 411.816 24.75 412.816 25.35C413.836 25.95 414.626 26.78 415.186 27.84C415.766 28.9 416.056 30.1 416.056 31.44C416.056 31.64 416.046 31.86 416.026 32.1C416.006 32.32 415.966 32.58 415.906 32.88H403.876V30.63H414.466L413.476 31.5C413.476 30.54 413.306 29.73 412.966 29.07C412.626 28.39 412.146 27.87 411.526 27.51C410.906 27.13 410.156 26.94 409.276 26.94C408.356 26.94 407.546 27.14 406.846 27.54C406.146 27.94 405.606 28.5 405.226 29.22C404.846 29.94 404.656 30.79 404.656 31.77C404.656 32.77 404.856 33.65 405.256 34.41C405.656 35.15 406.226 35.73 406.966 36.15C407.706 36.55 408.556 36.75 409.516 36.75C410.316 36.75 411.046 36.61 411.706 36.33C412.386 36.05 412.966 35.63 413.446 35.07L415.186 36.84C414.506 37.64 413.666 38.25 412.666 38.67C411.686 39.09 410.636 39.3 409.516 39.3ZM419 39V24.75H421.7V39H419ZM421.7 30.87L420.68 30.42C420.68 28.6 421.1 27.15 421.94 26.07C422.78 24.99 423.99 24.45 425.57 24.45C426.29 24.45 426.94 24.58 427.52 24.84C428.1 25.08 428.64 25.49 429.14 26.07L427.37 27.9C427.07 27.58 426.74 27.35 426.38 27.21C426.02 27.07 425.6 27 425.12 27C424.12 27 423.3 27.32 422.66 27.96C422.02 28.6 421.7 29.57 421.7 30.87Z" fill="#CCCCCC"/>
<rect x="1.5" y="1.5" width="451" height="55" rx="27.5" stroke="#CCCCCC" stroke-width="3"/>
</svg>
