<svg width="171" height="42" viewBox="0 0 171 42" fill="none" xmlns="http://www.w3.org/2000/svg">
<path d="M20.1587 0C63.7256 0 107.292 0 150.859 0C151.12 0.0241875 151.378 0.0518304 151.639 0.0708349C153.463 0.212505 155.237 0.592594 156.963 1.19901C159.924 2.2408 162.507 3.87864 164.743 6.06416C165.628 6.92973 166.427 7.87304 167.145 8.88201C168.682 11.0451 169.773 13.4103 170.402 15.9828C170.844 17.7986 171.065 19.642 170.983 21.5114C170.947 22.3355 170.905 23.1647 170.792 23.9802C170.509 26.0396 169.917 28.0143 169.029 29.8992C167.805 32.4925 166.112 34.735 163.974 36.6493C162.132 38.2975 160.065 39.5846 157.766 40.502C155.317 41.4799 152.771 41.9965 150.132 41.9965C107.121 42.0016 64.1092 42.0016 21.0978 41.993C20.235 41.993 19.3671 41.9343 18.5079 41.8375C16.1124 41.5697 13.8366 40.8787 11.6807 39.8058C9.88578 38.9126 8.25233 37.7861 6.78031 36.4247C5.68498 35.4123 4.70074 34.3066 3.83801 33.092C2.52396 31.2434 1.53625 29.2341 0.883558 27.0641C0.477365 25.7148 0.206569 24.3396 0.0885294 22.935C0.0590196 22.6102 0.0295098 22.2836 0 21.9554C0 21.3196 0 20.6855 0 20.0497C0.0104152 20.0117 0.0277739 19.9737 0.0295098 19.934C0.0781142 19.3587 0.100681 18.7782 0.178795 18.2063C0.578045 15.2381 1.56402 12.4756 3.15408 9.92898C4.25809 8.15984 5.60166 6.5911 7.16915 5.21587C8.90675 3.69033 10.8475 2.47922 12.9895 1.59465C14.9649 0.779184 17.0202 0.272974 19.1519 0.086384C19.4869 0.0570135 19.8236 0.0293706 20.1587 0ZM85.5212 5.00682C64.0779 5.00682 42.6365 5.00682 21.1932 5.01027C20.6464 5.01027 20.0996 5.04483 19.5546 5.09147C17.6521 5.25388 15.8416 5.77045 14.1265 6.59629C12.2223 7.51368 10.561 8.75934 9.1463 10.3298C7.66561 11.9728 6.5668 13.8387 5.86377 15.9309C5.14165 18.0836 4.89168 20.2899 5.11214 22.5514C5.29961 24.4795 5.82211 26.3108 6.6779 28.0472C7.63957 29.996 8.94494 31.6874 10.6027 33.0972C13.6457 35.6818 17.1799 36.9948 21.1794 36.9948C63.9668 37.0017 106.754 37 149.544 36.9948C150.297 36.9948 151.052 36.9482 151.802 36.8704C153.651 36.6769 155.406 36.1396 157.065 35.3103C158.752 34.4672 160.247 33.3667 161.545 32.0001C162.745 30.7372 163.72 29.3257 164.456 27.75C165.548 25.409 166.05 22.9522 165.944 20.3711C165.904 19.3898 165.783 18.4223 165.564 17.4686C164.894 14.5574 163.509 12.0298 161.429 9.88061C160.263 8.67468 158.931 7.683 157.445 6.89517C155.142 5.6737 152.684 5.01891 150.076 5.01718C128.557 5.00682 107.039 5.012 85.5194 5.012L85.5212 5.00682Z" fill="#E21217"/>
<path d="M22.91 30.7216H17.0115V11.0641C17.0844 11.0589 17.1573 11.052 17.2303 11.052C19.0564 11.052 20.8808 11.052 22.7069 11.0485C22.8562 11.0485 22.9447 11.0934 23.0246 11.2196C24.5695 13.6884 26.1179 16.1538 27.6663 18.6192C28.9717 20.6993 30.2771 22.7795 31.5824 24.8596C31.6206 24.9201 31.664 24.9788 31.7404 25.0894V11.0675H37.6354V30.7337H37.4063C35.594 30.7337 33.7835 30.732 31.9713 30.7372C31.8046 30.7372 31.7126 30.6836 31.6258 30.5454C29.2512 26.7739 26.873 23.0041 24.4949 19.2343C24.0019 18.4516 23.5089 17.6707 23.0159 16.8881C22.9951 16.8552 22.9708 16.8241 22.9118 16.7429V30.7216H22.91Z" fill="#E21217"/>
<path d="M129.27 30.7234V30.015C129.104 30.1135 128.97 30.1947 128.836 30.2724C126.305 31.7548 123.019 31.4473 120.824 29.5053C119.417 28.2614 118.588 26.703 118.452 24.8302C118.242 21.9346 119.383 19.6818 121.844 18.1182C122.716 17.5653 123.689 17.2734 124.721 17.1835C126.314 17.0436 127.786 17.3995 129.131 18.2651C129.164 18.2858 129.201 18.2996 129.267 18.3307V11.071H135.181V30.7234H129.27ZM124.755 24.1305C124.755 25.0134 124.75 25.8979 124.755 26.7808C124.762 27.5271 125.078 28.1353 125.677 28.5689C126.418 29.1045 127.231 29.1754 128.048 28.7538C128.854 28.3374 129.267 27.6498 129.272 26.7445C129.281 25.0047 129.274 23.2667 129.274 21.5269C129.274 21.4578 129.277 21.3887 129.27 21.3196C129.145 20.1137 128.106 19.2205 126.89 19.274C125.71 19.3258 124.754 20.34 124.754 21.5425C124.754 22.4046 124.754 23.2684 124.754 24.1305H124.755Z" fill="#E21217"/>
<path d="M56.3897 30.7233H50.4982V17.6154H56.3863V19.0511C56.7282 18.7851 57.0355 18.519 57.3688 18.2944C58.3947 17.6016 59.5421 17.244 60.7728 17.1438C62.1112 17.0332 63.4009 17.2353 64.6143 17.8158C66.1072 18.5311 67.2198 19.604 67.6868 21.2315C67.784 21.5718 67.8378 21.9364 67.8396 22.2888C67.8517 25.0151 67.8465 27.7431 67.8465 30.4694C67.8465 30.5506 67.8465 30.6318 67.8465 30.7216H61.9428C61.9428 30.6318 61.9428 30.5506 61.9428 30.4711C61.9428 27.8208 61.9428 25.1688 61.9428 22.5186C61.9428 21.0518 60.8388 19.8718 59.3685 19.7543C57.8201 19.6299 56.454 20.8548 56.414 22.3527C56.3793 23.7055 56.395 25.0583 56.3932 26.411C56.3915 27.7707 56.3932 29.1304 56.3932 30.4918C56.3932 30.5661 56.3932 30.6404 56.3932 30.7268L56.3897 30.7233Z" fill="#E21217"/>
<path d="M116.451 30.7216H110.532V30.44C110.532 27.7828 110.532 25.1239 110.532 22.4667C110.532 21.057 109.388 19.8597 107.969 19.7508C106.327 19.6247 104.979 20.9844 104.991 22.5289C105.012 25.1723 104.996 27.8174 104.996 30.4607V30.7181H99.0887V17.612H104.991V19.0632C105.156 18.9198 105.284 18.8006 105.418 18.69C106.414 17.8694 107.563 17.3874 108.836 17.2008C110.426 16.9675 111.957 17.1766 113.396 17.9057C114.618 18.5259 115.564 19.426 116.105 20.7028C116.336 21.247 116.447 21.8223 116.447 22.4115C116.451 25.0963 116.447 27.7828 116.447 30.4676V30.7199L116.451 30.7216Z" fill="#E21217"/>
<path d="M146.313 31.4611C143.848 31.4559 141.965 30.9393 140.286 29.7783C138.805 28.7538 137.727 27.4131 137.292 25.6492C136.741 23.4187 137.297 21.4284 138.799 19.7094C140.179 18.1303 141.963 17.2388 144.015 16.8691C146.086 16.4959 148.101 16.7101 150.026 17.5722C151.739 18.3393 153.125 19.4917 153.963 21.1866C155.018 23.3185 154.921 25.4418 153.684 27.477C152.659 29.1615 151.125 30.2344 149.285 30.8927C148.188 31.2849 147.053 31.4766 146.313 31.4628V31.4611ZM148.283 24.1426C148.283 23.011 148.292 21.8794 148.282 20.7477C148.268 19.4831 147.228 18.386 145.848 18.4102C144.511 18.4344 143.499 19.5038 143.499 20.8358C143.499 23.03 143.499 25.2241 143.499 27.4183C143.499 27.5479 143.508 27.6792 143.525 27.8088C143.682 29.0285 144.82 29.9459 146.06 29.8578C147.285 29.7697 148.282 28.7227 148.283 27.5168C148.285 26.3921 148.283 25.2673 148.283 24.1426Z" fill="#E21217"/>
<path d="M96.9328 26.2383C96.7019 26.6996 96.5179 27.147 96.2714 27.5548C95.3062 29.1408 93.8985 30.205 92.1886 30.8909C91.0985 31.3263 89.965 31.5423 88.7881 31.582C87.0782 31.639 85.4534 31.3194 83.9294 30.5523C82.3081 29.7368 81.0322 28.5586 80.2476 26.9C79.9178 26.202 79.7164 25.466 79.6713 24.6937C79.5185 22.0573 80.6972 20.0756 82.7767 18.5657C84.1203 17.5895 85.6496 17.0695 87.2987 16.8915C89.1283 16.6946 90.8919 16.9399 92.5723 17.6932C94.256 18.4482 95.6031 19.5884 96.4814 21.228C96.9519 22.1039 97.1914 23.0455 97.2227 24.0389C97.2227 24.0649 97.214 24.0925 97.207 24.1391H86.0471V24.3793C86.0471 25.4004 86.0419 26.4231 86.0471 27.4442C86.0523 28.4428 86.5175 29.184 87.408 29.6176C88.2881 30.0461 89.1526 29.9321 89.925 29.3326C90.5135 28.8747 90.8156 28.2528 90.8294 27.5047C90.8381 27.0918 90.8294 26.6771 90.8294 26.2383H96.9328ZM86.0367 22.237H90.8051C90.8051 21.6392 90.852 21.0501 90.7947 20.4713C90.6854 19.3414 89.748 18.4862 88.5294 18.4119C87.5157 18.3497 86.528 18.9803 86.1721 20.0273C85.9273 20.746 86.0975 21.4906 86.035 22.2352L86.0367 22.237Z" fill="#E21217"/>
<path d="M77.0536 30.7234H71.1533V17.6103H68.0357V15.7098H71.1447V13.1373H77.0466V15.6994H80.3239V17.593H77.0536V30.7251V30.7234Z" fill="#E21217"/>
<path d="M41.2981 17.6068H47.1827V30.7199H41.2981V17.6068Z" fill="#E21217"/>
<path d="M47.1896 11.071V14.9876H41.2964V11.071H47.1896Z" fill="#E21217"/>
<path d="M152.031 13.4413C152.031 11.3249 153.741 9.65772 155.911 9.65772C157.964 9.65772 159.676 11.3871 159.676 13.4586C159.676 15.5526 157.945 17.2664 155.84 17.2595C153.729 17.2543 152.031 15.5508 152.031 13.4396V13.4413ZM159.12 13.4552C159.119 11.6636 157.65 10.2019 155.85 10.2002C154.053 10.2002 152.576 11.6687 152.578 13.4552C152.578 15.245 154.048 16.7049 155.85 16.7084C157.648 16.7118 159.122 15.245 159.12 13.4552Z" fill="#E21217"/>
<path d="M154.935 13.7904V15.6459H154.451V11.2524C154.461 11.2455 154.472 11.2299 154.482 11.2299C155.183 11.2299 155.885 11.204 156.584 11.2386C157.157 11.2679 157.626 11.7983 157.681 12.3909C157.739 12.9956 157.357 13.5658 156.773 13.7454C156.707 13.7662 156.64 13.7817 156.548 13.8059C156.904 14.4175 157.253 15.017 157.601 15.6182C157.237 15.734 157.079 15.6787 156.905 15.3815C156.624 14.8978 156.339 14.4158 156.062 13.9303C156.004 13.8284 155.94 13.7834 155.817 13.7869C155.534 13.7955 155.249 13.7904 154.935 13.7904ZM154.949 13.279C155.466 13.279 155.971 13.3031 156.473 13.2703C156.86 13.2461 157.148 12.8799 157.147 12.5015C157.147 12.1266 156.839 11.7465 156.473 11.7275C155.97 11.7033 155.466 11.7206 154.949 11.7206V13.279Z" fill="#E21217"/>
</svg>
